<svg xmlns="http://www.w3.org/2000/svg" xmlns:xlink="http://www.w3.org/1999/xlink" width="200" zoomAndPan="magnify" viewBox="0 0 150 149.999998" height="200" preserveAspectRatio="xMidYMid meet" version="1.0"><defs><clipPath id="b2294239d9"><path d="M 89.742188 62.3125 L 128.71875 62.3125 L 128.71875 77.433594 L 89.742188 77.433594 Z M 89.742188 62.3125 " clip-rule="nonzero"/></clipPath><clipPath id="cbf8169c5d"><path d="M 95.828125 72.613281 C 112.328125 71.5625 112.777344 72.160156 113.078125 72.761719 C 113.300781 73.4375 113.078125 74.488281 112.777344 75.011719 C 112.476562 75.535156 112.027344 75.835938 111.351562 76.0625 C 110.300781 76.363281 108.578125 76.210938 106.925781 76.285156 C 104.976562 76.363281 101.902344 76.738281 100.328125 76.363281 C 99.425781 76.136719 98.675781 75.761719 98.300781 75.238281 C 97.925781 74.785156 97.851562 74.113281 97.851562 73.585938 C 97.925781 72.988281 98.152344 72.613281 98.675781 72.011719 C 100.328125 70.210938 107.902344 64.285156 110.527344 63.6875 C 111.578125 63.460938 112.550781 63.613281 113.078125 64.0625 C 113.601562 64.585938 114.050781 65.710938 113.675781 66.613281 C 112.777344 68.636719 104.753906 72.761719 102.652344 73.4375 C 101.902344 73.738281 101.453125 73.8125 100.925781 73.660156 C 100.328125 73.4375 99.503906 72.6875 99.277344 72.160156 C 99.050781 71.636719 99.050781 71.113281 99.277344 70.4375 C 99.800781 69.011719 102.800781 64.886719 103.777344 65.035156 C 104.453125 65.113281 105.277344 66.910156 105.050781 67.738281 C 104.753906 68.9375 102.050781 70.585938 100.777344 70.960938 C 99.878906 71.261719 98.976562 71.261719 98.453125 70.8125 C 97.777344 70.4375 97.027344 69.160156 97.253906 68.261719 C 97.628906 66.613281 102.128906 63.085938 103.925781 62.863281 C 104.976562 62.710938 106.101562 63.386719 106.550781 63.988281 C 106.925781 64.4375 107.003906 65.1875 106.925781 65.710938 C 106.851562 66.238281 106.550781 66.6875 106.027344 67.285156 C 104.902344 68.488281 100.925781 71.335938 99.351562 71.9375 C 98.601562 72.238281 98.078125 72.238281 97.550781 72.085938 C 97.027344 71.9375 96.425781 71.5625 96.128906 71.035156 C 95.828125 70.585938 95.527344 69.988281 95.753906 69.3125 C 95.976562 68.1875 98.003906 65.5625 99.203125 65.035156 C 100.175781 64.738281 101.527344 64.960938 102.128906 65.5625 C 102.652344 66.085938 103.027344 67.738281 102.652344 68.410156 C 102.203125 69.160156 99.878906 69.011719 99.203125 69.6875 C 98.753906 70.136719 99.050781 71.113281 98.675781 71.410156 C 98.152344 71.785156 96.878906 71.785156 96.277344 71.488281 C 95.601562 71.1875 94.925781 70.285156 94.777344 69.613281 C 94.628906 69.011719 94.777344 68.488281 95.152344 67.8125 C 95.902344 66.613281 98.753906 63.988281 100.175781 63.6875 C 101.078125 63.460938 101.976562 63.761719 102.503906 64.210938 C 103.027344 64.585938 103.402344 65.1875 103.402344 65.785156 C 103.476562 66.460938 103.101562 67.511719 102.578125 68.035156 C 102.050781 68.710938 100.777344 69.613281 100.175781 69.386719 C 99.503906 69.160156 98.601562 66.613281 98.902344 66.238281 C 99.203125 65.863281 101.675781 66.460938 102.128906 67.210938 C 102.578125 67.960938 102.128906 69.761719 101.378906 70.886719 C 100.328125 72.386719 97.175781 74.5625 95.675781 74.710938 C 94.851562 74.785156 93.953125 74.261719 93.503906 73.738281 C 93.128906 73.285156 92.902344 72.613281 92.902344 72.011719 C 92.976562 71.410156 93.128906 70.960938 93.652344 70.363281 C 94.851562 68.9375 99.351562 64.960938 101.226562 64.886719 C 102.277344 64.886719 103.550781 66.011719 103.777344 66.761719 C 103.925781 67.4375 103.027344 69.238281 102.425781 69.3125 C 101.902344 69.460938 100.328125 68.035156 100.402344 67.511719 C 100.476562 67.0625 101.675781 66.386719 102.351562 66.386719 C 103.101562 66.460938 104.453125 67.363281 104.675781 68.113281 C 104.976562 68.863281 104.675781 69.988281 103.925781 70.886719 C 102.351562 72.761719 95.003906 75.910156 92.675781 76.0625 C 91.628906 76.0625 90.953125 75.761719 90.425781 75.238281 C 90.050781 74.863281 89.753906 74.1875 89.753906 73.585938 C 89.828125 72.910156 90.425781 71.9375 91.328125 71.261719 C 93.277344 69.761719 100.101562 67.210938 102.425781 67.4375 C 103.628906 67.511719 104.527344 68.035156 104.902344 68.710938 C 105.277344 69.386719 105.128906 70.585938 104.527344 71.488281 C 103.328125 73.285156 97.703125 76.136719 95.601562 76.886719 C 94.476562 77.261719 93.726562 77.5625 92.976562 77.261719 C 92.226562 77.035156 91.253906 75.910156 91.101562 75.160156 C 90.953125 74.636719 91.175781 73.886719 91.476562 73.4375 C 91.777344 72.988281 92.078125 72.761719 92.976562 72.386719 C 95.753906 71.335938 107.378906 71.410156 113.300781 70.136719 C 118.101562 69.085938 123.578125 65.5625 126.050781 65.863281 C 127.253906 66.011719 128.152344 66.6875 128.453125 67.363281 C 128.753906 67.960938 128.828125 68.9375 128.300781 69.613281 C 127.253906 71.035156 121.402344 72.988281 119.300781 72.988281 C 118.175781 72.988281 117.128906 72.613281 116.675781 72.011719 C 116.226562 71.410156 116.152344 70.210938 116.601562 69.160156 C 117.351562 67.4375 121.027344 63.613281 122.902344 63.160156 C 123.953125 62.863281 125.300781 63.3125 125.828125 63.910156 C 126.277344 64.585938 126.277344 66.3125 125.828125 66.988281 C 125.453125 67.585938 124.402344 68.035156 123.726562 67.960938 C 123.050781 67.960938 122.078125 67.363281 121.703125 66.761719 C 121.328125 66.238281 121.253906 65.035156 121.550781 64.4375 C 121.777344 63.835938 122.675781 63.085938 123.351562 63.011719 C 124.101562 62.863281 125.152344 63.238281 125.601562 63.6875 C 126.128906 64.210938 126.425781 65.1875 126.277344 66.011719 C 126.128906 67.0625 124.777344 68.261719 123.726562 69.386719 C 122.527344 70.585938 120.652344 72.761719 119.300781 72.988281 C 118.328125 73.136719 117.128906 72.613281 116.675781 72.011719 C 116.226562 71.488281 116.152344 70.363281 116.300781 69.761719 C 116.527344 69.160156 116.828125 68.785156 117.503906 68.410156 C 118.925781 67.4375 124.175781 65.5625 126.050781 65.863281 C 127.175781 66.011719 128.078125 66.6875 128.453125 67.363281 C 128.753906 67.8125 128.753906 68.5625 128.527344 69.085938 C 128.378906 69.613281 128.152344 69.988281 127.476562 70.4375 C 125.601562 71.785156 118.925781 74.1875 114.726562 75.011719 C 110.902344 75.761719 106.925781 75.160156 103.175781 75.535156 C 99.726562 75.910156 94.851562 77.710938 92.976562 77.261719 C 92.226562 77.113281 91.851562 76.8125 91.550781 76.285156 C 91.175781 75.761719 90.878906 74.710938 91.253906 73.960938 C 91.703125 72.761719 94.175781 71.5625 95.976562 70.511719 C 98.003906 69.3125 101.453125 67.285156 103.027344 67.4375 C 103.925781 67.511719 104.601562 68.113281 104.902344 68.710938 C 105.203125 69.3125 105.203125 70.363281 104.902344 71.035156 C 104.527344 71.710938 103.703125 72.011719 102.652344 72.535156 C 100.628906 73.585938 94.628906 75.910156 92.675781 76.0625 C 91.851562 76.0625 91.402344 75.988281 90.953125 75.6875 C 90.425781 75.386719 89.976562 74.785156 89.902344 74.1875 C 89.753906 73.511719 90.050781 72.386719 90.800781 71.5625 C 92.453125 69.761719 99.351562 66.535156 101.753906 66.460938 C 102.953125 66.460938 103.925781 66.988281 104.453125 67.511719 C 104.828125 67.960938 104.902344 68.710938 104.828125 69.3125 C 104.753906 69.835938 104.453125 70.4375 103.925781 70.886719 C 103.175781 71.488281 101.378906 72.160156 100.253906 72.085938 C 99.277344 72.085938 98.003906 71.710938 97.628906 71.035156 C 97.101562 70.136719 97.476562 68.1875 98.152344 66.910156 C 98.976562 65.335938 101.378906 63.085938 102.878906 62.5625 C 103.851562 62.261719 104.902344 62.335938 105.578125 62.785156 C 106.328125 63.3125 107.078125 64.660156 107.078125 65.488281 C 107.078125 66.3125 106.476562 66.910156 105.726562 67.738281 C 104.152344 69.535156 98.753906 73.511719 96.878906 74.335938 C 96.128906 74.710938 95.675781 74.785156 95.078125 74.710938 C 94.550781 74.5625 93.800781 74.261719 93.503906 73.738281 C 93.128906 73.136719 92.902344 71.710938 93.277344 70.8125 C 93.800781 69.6875 96.578125 67.660156 97.476562 67.886719 C 98.226562 68.113281 98.902344 70.660156 98.675781 70.886719 C 98.378906 71.113281 96.050781 69.835938 95.753906 69.011719 C 95.378906 68.113281 95.976562 66.386719 96.726562 65.488281 C 97.550781 64.511719 99.652344 63.460938 100.851562 63.613281 C 101.753906 63.613281 102.953125 64.511719 103.253906 65.1875 C 103.550781 65.863281 103.402344 66.761719 103.027344 67.585938 C 102.277344 68.9375 99.578125 71.335938 98.078125 71.636719 C 97.101562 71.863281 95.753906 71.410156 95.300781 70.738281 C 94.777344 70.136719 94.777344 68.636719 95.152344 67.8125 C 95.527344 66.910156 96.726562 65.9375 97.628906 65.410156 C 98.527344 64.960938 99.652344 64.738281 100.402344 64.8125 C 101.078125 64.886719 101.753906 65.113281 102.128906 65.5625 C 102.578125 66.160156 102.953125 67.4375 102.652344 68.410156 C 102.277344 69.6875 100.027344 71.9375 98.753906 72.160156 C 97.851562 72.3125 96.578125 71.710938 96.128906 71.035156 C 95.675781 70.4375 95.675781 69.160156 96.203125 68.1875 C 97.175781 66.386719 102.726562 62.863281 104.527344 62.785156 C 105.425781 62.785156 106.175781 63.460938 106.550781 63.988281 C 106.925781 64.4375 107.078125 65.113281 106.925781 65.710938 C 106.703125 66.613281 105.277344 67.8125 104.226562 68.636719 C 102.953125 69.6875 100.777344 71.1875 99.578125 71.1875 C 98.753906 71.1875 97.925781 70.585938 97.550781 69.988281 C 97.253906 69.386719 97.101562 68.410156 97.402344 67.660156 C 97.925781 66.535156 100.175781 64.960938 101.453125 64.210938 C 102.425781 63.613281 103.253906 63.238281 104.226562 63.160156 C 105.203125 63.085938 106.550781 63.011719 107.152344 63.6875 C 107.902344 64.4375 108.050781 66.613281 107.675781 68.035156 C 107.078125 69.761719 104.601562 72.386719 103.175781 73.136719 C 102.203125 73.660156 101.078125 73.738281 100.402344 73.4375 C 99.800781 73.136719 99.203125 72.160156 99.128906 71.5625 C 99.050781 71.035156 99.128906 70.511719 99.578125 69.910156 C 100.550781 68.488281 104.902344 66.085938 107.300781 64.960938 C 109.027344 64.210938 111.050781 63.386719 112.101562 63.535156 C 112.777344 63.613281 113.152344 64.0625 113.453125 64.511719 C 113.753906 65.035156 114.050781 65.785156 113.675781 66.613281 C 112.628906 68.9375 102.878906 76.136719 100.328125 76.363281 C 99.425781 76.4375 98.675781 75.835938 98.300781 75.238281 C 97.925781 74.710938 97.777344 73.585938 98.003906 72.988281 C 98.300781 72.3125 98.828125 71.785156 99.726562 71.488281 C 101.753906 70.660156 108.578125 70.660156 110.753906 71.1875 C 111.726562 71.410156 112.402344 71.636719 112.777344 72.238281 C 113.152344 72.910156 113.078125 74.410156 112.777344 75.011719 C 112.476562 75.535156 112.101562 75.761719 111.351562 76.0625 C 108.953125 76.886719 98.152344 77.710938 95.753906 77.261719 C 95.003906 77.035156 94.628906 76.8125 94.328125 76.4375 C 94.027344 76.0625 93.800781 75.386719 93.800781 74.863281 C 93.800781 74.410156 94.027344 73.738281 94.402344 73.363281 C 94.703125 72.988281 95.828125 72.613281 95.828125 72.613281 " clip-rule="nonzero"/></clipPath><clipPath id="80d3bc102a"><path d="M 89 58.945312 L 133.886719 58.945312 L 133.886719 89.351562 L 89 89.351562 Z M 89 58.945312 " clip-rule="nonzero"/></clipPath><clipPath id="1361032a94"><path d="M 89.003906 75.3125 C 89.003906 75.3125 89.003906 75.160156 89.003906 75.011719 C 89.003906 74.9375 89.078125 74.710938 89.078125 74.710938 C 89.078125 74.710938 89.152344 74.5625 89.152344 74.410156 C 89.226562 74.335938 89.300781 74.1875 89.300781 74.1875 C 89.300781 74.1875 89.378906 73.960938 89.453125 73.886719 C 89.527344 73.8125 89.675781 73.660156 89.675781 73.660156 C 89.675781 73.660156 89.828125 73.511719 89.902344 73.4375 C 89.976562 73.363281 90.128906 73.285156 90.128906 73.285156 C 90.128906 73.285156 90.277344 73.136719 90.425781 73.136719 C 90.503906 73.0625 90.652344 72.988281 90.652344 72.988281 C 90.652344 72.988281 90.878906 72.910156 90.953125 72.910156 C 91.101562 72.910156 91.253906 72.835938 91.253906 72.835938 C 91.253906 72.835938 91.476562 72.835938 91.550781 72.835938 C 91.703125 72.835938 91.851562 72.835938 91.851562 72.835938 C 91.925781 72.835938 92.078125 72.910156 92.152344 72.910156 C 92.300781 72.988281 92.453125 72.988281 92.453125 72.988281 C 92.527344 72.988281 94.101562 72.835938 94.925781 72.835938 C 95.753906 72.835938 96.425781 72.835938 97.253906 72.988281 C 98.078125 73.136719 98.902344 73.4375 99.726562 73.660156 C 100.628906 73.886719 101.828125 74.261719 102.277344 74.261719 C 102.425781 74.261719 102.425781 74.261719 102.652344 74.1875 C 103.175781 74.113281 105.128906 73.738281 105.652344 73.585938 C 105.878906 73.511719 106.101562 73.511719 106.175781 73.511719 C 106.175781 73.511719 106.101562 73.4375 106.101562 73.4375 C 106.027344 73.4375 106.027344 73.363281 105.953125 73.363281 C 105.953125 73.285156 105.878906 73.285156 105.878906 73.285156 C 105.800781 73.210938 105.726562 73.136719 105.726562 73.0625 C 105.652344 72.988281 105.578125 72.910156 105.503906 72.910156 C 105.503906 72.835938 105.503906 72.761719 105.503906 72.761719 C 105.425781 72.6875 105.425781 72.6875 105.351562 72.6875 C 105.351562 72.613281 105.351562 72.460938 105.277344 72.386719 C 105.277344 72.3125 105.203125 72.238281 105.203125 72.160156 C 105.203125 72.160156 105.203125 72.085938 105.203125 72.011719 C 105.128906 72.011719 105.128906 71.9375 105.128906 71.9375 C 105.128906 71.863281 105.128906 71.785156 105.128906 71.636719 C 105.128906 71.5625 105.050781 71.488281 105.050781 71.410156 C 105.050781 71.335938 105.128906 71.335938 105.128906 71.261719 C 105.128906 71.261719 105.128906 71.1875 105.128906 71.113281 C 105.128906 71.113281 105.203125 70.960938 105.203125 70.886719 C 105.203125 70.8125 105.203125 70.738281 105.203125 70.660156 C 105.277344 70.585938 105.277344 70.585938 105.277344 70.511719 C 105.351562 70.511719 105.351562 70.4375 105.351562 70.4375 C 105.351562 70.363281 105.425781 70.285156 105.503906 70.210938 C 105.578125 70.136719 105.578125 70.0625 105.652344 69.988281 C 105.652344 69.910156 105.726562 69.910156 105.726562 69.910156 C 105.726562 69.835938 105.800781 69.835938 105.800781 69.761719 C 105.878906 69.761719 105.953125 69.6875 106.027344 69.613281 C 106.101562 69.613281 106.175781 69.460938 106.175781 69.460938 C 106.175781 69.460938 107.976562 67.960938 108.878906 67.210938 C 109.851562 66.3125 110.753906 65.410156 111.726562 64.511719 C 112.550781 63.761719 113.378906 63.011719 114.277344 62.261719 C 115.253906 61.4375 117.203125 59.863281 117.277344 59.863281 C 117.277344 59.863281 117.351562 59.710938 117.425781 59.636719 C 117.503906 59.5625 117.652344 59.488281 117.652344 59.410156 C 117.652344 59.410156 117.800781 59.335938 117.878906 59.261719 C 118.027344 59.261719 118.175781 59.1875 118.175781 59.113281 C 118.175781 59.113281 118.328125 59.113281 118.402344 59.035156 C 118.550781 59.035156 118.703125 58.960938 118.703125 58.960938 C 118.703125 58.960938 118.925781 58.960938 119.003906 58.960938 C 119.078125 58.960938 119.300781 58.960938 119.300781 58.960938 C 119.300781 58.960938 119.453125 58.960938 119.601562 59.035156 C 119.675781 59.035156 119.828125 59.035156 119.828125 59.035156 C 119.902344 59.035156 120.050781 59.113281 120.128906 59.1875 C 120.203125 59.1875 120.351562 59.261719 120.425781 59.261719 C 120.425781 59.261719 120.578125 59.410156 120.652344 59.488281 C 120.726562 59.5625 120.878906 59.636719 120.878906 59.636719 C 120.878906 59.636719 120.953125 59.785156 121.027344 59.863281 C 121.101562 59.9375 121.175781 60.085938 121.175781 60.085938 C 121.175781 60.085938 121.253906 60.3125 121.328125 60.386719 C 121.328125 60.460938 121.402344 60.613281 121.402344 60.613281 C 121.476562 60.613281 121.476562 60.835938 121.476562 60.910156 C 121.476562 60.988281 121.476562 61.136719 121.550781 61.136719 C 121.703125 61.210938 123.351562 59.710938 123.351562 59.710938 C 123.351562 59.710938 123.503906 59.636719 123.578125 59.5625 C 123.726562 59.488281 123.878906 59.410156 123.878906 59.410156 C 123.878906 59.410156 124.027344 59.335938 124.175781 59.335938 C 124.253906 59.335938 124.402344 59.261719 124.402344 59.261719 C 124.402344 59.261719 124.628906 59.261719 124.703125 59.261719 C 124.777344 59.1875 125.003906 59.1875 125.003906 59.1875 C 125.003906 59.1875 125.226562 59.261719 125.300781 59.261719 C 125.378906 59.261719 125.601562 59.335938 125.601562 59.335938 C 125.601562 59.335938 125.753906 59.410156 125.828125 59.410156 C 125.902344 59.488281 126.128906 59.5625 126.128906 59.5625 C 126.128906 59.5625 126.277344 59.710938 126.351562 59.710938 C 126.425781 59.785156 126.578125 59.9375 126.578125 59.9375 C 126.578125 59.9375 126.652344 60.085938 126.726562 60.160156 C 126.878906 60.160156 127.175781 59.785156 127.550781 59.710938 C 128.378906 59.5625 130.925781 59.863281 131.378906 60.535156 C 131.753906 60.910156 131.152344 62.1875 131.378906 62.335938 C 131.378906 62.410156 131.527344 62.335938 131.601562 62.335938 C 131.675781 62.335938 131.828125 62.335938 131.828125 62.335938 C 131.828125 62.335938 132.050781 62.410156 132.128906 62.410156 C 132.203125 62.410156 132.351562 62.488281 132.351562 62.488281 C 132.351562 62.488281 132.503906 62.5625 132.578125 62.5625 C 132.652344 62.636719 132.800781 62.710938 132.800781 62.710938 C 132.800781 62.710938 132.953125 62.785156 133.027344 62.863281 C 133.101562 62.9375 133.253906 63.011719 133.253906 63.011719 C 133.253906 63.085938 133.328125 63.160156 133.402344 63.238281 C 133.402344 63.3125 133.550781 63.460938 133.550781 63.460938 C 133.550781 63.460938 133.628906 63.613281 133.628906 63.6875 C 133.703125 63.761719 133.703125 63.988281 133.703125 63.988281 C 133.703125 63.988281 133.777344 64.136719 133.777344 64.210938 C 133.777344 64.285156 133.777344 64.4375 133.777344 64.511719 C 133.777344 64.511719 133.777344 64.660156 133.777344 64.738281 C 133.777344 64.8125 133.777344 64.960938 133.777344 64.960938 C 133.777344 65.035156 133.703125 65.1875 133.703125 65.261719 C 133.628906 65.335938 133.550781 65.488281 133.550781 65.488281 C 133.550781 65.488281 133.476562 65.636719 133.402344 65.710938 C 133.402344 65.785156 133.328125 65.9375 133.253906 65.9375 C 133.253906 65.9375 132.578125 68.1875 132.277344 68.863281 C 132.128906 69.238281 131.753906 69.460938 131.828125 69.6875 C 131.828125 69.910156 132.277344 69.988281 132.351562 70.285156 C 132.578125 70.8125 132.203125 72.160156 132.128906 72.988281 C 131.976562 73.8125 131.753906 74.5625 131.753906 75.238281 C 131.675781 75.910156 131.902344 76.511719 131.976562 77.113281 C 132.050781 77.710938 132.050781 78.613281 132.050781 78.910156 C 132.050781 78.988281 132.128906 79.0625 132.128906 79.136719 C 132.128906 79.363281 132.128906 80.035156 132.128906 80.035156 C 132.128906 80.035156 132.128906 80.261719 132.050781 80.335938 C 132.050781 80.410156 132.050781 80.636719 132.050781 80.636719 C 132.050781 80.636719 131.976562 80.785156 131.976562 80.9375 C 131.902344 81.011719 131.828125 81.160156 131.828125 81.160156 C 131.828125 81.238281 131.753906 81.386719 131.675781 81.460938 C 131.601562 81.535156 131.527344 81.6875 131.527344 81.6875 C 131.527344 81.6875 131.378906 81.835938 131.300781 81.910156 C 131.226562 81.988281 131.078125 82.0625 131.078125 82.0625 C 131.078125 82.0625 130.851562 82.210938 130.777344 82.210938 C 130.703125 82.285156 130.550781 82.363281 130.550781 82.363281 C 130.550781 82.363281 130.328125 82.4375 130.253906 82.4375 C 130.101562 82.511719 129.953125 82.511719 129.953125 82.511719 C 129.953125 82.511719 129.726562 82.511719 129.652344 82.511719 C 129.578125 82.511719 129.351562 82.511719 129.351562 82.511719 C 129.351562 82.511719 129.128906 82.511719 129.050781 82.4375 C 128.976562 82.4375 128.753906 82.363281 128.753906 82.363281 C 128.753906 82.363281 128.601562 82.285156 128.453125 82.285156 C 128.378906 82.210938 128.226562 82.136719 128.226562 82.136719 C 128.226562 82.136719 128.078125 81.988281 128.003906 81.910156 C 127.925781 81.835938 127.777344 81.6875 127.777344 81.6875 C 127.777344 81.6875 127.628906 81.460938 127.628906 81.460938 C 127.550781 81.460938 127.550781 81.460938 127.550781 81.535156 C 127.550781 81.613281 127.253906 81.910156 127.101562 82.136719 C 126.953125 82.511719 126.878906 83.035156 126.578125 83.5625 C 126.277344 84.238281 125.378906 85.738281 125.378906 85.738281 C 125.378906 85.738281 125.300781 85.886719 125.226562 85.960938 C 125.152344 86.113281 125.003906 86.261719 125.003906 86.261719 C 125.003906 86.261719 124.851562 86.335938 124.777344 86.410156 C 124.703125 86.488281 124.550781 86.636719 124.550781 86.636719 C 124.550781 86.636719 124.402344 86.710938 124.253906 86.785156 C 124.175781 86.785156 124.027344 86.863281 124.027344 86.863281 C 124.027344 86.863281 123.800781 86.9375 123.726562 86.9375 C 123.578125 87.011719 123.425781 87.011719 123.425781 87.011719 C 123.425781 87.011719 123.203125 87.011719 123.128906 87.011719 C 122.976562 87.011719 122.828125 87.011719 122.828125 87.011719 C 122.828125 87.011719 122.601562 86.9375 122.527344 86.9375 C 122.378906 86.863281 122.226562 86.863281 122.226562 86.863281 C 122.226562 86.863281 122.003906 86.710938 121.925781 86.710938 C 121.851562 86.636719 121.703125 86.5625 121.703125 86.5625 C 121.703125 86.488281 121.550781 86.410156 121.476562 86.335938 C 121.402344 86.261719 121.253906 86.113281 121.253906 86.113281 C 121.253906 86.113281 121.101562 85.886719 121.101562 85.8125 C 121.027344 85.8125 121.027344 85.738281 120.953125 85.660156 C 120.800781 85.585938 120.277344 85.738281 120.128906 85.660156 C 119.976562 85.660156 119.902344 85.660156 119.753906 85.585938 C 119.675781 85.585938 119.527344 85.585938 119.378906 85.585938 C 119.300781 85.585938 119.152344 85.660156 119.152344 85.660156 C 119.152344 85.660156 119.003906 85.660156 118.851562 85.585938 C 118.777344 85.585938 118.550781 85.585938 118.550781 85.585938 C 118.550781 85.585938 118.476562 85.585938 118.402344 85.585938 C 118.328125 85.511719 118.175781 85.585938 117.953125 85.511719 C 117.503906 85.511719 116.078125 85.0625 115.777344 85.136719 C 115.628906 85.210938 115.703125 85.285156 115.628906 85.363281 C 115.328125 85.511719 113.976562 85.136719 113.753906 85.363281 C 113.675781 85.363281 113.675781 85.511719 113.675781 85.585938 C 113.601562 85.660156 113.527344 85.886719 113.527344 85.886719 C 113.527344 85.886719 113.453125 86.035156 113.378906 86.113281 C 113.300781 86.1875 113.226562 86.410156 113.226562 86.410156 C 113.226562 86.410156 113.078125 86.488281 113.003906 86.5625 C 112.925781 86.636719 112.777344 86.785156 112.777344 86.785156 C 112.777344 86.785156 112.628906 86.9375 112.476562 86.9375 C 112.402344 87.011719 112.253906 87.085938 112.253906 87.085938 C 112.253906 87.085938 112.027344 87.160156 111.953125 87.160156 C 111.878906 87.238281 111.652344 87.238281 111.652344 87.238281 C 111.652344 87.238281 111.425781 87.3125 111.351562 87.3125 C 111.277344 87.3125 111.050781 87.3125 111.050781 87.3125 C 111.050781 87.3125 110.828125 87.238281 110.753906 87.238281 C 110.601562 87.238281 110.527344 87.160156 110.453125 87.160156 C 110.300781 87.160156 110.226562 87.085938 110.003906 87.085938 C 109.550781 86.9375 108.503906 86.5625 107.753906 86.335938 C 107.003906 86.113281 106.027344 85.8125 105.578125 85.738281 C 105.351562 85.660156 105.128906 85.585938 105.128906 85.660156 C 105.050781 85.660156 105.203125 85.886719 105.203125 85.886719 C 105.203125 85.886719 105.203125 86.113281 105.277344 86.1875 C 105.277344 86.261719 105.351562 86.488281 105.351562 86.488281 C 105.351562 86.488281 105.277344 86.710938 105.277344 86.785156 C 105.277344 86.863281 105.277344 87.085938 105.277344 87.085938 C 105.277344 87.085938 105.203125 87.3125 105.203125 87.386719 C 105.203125 87.460938 105.128906 87.6875 105.128906 87.6875 C 105.128906 87.6875 105.050781 87.910156 104.976562 87.988281 C 104.902344 88.0625 104.828125 88.210938 104.828125 88.210938 C 104.828125 88.210938 104.675781 88.363281 104.601562 88.4375 C 104.527344 88.511719 104.378906 88.660156 104.378906 88.660156 C 104.378906 88.660156 104.226562 88.8125 104.152344 88.8125 C 104.003906 88.886719 103.851562 89.035156 103.851562 89.035156 C 103.851562 89.035156 103.628906 89.113281 103.550781 89.113281 C 103.476562 89.113281 103.253906 89.1875 103.253906 89.1875 C 103.253906 89.1875 103.101562 89.1875 102.953125 89.261719 C 102.878906 89.261719 102.652344 89.261719 102.652344 89.261719 C 102.652344 89.261719 102.425781 89.1875 102.351562 89.1875 C 102.277344 89.1875 102.050781 89.1875 102.050781 89.1875 C 102.050781 89.1875 101.828125 89.035156 101.753906 89.035156 C 101.675781 88.960938 101.601562 88.960938 101.453125 88.886719 C 101.378906 88.886719 101.378906 88.8125 101.226562 88.8125 C 100.851562 88.585938 99.503906 88.136719 98.753906 87.613281 C 98.078125 87.238281 97.550781 86.710938 96.953125 86.113281 C 96.277344 85.4375 95.453125 84.3125 94.925781 83.710938 C 94.628906 83.410156 94.550781 83.1875 94.175781 82.886719 C 93.578125 82.511719 91.328125 81.988281 91.328125 81.988281 C 91.328125 81.988281 91.101562 81.988281 91.027344 81.910156 C 90.953125 81.910156 90.726562 81.835938 90.726562 81.835938 C 90.726562 81.835938 90.578125 81.761719 90.425781 81.761719 C 90.351562 81.6875 90.203125 81.613281 90.203125 81.613281 C 90.203125 81.613281 90.050781 81.460938 89.976562 81.386719 C 89.828125 81.3125 89.675781 81.160156 89.675781 81.160156 C 89.675781 81.160156 89.601562 81.011719 89.527344 80.9375 C 89.453125 80.863281 89.378906 80.710938 89.378906 80.710938 C 89.378906 80.710938 89.300781 80.488281 89.226562 80.410156 C 89.226562 80.335938 89.152344 80.113281 89.152344 80.113281 C 89.152344 80.113281 89.078125 79.886719 89.078125 79.8125 C 89.078125 79.738281 89.003906 79.511719 89.003906 79.511719 C 89.003906 79.511719 89.078125 79.285156 89.078125 79.210938 C 89.078125 79.0625 89.078125 78.910156 89.078125 78.910156 C 89.078125 78.910156 89.152344 78.6875 89.226562 78.613281 C 89.226562 78.535156 89.300781 78.3125 89.300781 78.3125 C 89.300781 78.3125 89.453125 78.160156 89.453125 78.085938 C 89.527344 77.9375 89.675781 77.785156 89.675781 77.785156 C 89.675781 77.785156 89.828125 77.636719 89.902344 77.5625 C 89.902344 77.5625 89.976562 77.488281 89.976562 77.488281 C 89.976562 77.410156 89.902344 77.335938 89.828125 77.261719 C 89.753906 77.1875 89.601562 77.035156 89.601562 77.035156 C 89.601562 77.035156 89.453125 76.886719 89.378906 76.8125 C 89.378906 76.738281 89.226562 76.511719 89.226562 76.511719 C 89.226562 76.511719 89.152344 76.363281 89.152344 76.210938 C 89.078125 76.136719 89.003906 75.988281 89.003906 75.988281 C 89.003906 75.988281 89.003906 75.761719 89.003906 75.613281 C 89.003906 75.535156 89.003906 75.3125 89.003906 75.3125 M 109.628906 72.835938 C 110.828125 72.386719 111.578125 71.410156 111.953125 70.960938 C 112.175781 70.660156 112.476562 70.285156 112.476562 70.285156 C 112.476562 70.285156 111.503906 71.261719 110.976562 71.710938 C 110.527344 72.085938 109.628906 72.835938 109.628906 72.835938 " clip-rule="nonzero"/></clipPath></defs><path fill="#00549d" d="M 71.570312 10.269531 C 73.695312 9.078125 76.304688 9.078125 78.425781 10.269531 C 88.910156 16.152344 120.460938 33.867188 130.945312 39.75 C 133.070312 40.9375 134.375 43.136719 134.375 45.519531 C 134.375 57.289062 134.375 92.710938 134.375 104.476562 C 134.375 106.859375 133.070312 109.058594 130.945312 110.25 C 120.460938 116.132812 88.914062 133.847656 78.425781 139.730469 C 76.304688 140.921875 73.691406 140.921875 71.570312 139.730469 C 61.085938 133.847656 29.539062 116.132812 19.050781 110.25 C 16.929688 109.058594 15.625 106.863281 15.625 104.480469 C 15.625 92.710938 15.625 57.289062 15.625 45.523438 C 15.625 43.140625 16.929688 40.941406 19.054688 39.75 C 29.535156 33.867188 61.089844 16.152344 71.570312 10.269531 Z M 71.570312 10.269531 " fill-opacity="1" fill-rule="evenodd"/><path fill="#0086d4" d="M 16.574219 107.511719 C 15.742188 106.398438 15.625 105.34375 15.625 103.921875 C 15.625 92.222656 15.625 57.003906 15.625 45.300781 C 15.625 42.929688 16.929688 40.742188 19.042969 39.5625 C 29.492188 33.710938 60.933594 16.101562 71.382812 10.25 C 73.496094 9.066406 76.363281 9.089844 78.476562 10.273438 C 88.925781 16.125 120.261719 33.585938 130.710938 39.433594 C 131.554688 39.910156 132.195312 40.480469 132.773438 41.234375 Z M 16.574219 107.511719 " fill-opacity="1" fill-rule="evenodd"/><path fill="#ffffff" d="M 75 31.25 C 99.148438 31.25 118.75 50.851562 118.75 75 C 118.75 99.148438 99.148438 118.75 75 118.75 C 50.851562 118.75 31.25 99.148438 31.25 75 C 31.25 50.851562 50.851562 31.25 75 31.25 Z M 75 53.125 C 87.070312 53.125 96.875 62.925781 96.875 75 C 96.875 87.070312 87.070312 96.875 75 96.875 C 62.929688 96.875 53.125 87.070312 53.125 75 C 53.125 62.925781 62.925781 53.125 75 53.125 Z M 75 53.125 " fill-opacity="1" fill-rule="evenodd"/><path fill="#0075c0" d="M 132.765625 41.265625 C 134.378906 42.773438 134.347656 45.050781 134.347656 46.839844 C 134.347656 58.699219 134.246094 92.429688 134.375 104.289062 C 134.386719 105.527344 133.976562 106.832031 133.367188 107.8125 L 73.726562 75 Z M 132.765625 41.265625 " fill-opacity="1" fill-rule="evenodd"/><path fill="#ffffff" d="M 96.875 65.625 L 103.125 65.625 L 103.125 84.375 L 96.875 84.375 Z M 118.75 65.625 L 125 65.625 L 125 84.375 L 118.75 84.375 Z M 118.75 65.625 " fill-opacity="1" fill-rule="evenodd"/><path fill="#ffffff" d="M 90.625 71.875 L 109.375 71.875 L 109.375 78.125 L 90.625 78.125 Z M 112.5 71.875 L 131.25 71.875 L 131.25 78.125 L 112.5 78.125 Z M 112.5 71.875 " fill-opacity="1" fill-rule="evenodd"/><g clip-path="url(#b2294239d9)"><g clip-path="url(#cbf8169c5d)"><path fill="#0075c0" d="M 86.753906 59.5625 L 131.546875 59.5625 L 131.546875 80.261719 L 86.753906 80.261719 Z M 86.753906 59.5625 " fill-opacity="1" fill-rule="nonzero"/></g></g><g clip-path="url(#80d3bc102a)"><g clip-path="url(#1361032a94)"><path fill="#0075c0" d="M 86.003906 55.960938 L 136.871094 55.960938 L 136.871094 92.335938 L 86.003906 92.335938 Z M 86.003906 55.960938 " fill-opacity="1" fill-rule="nonzero"/></g></g></svg>