<svg xmlns="http://www.w3.org/2000/svg" xmlns:xlink="http://www.w3.org/1999/xlink" width="436" zoomAndPan="magnify" viewBox="0 0 327 282.749989" height="377" preserveAspectRatio="xMidYMid meet" version="1.0"><defs><g/><clipPath id="0faef03ebd"><path d="M 23.5 125.761719 L 282.28125 125.761719 L 282.28125 155.785156 L 23.5 155.785156 Z M 23.5 125.761719 " clip-rule="nonzero"/></clipPath></defs><g fill="#ffffff" fill-opacity="1"><g transform="translate(145.571246, 196.644716)"><g><path d="M 49.734375 -112.109375 L 49.734375 -114.84375 L 5.8125 -114.84375 L 5.8125 -112.109375 L 19.484375 -112.109375 L 19.484375 -2.734375 L 5.8125 -2.734375 L 5.8125 0 L 49.734375 0 L 49.734375 -2.734375 L 36.0625 -2.734375 L 36.0625 -112.109375 Z M 86.46875 -112.109375 L 37.25 -62.890625 L 79.46875 -2.734375 L 64.59375 -2.734375 L 64.59375 0 L 112.953125 0 L 112.953125 -2.734375 L 99.28125 -2.734375 L 50.921875 -72.109375 L 90.90625 -112.109375 L 105.4375 -112.109375 L 105.4375 -114.84375 L 71.78125 -114.84375 L 71.78125 -112.109375 Z M 86.46875 -112.109375 "/></g></g></g><g fill="#ffffff" fill-opacity="1"><g transform="translate(39.680646, 198.621693)"><g><path d="M 4.6875 -2.78125 L 4.6875 0 L 37.328125 0 L 37.328125 -2.78125 L 22.390625 -2.78125 L 22.390625 -108.84375 L 89.578125 1.390625 L 95.484375 1.390625 L 95.484375 -113.875 L 110.40625 -113.875 L 110.40625 -116.65625 L 77.765625 -116.65625 L 77.765625 -113.875 L 92.703125 -113.875 L 92.703125 -28.640625 L 38.890625 -116.65625 L 4.6875 -116.65625 L 4.6875 -113.875 L 19.609375 -113.875 L 19.609375 -2.78125 Z M 4.6875 -2.78125 "/></g></g></g><g clip-path="url(#0faef03ebd)"><path fill="#fafafa" d="M 23.5 125.761719 L 282.339844 125.761719 L 282.339844 155.785156 L 23.5 155.785156 Z M 23.5 125.761719 " fill-opacity="1" fill-rule="nonzero"/></g><g fill="#000000" fill-opacity="1"><g transform="translate(52.217757, 144.916049)"><g><path d="M 9.75 -9.40625 L 9.75 0 L 7.953125 0 L 3.265625 -5.71875 L 3.265625 0 L 1.109375 0 L 1.109375 -9.40625 L 2.921875 -9.40625 L 7.59375 -3.703125 L 7.59375 -9.40625 Z M 9.75 -9.40625 "/></g></g></g><g fill="#000000" fill-opacity="1"><g transform="translate(67.722143, 144.916049)"><g><path d="M 1.109375 -9.40625 L 3.296875 -9.40625 L 3.296875 0 L 1.109375 0 Z M 1.109375 -9.40625 "/></g></g></g><g fill="#000000" fill-opacity="1"><g transform="translate(76.777671, 144.916049)"><g><path d="M 4.546875 -3.703125 L 3.28125 -2.375 L 3.28125 0 L 1.109375 0 L 1.109375 -9.40625 L 3.28125 -9.40625 L 3.28125 -5.015625 L 7.4375 -9.40625 L 9.859375 -9.40625 L 5.96875 -5.21875 L 10.09375 0 L 7.546875 0 Z M 4.546875 -3.703125 "/></g></g></g><g fill="#000000" fill-opacity="1"><g transform="translate(91.36846, 144.916049)"><g><path d="M 9.75 -9.40625 L 9.75 0 L 7.5625 0 L 7.5625 -3.859375 L 3.296875 -3.859375 L 3.296875 0 L 1.109375 0 L 1.109375 -9.40625 L 3.296875 -9.40625 L 3.296875 -5.703125 L 7.5625 -5.703125 L 7.5625 -9.40625 Z M 9.75 -9.40625 "/></g></g></g><g fill="#000000" fill-opacity="1"><g transform="translate(106.872846, 144.916049)"><g><path d="M 1.109375 -9.40625 L 3.296875 -9.40625 L 3.296875 0 L 1.109375 0 Z M 1.109375 -9.40625 "/></g></g></g><g fill="#000000" fill-opacity="1"><g transform="translate(115.928377, 144.916049)"><g><path d="M 1.109375 -9.40625 L 3.296875 -9.40625 L 3.296875 -1.78125 L 8.015625 -1.78125 L 8.015625 0 L 1.109375 0 Z M 1.109375 -9.40625 "/></g></g></g><g fill="#000000" fill-opacity="1"><g transform="translate(128.691998, 144.916049)"><g/></g></g><g fill="#000000" fill-opacity="1"><g transform="translate(137.142944, 144.916049)"><g><path d="M 4.546875 -3.703125 L 3.28125 -2.375 L 3.28125 0 L 1.109375 0 L 1.109375 -9.40625 L 3.28125 -9.40625 L 3.28125 -5.015625 L 7.4375 -9.40625 L 9.859375 -9.40625 L 5.96875 -5.21875 L 10.09375 0 L 7.546875 0 Z M 4.546875 -3.703125 "/></g></g></g><g fill="#000000" fill-opacity="1"><g transform="translate(151.733736, 144.916049)"><g><path d="M 7.3125 -2.015625 L 2.9375 -2.015625 L 2.109375 0 L -0.125 0 L 4.078125 -9.40625 L 6.21875 -9.40625 L 10.421875 0 L 8.140625 0 Z M 6.625 -3.671875 L 5.140625 -7.265625 L 3.640625 -3.671875 Z M 6.625 -3.671875 "/></g></g></g><g fill="#000000" fill-opacity="1"><g transform="translate(166.673834, 144.916049)"><g><path d="M 1.109375 -9.40625 L 5.390625 -9.40625 C 6.410156 -9.40625 7.3125 -9.207031 8.09375 -8.8125 C 8.875 -8.425781 9.484375 -7.878906 9.921875 -7.171875 C 10.359375 -6.460938 10.578125 -5.640625 10.578125 -4.703125 C 10.578125 -3.765625 10.359375 -2.941406 9.921875 -2.234375 C 9.484375 -1.523438 8.875 -0.972656 8.09375 -0.578125 C 7.3125 -0.191406 6.410156 0 5.390625 0 L 1.109375 0 Z M 5.28125 -1.78125 C 6.21875 -1.78125 6.96875 -2.039062 7.53125 -2.5625 C 8.09375 -3.09375 8.375 -3.804688 8.375 -4.703125 C 8.375 -5.597656 8.09375 -6.304688 7.53125 -6.828125 C 6.96875 -7.359375 6.21875 -7.625 5.28125 -7.625 L 3.296875 -7.625 L 3.296875 -1.78125 Z M 5.28125 -1.78125 "/></g></g></g><g fill="#000000" fill-opacity="1"><g transform="translate(182.420043, 144.916049)"><g><path d="M 7.3125 -2.015625 L 2.9375 -2.015625 L 2.109375 0 L -0.125 0 L 4.078125 -9.40625 L 6.21875 -9.40625 L 10.421875 0 L 8.140625 0 Z M 6.625 -3.671875 L 5.140625 -7.265625 L 3.640625 -3.671875 Z M 6.625 -3.671875 "/></g></g></g><g fill="#000000" fill-opacity="1"><g transform="translate(197.360142, 144.916049)"><g><path d="M 5.1875 -9.40625 C 6.019531 -9.40625 6.742188 -9.265625 7.359375 -8.984375 C 7.972656 -8.710938 8.441406 -8.320312 8.765625 -7.8125 C 9.097656 -7.300781 9.265625 -6.695312 9.265625 -6 C 9.265625 -5.300781 9.097656 -4.691406 8.765625 -4.171875 C 8.441406 -3.660156 7.972656 -3.269531 7.359375 -3 C 6.742188 -2.726562 6.019531 -2.59375 5.1875 -2.59375 L 3.296875 -2.59375 L 3.296875 0 L 1.109375 0 L 1.109375 -9.40625 Z M 5.0625 -4.375 C 5.71875 -4.375 6.210938 -4.515625 6.546875 -4.796875 C 6.890625 -5.078125 7.0625 -5.476562 7.0625 -6 C 7.0625 -6.519531 6.890625 -6.921875 6.546875 -7.203125 C 6.210938 -7.484375 5.71875 -7.625 5.0625 -7.625 L 3.296875 -7.625 L 3.296875 -4.375 Z M 5.0625 -4.375 "/></g></g></g><g fill="#000000" fill-opacity="1"><g transform="translate(211.843453, 144.916049)"><g><path d="M 7.3125 -2.015625 L 2.9375 -2.015625 L 2.109375 0 L -0.125 0 L 4.078125 -9.40625 L 6.21875 -9.40625 L 10.421875 0 L 8.140625 0 Z M 6.625 -3.671875 L 5.140625 -7.265625 L 3.640625 -3.671875 Z M 6.625 -3.671875 "/></g></g></g><g fill="#000000" fill-opacity="1"><g transform="translate(226.783551, 144.916049)"><g><path d="M 1.109375 -9.40625 L 3.296875 -9.40625 L 3.296875 -1.78125 L 8.015625 -1.78125 L 8.015625 0 L 1.109375 0 Z M 1.109375 -9.40625 "/></g></g></g><g fill="#000000" fill-opacity="1"><g transform="translate(239.547167, 144.916049)"><g><path d="M 7.3125 -2.015625 L 2.9375 -2.015625 L 2.109375 0 L -0.125 0 L 4.078125 -9.40625 L 6.21875 -9.40625 L 10.421875 0 L 8.140625 0 Z M 6.625 -3.671875 L 5.140625 -7.265625 L 3.640625 -3.671875 Z M 6.625 -3.671875 "/></g></g></g></svg>