<svg xmlns="http://www.w3.org/2000/svg" xmlns:xlink="http://www.w3.org/1999/xlink" width="500" zoomAndPan="magnify" viewBox="0 0 375 374.999991" height="500" preserveAspectRatio="xMidYMid meet" version="1.0"><defs><clipPath id="e6cceb66b8"><path d="M 194.917969 166.25 L 233.890625 166.25 L 233.890625 181.371094 L 194.917969 181.371094 Z M 194.917969 166.25 " clip-rule="nonzero"/></clipPath><clipPath id="39bdce4824"><path d="M 201 176.550781 C 217.5 175.5 217.949219 176.101562 218.25 176.699219 C 218.476562 177.375 218.25 178.425781 217.949219 178.949219 C 217.648438 179.476562 217.199219 179.773438 216.523438 180 C 215.476562 180.300781 213.75 180.148438 212.101562 180.226562 C 210.148438 180.300781 207.074219 180.675781 205.5 180.300781 C 204.601562 180.074219 203.851562 179.699219 203.476562 179.175781 C 203.101562 178.726562 203.023438 178.050781 203.023438 177.523438 C 203.101562 176.925781 203.324219 176.550781 203.851562 175.949219 C 205.5 174.148438 213.074219 168.226562 215.699219 167.625 C 216.75 167.398438 217.726562 167.550781 218.25 168 C 218.773438 168.523438 219.226562 169.648438 218.851562 170.550781 C 217.949219 172.574219 209.925781 176.699219 207.824219 177.375 C 207.074219 177.675781 206.625 177.75 206.101562 177.601562 C 205.5 177.375 204.675781 176.625 204.449219 176.101562 C 204.226562 175.574219 204.226562 175.050781 204.449219 174.375 C 204.976562 172.949219 207.976562 168.824219 208.949219 168.976562 C 209.625 169.050781 210.449219 170.851562 210.226562 171.675781 C 209.925781 172.875 207.226562 174.523438 205.949219 174.898438 C 205.050781 175.199219 204.148438 175.199219 203.625 174.75 C 202.949219 174.375 202.199219 173.101562 202.425781 172.199219 C 202.800781 170.550781 207.300781 167.023438 209.101562 166.800781 C 210.148438 166.648438 211.273438 167.324219 211.726562 167.925781 C 212.101562 168.375 212.175781 169.125 212.101562 169.648438 C 212.023438 170.175781 211.726562 170.625 211.199219 171.226562 C 210.074219 172.425781 206.101562 175.273438 204.523438 175.875 C 203.773438 176.175781 203.25 176.175781 202.726562 176.023438 C 202.199219 175.875 201.601562 175.5 201.300781 174.976562 C 201 174.523438 200.699219 173.925781 200.925781 173.25 C 201.148438 172.125 203.175781 169.5 204.375 168.976562 C 205.351562 168.675781 206.699219 168.898438 207.300781 169.5 C 207.824219 170.023438 208.199219 171.675781 207.824219 172.351562 C 207.375 173.101562 205.050781 172.949219 204.375 173.625 C 203.925781 174.074219 204.226562 175.050781 203.851562 175.351562 C 203.324219 175.726562 202.050781 175.726562 201.449219 175.425781 C 200.773438 175.125 200.101562 174.226562 199.949219 173.550781 C 199.800781 172.949219 199.949219 172.425781 200.324219 171.75 C 201.074219 170.550781 203.925781 167.925781 205.351562 167.625 C 206.25 167.398438 207.148438 167.699219 207.675781 168.148438 C 208.199219 168.523438 208.574219 169.125 208.574219 169.726562 C 208.648438 170.398438 208.273438 171.449219 207.75 171.976562 C 207.226562 172.648438 205.949219 173.550781 205.351562 173.324219 C 204.675781 173.101562 203.773438 170.550781 204.074219 170.175781 C 204.375 169.800781 206.851562 170.398438 207.300781 171.148438 C 207.75 171.898438 207.300781 173.699219 206.550781 174.824219 C 205.5 176.324219 202.351562 178.5 200.851562 178.648438 C 200.023438 178.726562 199.125 178.199219 198.675781 177.675781 C 198.300781 177.226562 198.074219 176.550781 198.074219 175.949219 C 198.148438 175.351562 198.300781 174.898438 198.824219 174.300781 C 200.023438 172.875 204.523438 168.898438 206.398438 168.824219 C 207.449219 168.824219 208.726562 169.949219 208.949219 170.699219 C 209.101562 171.375 208.199219 173.175781 207.601562 173.25 C 207.074219 173.398438 205.5 171.976562 205.574219 171.449219 C 205.648438 171 206.851562 170.324219 207.523438 170.324219 C 208.273438 170.398438 209.625 171.300781 209.851562 172.050781 C 210.148438 172.800781 209.851562 173.925781 209.101562 174.824219 C 207.523438 176.699219 200.175781 179.851562 197.851562 180 C 196.800781 180 196.125 179.699219 195.601562 179.175781 C 195.226562 178.800781 194.925781 178.125 194.925781 177.523438 C 195 176.851562 195.601562 175.875 196.5 175.199219 C 198.449219 173.699219 205.273438 171.148438 207.601562 171.375 C 208.800781 171.449219 209.699219 171.976562 210.074219 172.648438 C 210.449219 173.324219 210.300781 174.523438 209.699219 175.425781 C 208.5 177.226562 202.875 180.074219 200.773438 180.824219 C 199.648438 181.199219 198.898438 181.5 198.148438 181.199219 C 197.398438 180.976562 196.425781 179.851562 196.273438 179.101562 C 196.125 178.574219 196.351562 177.824219 196.648438 177.375 C 196.949219 176.925781 197.25 176.699219 198.148438 176.324219 C 200.925781 175.273438 212.550781 175.351562 218.476562 174.074219 C 223.273438 173.023438 228.75 169.5 231.226562 169.800781 C 232.425781 169.949219 233.324219 170.625 233.625 171.300781 C 233.925781 171.898438 234 172.875 233.476562 173.550781 C 232.425781 174.976562 226.574219 176.925781 224.476562 176.925781 C 223.351562 176.925781 222.300781 176.550781 221.851562 175.949219 C 221.398438 175.351562 221.324219 174.148438 221.773438 173.101562 C 222.523438 171.375 226.199219 167.550781 228.074219 167.101562 C 229.125 166.800781 230.476562 167.25 231 167.851562 C 231.449219 168.523438 231.449219 170.25 231 170.925781 C 230.625 171.523438 229.574219 171.976562 228.898438 171.898438 C 228.226562 171.898438 227.25 171.300781 226.875 170.699219 C 226.5 170.175781 226.425781 168.976562 226.726562 168.375 C 226.949219 167.773438 227.851562 167.023438 228.523438 166.949219 C 229.273438 166.800781 230.324219 167.175781 230.773438 167.625 C 231.300781 168.148438 231.601562 169.125 231.449219 169.949219 C 231.300781 171 229.949219 172.199219 228.898438 173.324219 C 227.699219 174.523438 225.824219 176.699219 224.476562 176.925781 C 223.5 177.074219 222.300781 176.550781 221.851562 175.949219 C 221.398438 175.425781 221.324219 174.300781 221.476562 173.699219 C 221.699219 173.101562 222 172.726562 222.675781 172.351562 C 224.101562 171.375 229.351562 169.5 231.226562 169.800781 C 232.351562 169.949219 233.25 170.625 233.625 171.300781 C 233.925781 171.75 233.925781 172.5 233.699219 173.023438 C 233.550781 173.550781 233.324219 173.925781 232.648438 174.375 C 230.773438 175.726562 224.101562 178.125 219.898438 178.949219 C 216.074219 179.699219 212.101562 179.101562 208.351562 179.476562 C 204.898438 179.851562 200.023438 181.648438 198.148438 181.199219 C 197.398438 181.050781 197.023438 180.75 196.726562 180.226562 C 196.351562 179.699219 196.050781 178.648438 196.425781 177.898438 C 196.875 176.699219 199.351562 175.5 201.148438 174.449219 C 203.175781 173.25 206.625 171.226562 208.199219 171.375 C 209.101562 171.449219 209.773438 172.050781 210.074219 172.648438 C 210.375 173.25 210.375 174.300781 210.074219 174.976562 C 209.699219 175.648438 208.875 175.949219 207.824219 176.476562 C 205.800781 177.523438 199.800781 179.851562 197.851562 180 C 197.023438 180 196.574219 179.925781 196.125 179.625 C 195.601562 179.324219 195.148438 178.726562 195.074219 178.125 C 194.925781 177.449219 195.226562 176.324219 195.976562 175.5 C 197.625 173.699219 204.523438 170.476562 206.925781 170.398438 C 208.125 170.398438 209.101562 170.925781 209.625 171.449219 C 210 171.898438 210.074219 172.648438 210 173.25 C 209.925781 173.773438 209.625 174.375 209.101562 174.824219 C 208.351562 175.425781 206.550781 176.101562 205.425781 176.023438 C 204.449219 176.023438 203.175781 175.648438 202.800781 174.976562 C 202.273438 174.074219 202.648438 172.125 203.324219 170.851562 C 204.148438 169.273438 206.550781 167.023438 208.050781 166.5 C 209.023438 166.199219 210.074219 166.273438 210.75 166.726562 C 211.5 167.25 212.25 168.601562 212.25 169.425781 C 212.25 170.25 211.648438 170.851562 210.898438 171.675781 C 209.324219 173.476562 203.925781 177.449219 202.050781 178.273438 C 201.300781 178.648438 200.851562 178.726562 200.25 178.648438 C 199.726562 178.5 198.976562 178.199219 198.675781 177.675781 C 198.300781 177.074219 198.074219 175.648438 198.449219 174.75 C 198.976562 173.625 201.75 171.601562 202.648438 171.824219 C 203.398438 172.050781 204.074219 174.601562 203.851562 174.824219 C 203.550781 175.050781 201.226562 173.773438 200.925781 172.949219 C 200.550781 172.050781 201.148438 170.324219 201.898438 169.425781 C 202.726562 168.449219 204.824219 167.398438 206.023438 167.550781 C 206.925781 167.550781 208.125 168.449219 208.425781 169.125 C 208.726562 169.800781 208.574219 170.699219 208.199219 171.523438 C 207.449219 172.875 204.75 175.273438 203.25 175.574219 C 202.273438 175.800781 200.925781 175.351562 200.476562 174.675781 C 199.949219 174.074219 199.949219 172.574219 200.324219 171.75 C 200.699219 170.851562 201.898438 169.875 202.800781 169.351562 C 203.699219 168.898438 204.824219 168.675781 205.574219 168.75 C 206.25 168.824219 206.925781 169.050781 207.300781 169.5 C 207.75 170.101562 208.125 171.375 207.824219 172.351562 C 207.449219 173.625 205.199219 175.875 203.925781 176.101562 C 203.023438 176.25 201.75 175.648438 201.300781 174.976562 C 200.851562 174.375 200.851562 173.101562 201.375 172.125 C 202.351562 170.324219 207.898438 166.800781 209.699219 166.726562 C 210.601562 166.726562 211.351562 167.398438 211.726562 167.925781 C 212.101562 168.375 212.25 169.050781 212.101562 169.648438 C 211.875 170.550781 210.449219 171.75 209.398438 172.574219 C 208.125 173.625 205.949219 175.125 204.75 175.125 C 203.925781 175.125 203.101562 174.523438 202.726562 173.925781 C 202.425781 173.324219 202.273438 172.351562 202.574219 171.601562 C 203.101562 170.476562 205.351562 168.898438 206.625 168.148438 C 207.601562 167.550781 208.425781 167.175781 209.398438 167.101562 C 210.375 167.023438 211.726562 166.949219 212.324219 167.625 C 213.074219 168.375 213.226562 170.550781 212.851562 171.976562 C 212.25 173.699219 209.773438 176.324219 208.351562 177.074219 C 207.375 177.601562 206.25 177.675781 205.574219 177.375 C 204.976562 177.074219 204.375 176.101562 204.300781 175.5 C 204.226562 174.976562 204.300781 174.449219 204.75 173.851562 C 205.726562 172.425781 210.074219 170.023438 212.476562 168.898438 C 214.199219 168.148438 216.226562 167.324219 217.273438 167.476562 C 217.949219 167.550781 218.324219 168 218.625 168.449219 C 218.925781 168.976562 219.226562 169.726562 218.851562 170.550781 C 217.800781 172.875 208.050781 180.074219 205.5 180.300781 C 204.601562 180.375 203.851562 179.773438 203.476562 179.175781 C 203.101562 178.648438 202.949219 177.523438 203.175781 176.925781 C 203.476562 176.25 204 175.726562 204.898438 175.425781 C 206.925781 174.601562 213.75 174.601562 215.925781 175.125 C 216.898438 175.351562 217.574219 175.574219 217.949219 176.175781 C 218.324219 176.851562 218.25 178.351562 217.949219 178.949219 C 217.648438 179.476562 217.273438 179.699219 216.523438 180 C 214.125 180.824219 203.324219 181.648438 200.925781 181.199219 C 200.175781 180.976562 199.800781 180.75 199.5 180.375 C 199.199219 180 198.976562 179.324219 198.976562 178.800781 C 198.976562 178.351562 199.199219 177.675781 199.574219 177.300781 C 199.875 176.925781 201 176.550781 201 176.550781 " clip-rule="nonzero"/></clipPath><clipPath id="ff58eb989c"><path d="M 194.160156 162.882812 L 239 162.882812 L 239 193.292969 L 194.160156 193.292969 Z M 194.160156 162.882812 " clip-rule="nonzero"/></clipPath><clipPath id="b0858d8436"><path d="M 194.175781 179.25 C 194.175781 179.25 194.175781 179.101562 194.175781 178.949219 C 194.175781 178.875 194.25 178.648438 194.25 178.648438 C 194.25 178.648438 194.324219 178.5 194.324219 178.351562 C 194.398438 178.273438 194.476562 178.125 194.476562 178.125 C 194.476562 178.125 194.550781 177.898438 194.625 177.824219 C 194.699219 177.75 194.851562 177.601562 194.851562 177.601562 C 194.851562 177.601562 195 177.449219 195.074219 177.375 C 195.148438 177.300781 195.300781 177.226562 195.300781 177.226562 C 195.300781 177.226562 195.449219 177.074219 195.601562 177.074219 C 195.675781 177 195.824219 176.925781 195.824219 176.925781 C 195.824219 176.925781 196.050781 176.851562 196.125 176.851562 C 196.273438 176.851562 196.425781 176.773438 196.425781 176.773438 C 196.425781 176.773438 196.648438 176.773438 196.726562 176.773438 C 196.875 176.773438 197.023438 176.773438 197.023438 176.773438 C 197.101562 176.773438 197.25 176.851562 197.324219 176.851562 C 197.476562 176.925781 197.625 176.925781 197.625 176.925781 C 197.699219 176.925781 199.273438 176.773438 200.101562 176.773438 C 200.925781 176.773438 201.601562 176.773438 202.425781 176.925781 C 203.25 177.074219 204.074219 177.375 204.898438 177.601562 C 205.800781 177.824219 207 178.199219 207.449219 178.199219 C 207.601562 178.199219 207.601562 178.199219 207.824219 178.125 C 208.351562 178.050781 210.300781 177.675781 210.824219 177.523438 C 211.050781 177.449219 211.273438 177.449219 211.351562 177.449219 C 211.351562 177.449219 211.273438 177.375 211.273438 177.375 C 211.199219 177.375 211.199219 177.300781 211.125 177.300781 C 211.125 177.226562 211.050781 177.226562 211.050781 177.226562 C 210.976562 177.148438 210.898438 177.074219 210.898438 177 C 210.824219 176.925781 210.75 176.851562 210.675781 176.851562 C 210.675781 176.773438 210.675781 176.699219 210.675781 176.699219 C 210.601562 176.625 210.601562 176.625 210.523438 176.625 C 210.523438 176.550781 210.523438 176.398438 210.449219 176.324219 C 210.449219 176.25 210.375 176.175781 210.375 176.101562 C 210.375 176.101562 210.375 176.023438 210.375 175.949219 C 210.300781 175.949219 210.300781 175.875 210.300781 175.875 C 210.300781 175.800781 210.300781 175.726562 210.300781 175.574219 C 210.300781 175.5 210.226562 175.425781 210.226562 175.351562 C 210.226562 175.273438 210.300781 175.273438 210.300781 175.199219 C 210.300781 175.199219 210.300781 175.125 210.300781 175.050781 C 210.300781 175.050781 210.375 174.898438 210.375 174.824219 C 210.375 174.75 210.375 174.675781 210.375 174.601562 C 210.449219 174.523438 210.449219 174.523438 210.449219 174.449219 C 210.523438 174.449219 210.523438 174.375 210.523438 174.375 C 210.523438 174.300781 210.601562 174.226562 210.675781 174.148438 C 210.75 174.074219 210.75 174 210.824219 173.925781 C 210.824219 173.851562 210.898438 173.851562 210.898438 173.851562 C 210.898438 173.773438 210.976562 173.773438 210.976562 173.699219 C 211.050781 173.699219 211.125 173.625 211.199219 173.550781 C 211.273438 173.550781 211.351562 173.398438 211.351562 173.398438 C 211.351562 173.398438 213.148438 171.898438 214.050781 171.148438 C 215.023438 170.25 215.925781 169.351562 216.898438 168.449219 C 217.726562 167.699219 218.550781 166.949219 219.449219 166.199219 C 220.425781 165.375 222.375 163.800781 222.449219 163.800781 C 222.449219 163.800781 222.523438 163.648438 222.601562 163.574219 C 222.675781 163.5 222.824219 163.425781 222.824219 163.351562 C 222.824219 163.351562 222.976562 163.273438 223.050781 163.199219 C 223.199219 163.199219 223.351562 163.125 223.351562 163.050781 C 223.351562 163.050781 223.5 163.050781 223.574219 162.976562 C 223.726562 162.976562 223.875 162.898438 223.875 162.898438 C 223.875 162.898438 224.101562 162.898438 224.175781 162.898438 C 224.25 162.898438 224.476562 162.898438 224.476562 162.898438 C 224.476562 162.898438 224.625 162.898438 224.773438 162.976562 C 224.851562 162.976562 225 162.976562 225 162.976562 C 225.074219 162.976562 225.226562 163.050781 225.300781 163.125 C 225.375 163.125 225.523438 163.199219 225.601562 163.199219 C 225.601562 163.199219 225.75 163.351562 225.824219 163.425781 C 225.898438 163.5 226.050781 163.574219 226.050781 163.574219 C 226.050781 163.574219 226.125 163.726562 226.199219 163.800781 C 226.273438 163.875 226.351562 164.023438 226.351562 164.023438 C 226.351562 164.023438 226.425781 164.25 226.5 164.324219 C 226.5 164.398438 226.574219 164.550781 226.574219 164.550781 C 226.648438 164.550781 226.648438 164.773438 226.648438 164.851562 C 226.648438 164.925781 226.648438 165.074219 226.726562 165.074219 C 226.875 165.148438 228.523438 163.648438 228.523438 163.648438 C 228.523438 163.648438 228.675781 163.574219 228.75 163.5 C 228.898438 163.425781 229.050781 163.351562 229.050781 163.351562 C 229.050781 163.351562 229.199219 163.273438 229.351562 163.273438 C 229.425781 163.273438 229.574219 163.199219 229.574219 163.199219 C 229.574219 163.199219 229.800781 163.199219 229.875 163.199219 C 229.949219 163.125 230.175781 163.125 230.175781 163.125 C 230.175781 163.125 230.398438 163.199219 230.476562 163.199219 C 230.550781 163.199219 230.773438 163.273438 230.773438 163.273438 C 230.773438 163.273438 230.925781 163.351562 231 163.351562 C 231.074219 163.425781 231.300781 163.5 231.300781 163.5 C 231.300781 163.5 231.449219 163.648438 231.523438 163.648438 C 231.601562 163.726562 231.75 163.875 231.75 163.875 C 231.75 163.875 231.824219 164.023438 231.898438 164.101562 C 232.050781 164.101562 232.351562 163.726562 232.726562 163.648438 C 233.550781 163.5 236.101562 163.800781 236.550781 164.476562 C 236.925781 164.851562 236.324219 166.125 236.550781 166.273438 C 236.550781 166.351562 236.699219 166.273438 236.773438 166.273438 C 236.851562 166.273438 237 166.273438 237 166.273438 C 237 166.273438 237.226562 166.351562 237.300781 166.351562 C 237.375 166.351562 237.523438 166.425781 237.523438 166.425781 C 237.523438 166.425781 237.675781 166.5 237.75 166.5 C 237.824219 166.574219 237.976562 166.648438 237.976562 166.648438 C 237.976562 166.648438 238.125 166.726562 238.199219 166.800781 C 238.273438 166.875 238.425781 166.949219 238.425781 166.949219 C 238.425781 167.023438 238.5 167.101562 238.574219 167.175781 C 238.574219 167.25 238.726562 167.398438 238.726562 167.398438 C 238.726562 167.398438 238.800781 167.550781 238.800781 167.625 C 238.875 167.699219 238.875 167.925781 238.875 167.925781 C 238.875 167.925781 238.949219 168.074219 238.949219 168.148438 C 238.949219 168.226562 238.949219 168.375 238.949219 168.449219 C 238.949219 168.449219 238.949219 168.601562 238.949219 168.675781 C 238.949219 168.75 238.949219 168.898438 238.949219 168.898438 C 238.949219 168.976562 238.875 169.125 238.875 169.199219 C 238.800781 169.273438 238.726562 169.425781 238.726562 169.425781 C 238.726562 169.425781 238.648438 169.574219 238.574219 169.648438 C 238.574219 169.726562 238.5 169.875 238.425781 169.875 C 238.425781 169.875 237.75 172.125 237.449219 172.800781 C 237.300781 173.175781 236.925781 173.398438 237 173.625 C 237 173.851562 237.449219 173.925781 237.523438 174.226562 C 237.75 174.75 237.375 176.101562 237.300781 176.925781 C 237.148438 177.75 236.925781 178.5 236.925781 179.175781 C 236.851562 179.851562 237.074219 180.449219 237.148438 181.050781 C 237.226562 181.648438 237.226562 182.550781 237.226562 182.851562 C 237.226562 182.925781 237.300781 183 237.300781 183.074219 C 237.300781 183.300781 237.300781 183.976562 237.300781 183.976562 C 237.300781 183.976562 237.300781 184.199219 237.226562 184.273438 C 237.226562 184.351562 237.226562 184.574219 237.226562 184.574219 C 237.226562 184.574219 237.148438 184.726562 237.148438 184.875 C 237.074219 184.949219 237 185.101562 237 185.101562 C 237 185.175781 236.925781 185.324219 236.851562 185.398438 C 236.773438 185.476562 236.699219 185.625 236.699219 185.625 C 236.699219 185.625 236.550781 185.773438 236.476562 185.851562 C 236.398438 185.925781 236.25 186 236.25 186 C 236.25 186 236.023438 186.148438 235.949219 186.148438 C 235.875 186.226562 235.726562 186.300781 235.726562 186.300781 C 235.726562 186.300781 235.5 186.375 235.425781 186.375 C 235.273438 186.449219 235.125 186.449219 235.125 186.449219 C 235.125 186.449219 234.898438 186.449219 234.824219 186.449219 C 234.75 186.449219 234.523438 186.449219 234.523438 186.449219 C 234.523438 186.449219 234.300781 186.449219 234.226562 186.375 C 234.148438 186.375 233.925781 186.300781 233.925781 186.300781 C 233.925781 186.300781 233.773438 186.226562 233.625 186.226562 C 233.550781 186.148438 233.398438 186.074219 233.398438 186.074219 C 233.398438 186.074219 233.25 185.925781 233.175781 185.851562 C 233.101562 185.773438 232.949219 185.625 232.949219 185.625 C 232.949219 185.625 232.800781 185.398438 232.800781 185.398438 C 232.726562 185.398438 232.726562 185.398438 232.726562 185.476562 C 232.726562 185.550781 232.425781 185.851562 232.273438 186.074219 C 232.125 186.449219 232.050781 186.976562 231.75 187.5 C 231.449219 188.175781 230.550781 189.675781 230.550781 189.675781 C 230.550781 189.675781 230.476562 189.824219 230.398438 189.898438 C 230.324219 190.050781 230.175781 190.199219 230.175781 190.199219 C 230.175781 190.199219 230.023438 190.273438 229.949219 190.351562 C 229.875 190.425781 229.726562 190.574219 229.726562 190.574219 C 229.726562 190.574219 229.574219 190.648438 229.425781 190.726562 C 229.351562 190.726562 229.199219 190.800781 229.199219 190.800781 C 229.199219 190.800781 228.976562 190.875 228.898438 190.875 C 228.75 190.949219 228.601562 190.949219 228.601562 190.949219 C 228.601562 190.949219 228.375 190.949219 228.300781 190.949219 C 228.148438 190.949219 228 190.949219 228 190.949219 C 228 190.949219 227.773438 190.875 227.699219 190.875 C 227.550781 190.800781 227.398438 190.800781 227.398438 190.800781 C 227.398438 190.800781 227.175781 190.648438 227.101562 190.648438 C 227.023438 190.574219 226.875 190.5 226.875 190.5 C 226.875 190.425781 226.726562 190.351562 226.648438 190.273438 C 226.574219 190.199219 226.425781 190.050781 226.425781 190.050781 C 226.425781 190.050781 226.273438 189.824219 226.273438 189.75 C 226.199219 189.75 226.199219 189.675781 226.125 189.601562 C 225.976562 189.523438 225.449219 189.675781 225.300781 189.601562 C 225.148438 189.601562 225.074219 189.601562 224.925781 189.523438 C 224.851562 189.523438 224.699219 189.523438 224.550781 189.523438 C 224.476562 189.523438 224.324219 189.601562 224.324219 189.601562 C 224.324219 189.601562 224.175781 189.601562 224.023438 189.523438 C 223.949219 189.523438 223.726562 189.523438 223.726562 189.523438 C 223.726562 189.523438 223.648438 189.523438 223.574219 189.523438 C 223.5 189.449219 223.351562 189.523438 223.125 189.449219 C 222.675781 189.449219 221.25 189 220.949219 189.074219 C 220.800781 189.148438 220.875 189.226562 220.800781 189.300781 C 220.5 189.449219 219.148438 189.074219 218.925781 189.300781 C 218.851562 189.300781 218.851562 189.449219 218.851562 189.523438 C 218.773438 189.601562 218.699219 189.824219 218.699219 189.824219 C 218.699219 189.824219 218.625 189.976562 218.550781 190.050781 C 218.476562 190.125 218.398438 190.351562 218.398438 190.351562 C 218.398438 190.351562 218.25 190.425781 218.175781 190.5 C 218.101562 190.574219 217.949219 190.726562 217.949219 190.726562 C 217.949219 190.726562 217.800781 190.875 217.648438 190.875 C 217.574219 190.949219 217.425781 191.023438 217.425781 191.023438 C 217.425781 191.023438 217.199219 191.101562 217.125 191.101562 C 217.050781 191.175781 216.824219 191.175781 216.824219 191.175781 C 216.824219 191.175781 216.601562 191.25 216.523438 191.25 C 216.449219 191.25 216.226562 191.25 216.226562 191.25 C 216.226562 191.25 216 191.175781 215.925781 191.175781 C 215.773438 191.175781 215.699219 191.101562 215.625 191.101562 C 215.476562 191.101562 215.398438 191.023438 215.175781 191.023438 C 214.726562 190.875 213.675781 190.5 212.925781 190.273438 C 212.175781 190.050781 211.199219 189.75 210.75 189.675781 C 210.523438 189.601562 210.300781 189.523438 210.300781 189.601562 C 210.226562 189.601562 210.375 189.824219 210.375 189.824219 C 210.375 189.824219 210.375 190.050781 210.449219 190.125 C 210.449219 190.199219 210.523438 190.425781 210.523438 190.425781 C 210.523438 190.425781 210.449219 190.648438 210.449219 190.726562 C 210.449219 190.800781 210.449219 191.023438 210.449219 191.023438 C 210.449219 191.023438 210.375 191.25 210.375 191.324219 C 210.375 191.398438 210.300781 191.625 210.300781 191.625 C 210.300781 191.625 210.226562 191.851562 210.148438 191.925781 C 210.074219 192 210 192.148438 210 192.148438 C 210 192.148438 209.851562 192.300781 209.773438 192.375 C 209.699219 192.449219 209.550781 192.601562 209.550781 192.601562 C 209.550781 192.601562 209.398438 192.75 209.324219 192.75 C 209.175781 192.824219 209.023438 192.976562 209.023438 192.976562 C 209.023438 192.976562 208.800781 193.050781 208.726562 193.050781 C 208.648438 193.050781 208.425781 193.125 208.425781 193.125 C 208.425781 193.125 208.273438 193.125 208.125 193.199219 C 208.050781 193.199219 207.824219 193.199219 207.824219 193.199219 C 207.824219 193.199219 207.601562 193.125 207.523438 193.125 C 207.449219 193.125 207.226562 193.125 207.226562 193.125 C 207.226562 193.125 207 192.976562 206.925781 192.976562 C 206.851562 192.898438 206.773438 192.898438 206.625 192.824219 C 206.550781 192.824219 206.550781 192.75 206.398438 192.75 C 206.023438 192.523438 204.675781 192.074219 203.925781 191.550781 C 203.25 191.175781 202.726562 190.648438 202.125 190.050781 C 201.449219 189.375 200.625 188.25 200.101562 187.648438 C 199.800781 187.351562 199.726562 187.125 199.351562 186.824219 C 198.75 186.449219 196.5 185.925781 196.5 185.925781 C 196.5 185.925781 196.273438 185.925781 196.199219 185.851562 C 196.125 185.851562 195.898438 185.773438 195.898438 185.773438 C 195.898438 185.773438 195.75 185.699219 195.601562 185.699219 C 195.523438 185.625 195.375 185.550781 195.375 185.550781 C 195.375 185.550781 195.226562 185.398438 195.148438 185.324219 C 195 185.25 194.851562 185.101562 194.851562 185.101562 C 194.851562 185.101562 194.773438 184.949219 194.699219 184.875 C 194.625 184.800781 194.550781 184.648438 194.550781 184.648438 C 194.550781 184.648438 194.476562 184.425781 194.398438 184.351562 C 194.398438 184.273438 194.324219 184.050781 194.324219 184.050781 C 194.324219 184.050781 194.25 183.824219 194.25 183.75 C 194.25 183.675781 194.175781 183.449219 194.175781 183.449219 C 194.175781 183.449219 194.25 183.226562 194.25 183.148438 C 194.25 183 194.25 182.851562 194.25 182.851562 C 194.25 182.851562 194.324219 182.625 194.398438 182.550781 C 194.398438 182.476562 194.476562 182.25 194.476562 182.25 C 194.476562 182.25 194.625 182.101562 194.625 182.023438 C 194.699219 181.875 194.851562 181.726562 194.851562 181.726562 C 194.851562 181.726562 195 181.574219 195.074219 181.5 C 195.074219 181.5 195.148438 181.425781 195.148438 181.425781 C 195.148438 181.351562 195.074219 181.273438 195 181.199219 C 194.925781 181.125 194.773438 180.976562 194.773438 180.976562 C 194.773438 180.976562 194.625 180.824219 194.550781 180.75 C 194.550781 180.675781 194.398438 180.449219 194.398438 180.449219 C 194.398438 180.449219 194.324219 180.300781 194.324219 180.148438 C 194.25 180.074219 194.175781 179.925781 194.175781 179.925781 C 194.175781 179.925781 194.175781 179.699219 194.175781 179.550781 C 194.175781 179.476562 194.175781 179.25 194.175781 179.25 M 214.800781 176.773438 C 216 176.324219 216.75 175.351562 217.125 174.898438 C 217.351562 174.601562 217.648438 174.226562 217.648438 174.226562 C 217.648438 174.226562 216.675781 175.199219 216.148438 175.648438 C 215.699219 176.023438 214.800781 176.773438 214.800781 176.773438 " clip-rule="nonzero"/></clipPath></defs><rect x="-37.5" width="450" fill="#ffffff" y="-37.499999" height="449.999989" fill-opacity="1"/><rect x="-37.5" width="450" fill="#ffffff" y="-37.499999" height="449.999989" fill-opacity="1"/><path fill="#00549d" d="M 176.746094 114.207031 C 178.867188 113.015625 181.480469 113.015625 183.597656 114.207031 C 194.082031 120.089844 225.632812 137.804688 236.121094 143.6875 C 238.242188 144.875 239.546875 147.074219 239.546875 149.457031 C 239.546875 161.226562 239.546875 196.648438 239.546875 208.417969 C 239.546875 210.796875 238.242188 212.996094 236.121094 214.1875 C 225.636719 220.074219 194.085938 237.785156 183.597656 243.667969 C 181.476562 244.859375 178.863281 244.859375 176.746094 243.667969 C 166.261719 237.785156 134.710938 220.074219 124.222656 214.1875 C 122.105469 212.996094 120.796875 210.800781 120.796875 208.417969 C 120.796875 196.652344 120.796875 161.230469 120.796875 149.460938 C 120.796875 147.078125 122.105469 144.878906 124.226562 143.6875 C 134.707031 137.804688 166.261719 120.089844 176.746094 114.207031 Z M 176.746094 114.207031 " fill-opacity="1" fill-rule="evenodd"/><path fill="#0086d4" d="M 121.746094 211.449219 C 120.917969 210.339844 120.796875 209.28125 120.796875 207.859375 C 120.796875 196.160156 120.796875 160.941406 120.796875 149.238281 C 120.796875 146.871094 122.101562 144.683594 124.214844 143.5 C 134.664062 137.652344 166.105469 120.042969 176.554688 114.1875 C 178.667969 113.003906 181.535156 113.027344 183.652344 114.214844 C 194.097656 120.0625 225.433594 137.523438 235.882812 143.371094 C 236.726562 143.847656 237.371094 144.417969 237.945312 145.171875 Z M 121.746094 211.449219 " fill-opacity="1" fill-rule="evenodd"/><path fill="#ffffff" d="M 180.171875 135.1875 C 204.320312 135.1875 223.921875 154.792969 223.921875 178.9375 C 223.921875 203.085938 204.320312 222.6875 180.171875 222.6875 C 156.027344 222.6875 136.421875 203.085938 136.421875 178.9375 C 136.421875 154.792969 156.027344 135.1875 180.171875 135.1875 Z M 180.171875 157.0625 C 192.246094 157.0625 202.046875 166.863281 202.046875 178.9375 C 202.046875 191.011719 192.246094 200.8125 180.171875 200.8125 C 168.101562 200.8125 158.296875 191.011719 158.296875 178.9375 C 158.296875 166.863281 168.097656 157.0625 180.171875 157.0625 Z M 180.171875 157.0625 " fill-opacity="1" fill-rule="evenodd"/><path fill="#0075c0" d="M 237.9375 145.203125 C 239.550781 146.714844 239.519531 148.988281 239.519531 150.777344 C 239.519531 162.636719 239.417969 196.371094 239.546875 208.230469 C 239.558594 209.464844 239.152344 210.769531 238.539062 211.75 L 178.902344 178.9375 Z M 237.9375 145.203125 " fill-opacity="1" fill-rule="evenodd"/><path fill="#ffffff" d="M 202.046875 169.5625 L 208.296875 169.5625 L 208.296875 188.3125 L 202.046875 188.3125 Z M 223.921875 169.5625 L 230.171875 169.5625 L 230.171875 188.3125 L 223.921875 188.3125 Z M 223.921875 169.5625 " fill-opacity="1" fill-rule="evenodd"/><path fill="#ffffff" d="M 195.796875 175.8125 L 214.546875 175.8125 L 214.546875 182.0625 L 195.796875 182.0625 Z M 217.671875 175.8125 L 236.421875 175.8125 L 236.421875 182.0625 L 217.671875 182.0625 Z M 217.671875 175.8125 " fill-opacity="1" fill-rule="evenodd"/><g clip-path="url(#e6cceb66b8)"><g clip-path="url(#39bdce4824)"><path fill="#0075c0" d="M 191.925781 163.5 L 236.722656 163.5 L 236.722656 184.199219 L 191.925781 184.199219 Z M 191.925781 163.5 " fill-opacity="1" fill-rule="nonzero"/></g></g><g clip-path="url(#ff58eb989c)"><g clip-path="url(#b0858d8436)"><path fill="#0075c0" d="M 191.175781 159.898438 L 242.042969 159.898438 L 242.042969 196.273438 L 191.175781 196.273438 Z M 191.175781 159.898438 " fill-opacity="1" fill-rule="nonzero"/></g></g></svg>