<svg xmlns="http://www.w3.org/2000/svg" xmlns:xlink="http://www.w3.org/1999/xlink" width="1366" zoomAndPan="magnify" viewBox="0 0 1024.5 576" height="768" preserveAspectRatio="xMidYMid meet" version="1.0"><defs><g/></defs><g fill="#000000" fill-opacity="1"><g transform="translate(269.019293, 403.335613)"><g><path d="M 179.578125 2.484375 L 33.5 -187.640625 L 33.5 -51.796875 C 33.5 -40.015625 34.320312 -30.914062 35.96875 -24.5 C 37.625 -18.09375 40.054688 -13.390625 43.265625 -10.390625 C 46.472656 -7.390625 50.347656 -5.269531 54.890625 -4.03125 L 54.890625 0 L 16.125 0 L 16.125 -4.03125 C 20.882812 -5.476562 24.140625 -8.578125 25.890625 -13.328125 C 27.648438 -18.085938 28.53125 -26.773438 28.53125 -39.390625 L 28.53125 -177.71875 C 28.53125 -190.539062 27.394531 -199.273438 25.125 -203.921875 C 22.851562 -208.578125 18.613281 -211.628906 12.40625 -213.078125 L 12.40625 -217.109375 L 42.796875 -217.109375 L 178.34375 -41.5625 L 178.34375 -165.3125 C 178.34375 -177.101562 177.515625 -186.253906 175.859375 -192.765625 C 174.203125 -199.273438 171.820312 -203.976562 168.71875 -206.875 C 165.625 -209.769531 161.695312 -211.835938 156.9375 -213.078125 L 156.9375 -217.109375 L 196.015625 -217.109375 L 196.015625 -213.078125 C 191.265625 -211.628906 188.007812 -208.578125 186.25 -203.921875 C 184.488281 -199.273438 183.609375 -190.539062 183.609375 -177.71875 L 183.609375 2.484375 Z M 179.578125 2.484375 "/></g></g></g><g fill="#000000" fill-opacity="1"><g transform="translate(477.446301, 403.335613)"><g/></g></g><g fill="#000000" fill-opacity="1"><g transform="translate(542.579745, 403.335613)"><g><path d="M 15.8125 0 L 15.8125 -4.03125 C 20.570312 -5.476562 23.828125 -8.578125 25.578125 -13.328125 C 27.335938 -18.085938 28.21875 -26.773438 28.21875 -39.390625 L 28.21875 -177.71875 C 28.21875 -190.539062 27.335938 -199.273438 25.578125 -203.921875 C 23.828125 -208.578125 20.570312 -211.628906 15.8125 -213.078125 L 15.8125 -217.109375 L 66.0625 -217.109375 L 66.0625 -213.078125 C 61.3125 -211.628906 58.054688 -208.578125 56.296875 -203.921875 C 54.535156 -199.273438 53.65625 -190.539062 53.65625 -177.71875 L 53.65625 -98.9375 L 134.921875 -182.0625 C 144.640625 -192.195312 150.269531 -199.898438 151.8125 -205.171875 C 153.363281 -210.441406 151.144531 -213.488281 145.15625 -214.3125 L 145.15625 -217.109375 L 188.265625 -217.109375 L 188.265625 -213.078125 C 183.304688 -211.628906 177.515625 -209.507812 170.890625 -206.71875 C 164.273438 -203.925781 156.523438 -197.984375 147.640625 -188.890625 L 81.578125 -121.265625 L 88.703125 -121.578125 C 100.285156 -122.410156 109.742188 -121.84375 117.078125 -119.875 C 124.421875 -117.90625 130.519531 -114.335938 135.375 -109.171875 C 140.238281 -104.003906 144.789062 -96.972656 149.03125 -88.078125 C 153.269531 -79.191406 157.972656 -68.128906 163.140625 -54.890625 C 168.515625 -41.660156 172.957031 -31.375 176.46875 -24.03125 C 179.988281 -16.695312 183.25 -11.582031 186.25 -8.6875 C 189.25 -5.789062 192.398438 -4.34375 195.703125 -4.34375 C 196.742188 -4.34375 197.675781 -4.34375 198.5 -4.34375 C 199.320312 -4.34375 200.148438 -4.445312 200.984375 -4.65625 L 200.984375 -0.625 C 198.296875 0.207031 195.347656 0.773438 192.140625 1.078125 C 188.929688 1.390625 185.675781 1.546875 182.375 1.546875 C 174.925781 1.546875 168.925781 -0.0507812 164.375 -3.25 C 159.832031 -6.457031 155.75 -11.726562 152.125 -19.0625 C 148.507812 -26.40625 144.222656 -36.078125 139.265625 -48.078125 C 134.085938 -60.691406 129.691406 -71.390625 126.078125 -80.171875 C 122.460938 -88.960938 118.789062 -96.046875 115.0625 -101.421875 C 111.34375 -106.796875 107 -110.671875 102.03125 -113.046875 C 97.070312 -115.429688 90.664062 -116.519531 82.8125 -116.3125 L 76.609375 -116.3125 L 53.65625 -92.734375 L 53.65625 -39.390625 C 53.65625 -26.773438 54.535156 -18.085938 56.296875 -13.328125 C 58.054688 -8.578125 61.3125 -5.476562 66.0625 -4.03125 L 66.0625 0 Z M 15.8125 0 "/></g></g></g><g fill="#ff3131" fill-opacity="1"><g transform="translate(192.719281, 351.53901)"><g><path d="M 308.203125 -144.5 C 307.242188 -144.269531 306.378906 -144.289062 305.609375 -144.5625 C 304.835938 -144.84375 304.117188 -145.1875 303.453125 -145.59375 C 303.117188 -145.738281 302.84375 -145.90625 302.625 -146.09375 C 293.238281 -151.175781 283.28125 -154.988281 272.75 -157.53125 C 245.363281 -164.082031 217.460938 -161.359375 189.046875 -149.359375 C 178.671875 -144.972656 168.722656 -139.707031 159.203125 -133.5625 C 149.691406 -127.414062 140.410156 -120.695312 131.359375 -113.40625 C 116.773438 -101.59375 103.34375 -88.65625 91.0625 -74.59375 C 78.789062 -60.53125 67.484375 -45.53125 57.140625 -29.59375 C 53.390625 -23.925781 49.785156 -18.1875 46.328125 -12.375 C 46.253906 -12.1875 46.160156 -12.019531 46.046875 -11.875 C 43.398438 -7.75 41.226562 -3.367188 39.53125 1.265625 C 38.71875 3.441406 37.707031 5.503906 36.5 7.453125 C 35.019531 10.023438 32.992188 11 30.421875 10.375 C 28.953125 10.050781 28.34375 9.113281 28.59375 7.5625 C 28.75 6.425781 29.101562 5.34375 29.65625 4.3125 C 32.414062 -1.132812 34.851562 -6.644531 36.96875 -12.21875 C 39.082031 -17.800781 41.0625 -23.425781 42.90625 -29.09375 C 43.382812 -30.570312 43.878906 -31.988281 44.390625 -33.34375 C 55.472656 -65.8125 65.742188 -98.5 75.203125 -131.40625 C 75.390625 -132.101562 75.519531 -132.820312 75.59375 -133.5625 C 75.59375 -133.894531 75.628906 -134.265625 75.703125 -134.671875 C 74.816406 -134.597656 74.132812 -134.3125 73.65625 -133.8125 C 73.175781 -133.3125 72.769531 -132.75 72.4375 -132.125 C 72.363281 -131.863281 72.234375 -131.625 72.046875 -131.40625 C 71.492188 -130.59375 70.984375 -129.726562 70.515625 -128.8125 C 65.140625 -120.414062 59.78125 -111.96875 54.4375 -103.46875 C 46.125 -89.851562 37.785156 -76.234375 29.421875 -62.609375 C 17.347656 -42.953125 5.203125 -23.242188 -7.015625 -3.484375 C -9.703125 0.898438 -12.535156 5.15625 -15.515625 9.28125 C -16.253906 10.34375 -16.9375 11.351562 -17.5625 12.3125 C -18.695312 14.1875 -20.28125 15.328125 -22.3125 15.734375 C -22.894531 15.804688 -23.425781 15.773438 -23.90625 15.640625 C -24.382812 15.515625 -24.695312 15.210938 -24.84375 14.734375 C -25.03125 14.410156 -25.039062 14.023438 -24.875 13.578125 C -24.707031 13.140625 -24.492188 12.753906 -24.234375 12.421875 C 4.910156 -35.285156 34.132812 -82.9375 63.4375 -130.53125 C 66.125 -134.757812 68.957031 -138.898438 71.9375 -142.953125 C 72.601562 -143.835938 73.210938 -144.71875 73.765625 -145.59375 C 75.460938 -148.101562 77.691406 -149.722656 80.453125 -150.453125 C 82.140625 -150.785156 83.46875 -150.546875 84.4375 -149.734375 C 85.414062 -148.929688 85.867188 -147.625 85.796875 -145.8125 C 85.316406 -140.550781 84.269531 -135.34375 82.65625 -130.1875 C 74.632812 -102.476562 66.039062 -74.945312 56.875 -47.59375 C 56.800781 -47.257812 56.691406 -46.96875 56.546875 -46.71875 C 56.210938 -45.90625 55.976562 -45.09375 55.84375 -44.28125 C 55.71875 -43.46875 55.894531 -42.582031 56.375 -41.625 C 57.039062 -42.507812 57.703125 -43.359375 58.359375 -44.171875 C 59.722656 -45.867188 61.007812 -47.5625 62.21875 -49.25 C 76.65625 -69.675781 93.09375 -88.191406 111.53125 -104.796875 C 122.132812 -114.328125 133.128906 -123.125 144.515625 -131.1875 C 155.910156 -139.25 167.882812 -146.148438 180.4375 -151.890625 C 206.351562 -163.484375 232.378906 -167.789062 258.515625 -164.8125 C 275.035156 -162.789062 290.421875 -158.003906 304.671875 -150.453125 C 305.003906 -150.304688 305.375 -150.144531 305.78125 -149.96875 C 306.507812 -149.632812 307.195312 -149.265625 307.84375 -148.859375 C 308.488281 -148.453125 309.015625 -147.84375 309.421875 -147.03125 C 309.492188 -146.882812 309.53125 -146.671875 309.53125 -146.390625 C 309.53125 -146.117188 309.492188 -145.851562 309.421875 -145.59375 C 309.273438 -145.34375 309.097656 -145.113281 308.890625 -144.90625 C 308.691406 -144.707031 308.460938 -144.570312 308.203125 -144.5 Z M 308.203125 -144.5 "/></g></g></g><g fill="#ff3131" fill-opacity="1"><g transform="translate(270.521113, 351.53901)"><g><path d="M 21.953125 -23.265625 C 19.984375 -20.929688 17.65625 -18.785156 14.96875 -16.828125 C 12.28125 -14.878906 9.238281 -13.566406 5.84375 -12.890625 C 2.457031 -12.210938 -0.171875 -12.460938 -2.046875 -13.640625 C -3.921875 -14.816406 -4.285156 -17.429688 -3.140625 -21.484375 C -1.671875 -25.671875 0.347656 -29.660156 2.921875 -33.453125 C 3.515625 -34.265625 4.363281 -34.835938 5.46875 -35.171875 C 6.28125 -35.359375 6.988281 -35.21875 7.59375 -34.75 C 8.195312 -34.289062 8.425781 -33.710938 8.28125 -33.015625 C 7.726562 -31.691406 7.117188 -30.367188 6.453125 -29.046875 C 5.796875 -27.722656 5.359375 -26.859375 5.140625 -26.453125 C 3.847656 -24.085938 2.941406 -21.617188 2.421875 -19.046875 C 2.421875 -17.578125 4.390625 -17.484375 8.328125 -18.765625 C 12.273438 -20.054688 16.101562 -22.421875 19.8125 -25.859375 C 23.53125 -29.304688 25.304688 -30.320312 25.140625 -28.90625 C 24.984375 -27.488281 23.921875 -25.609375 21.953125 -23.265625 Z M 12.3125 -41.734375 C 12.125 -41.585938 11.742188 -41.410156 11.171875 -41.203125 C 10.609375 -41.003906 10.003906 -40.859375 9.359375 -40.765625 C 8.710938 -40.679688 8.203125 -40.785156 7.828125 -41.078125 C 7.460938 -41.367188 7.445312 -41.957031 7.78125 -42.84375 C 8.375 -44.394531 8.988281 -45.75 9.625 -46.90625 C 10.269531 -48.0625 11.109375 -49.335938 12.140625 -50.734375 C 12.804688 -51.367188 13.523438 -51.710938 14.296875 -51.765625 C 15.066406 -51.816406 15.707031 -51.613281 16.21875 -51.15625 C 16.738281 -50.695312 16.890625 -50.0625 16.671875 -49.25 C 15.859375 -46.34375 14.40625 -43.835938 12.3125 -41.734375 Z M 12.3125 -41.734375 "/></g></g></g><g fill="#ff3131" fill-opacity="1"><g transform="translate(289.793576, 351.53901)"><g><path d="M 42.796875 -28.15625 C 43.085938 -27.75 43.160156 -27.34375 43.015625 -26.9375 C 42.867188 -26.539062 42.59375 -26.175781 42.1875 -25.84375 C 39.644531 -23.5625 36.8125 -21.738281 33.6875 -20.375 C 28.3125 -17.875 22.675781 -16.328125 16.78125 -15.734375 C 12.144531 -15.253906 7.726562 -15.953125 3.53125 -17.828125 C 1.988281 -18.535156 0.847656 -18.171875 0.109375 -16.734375 C -0.921875 -14.703125 -2.003906 -12.675781 -3.140625 -10.65625 C -3.691406 -9.507812 -4.300781 -8.332031 -4.96875 -7.125 C -5.039062 -6.976562 -5.113281 -6.8125 -5.1875 -6.625 C -5.445312 -6.21875 -5.695312 -5.828125 -5.9375 -5.453125 C -6.175781 -5.085938 -6.585938 -4.832031 -7.171875 -4.6875 C -7.472656 -4.613281 -7.785156 -4.578125 -8.109375 -4.578125 C -8.441406 -4.578125 -8.738281 -4.648438 -9 -4.796875 C -9.21875 -4.984375 -9.410156 -5.234375 -9.578125 -5.546875 C -9.742188 -5.859375 -9.828125 -6.179688 -9.828125 -6.515625 C -9.566406 -7.578125 -9.195312 -8.625 -8.71875 -9.65625 C -7.6875 -12.019531 -6.675781 -14.34375 -5.6875 -16.625 C -3.1875 -22.4375 -0.554688 -28.175781 2.203125 -33.84375 C 9.828125 -49.488281 17.082031 -65.28125 23.96875 -81.21875 C 24.519531 -82.757812 25.273438 -84.140625 26.234375 -85.359375 C 26.960938 -86.242188 27.972656 -86.484375 29.265625 -86.078125 C 30.585938 -85.523438 30.992188 -84.585938 30.484375 -83.265625 C 29.597656 -80.535156 28.640625 -77.789062 27.609375 -75.03125 C 22.492188 -62.40625 16.898438 -50.019531 10.828125 -37.875 C 9.535156 -35.257812 9.070312 -33.609375 9.4375 -32.921875 C 9.8125 -32.242188 10.675781 -32.191406 12.03125 -32.765625 C 13.394531 -33.335938 14.976562 -34.101562 16.78125 -35.0625 C 18.070312 -35.800781 19.363281 -36.445312 20.65625 -37 C 20.90625 -37.175781 21.144531 -37.300781 21.375 -37.375 C 22.914062 -38.257812 24.585938 -38.738281 26.390625 -38.8125 C 27.085938 -38.8125 27.601562 -38.5 27.9375 -37.875 C 28.125 -37.46875 28.132812 -37.117188 27.96875 -36.828125 C 27.800781 -36.535156 27.585938 -36.316406 27.328125 -36.171875 C 24.566406 -34.546875 21.769531 -33 18.9375 -31.53125 C 17.570312 -30.90625 16.15625 -30.222656 14.6875 -29.484375 C 13.25 -28.816406 11.832031 -28.117188 10.4375 -27.390625 C 9.476562 -26.835938 8.59375 -26.191406 7.78125 -25.453125 C 5.90625 -23.503906 6.109375 -21.882812 8.390625 -20.59375 C 10.265625 -19.78125 12.148438 -19.351562 14.046875 -19.3125 C 15.941406 -19.28125 17.832031 -19.503906 19.71875 -19.984375 C 25.53125 -21.273438 30.992188 -23.394531 36.109375 -26.34375 C 36.515625 -26.5625 36.921875 -26.757812 37.328125 -26.9375 C 38.285156 -27.570312 39.296875 -28.125 40.359375 -28.59375 C 40.765625 -28.78125 41.207031 -28.851562 41.6875 -28.8125 C 42.164062 -28.78125 42.535156 -28.5625 42.796875 -28.15625 Z M 42.796875 -28.15625 "/></g></g></g><g fill="#ff3131" fill-opacity="1"><g transform="translate(326.403979, 351.53901)"><g><path d="M 44.828125 -25.734375 C 44.171875 -25.140625 43.472656 -24.601562 42.734375 -24.125 C 40.378906 -22.65625 38.253906 -21.492188 36.359375 -20.640625 C 34.460938 -19.796875 32.226562 -18.9375 29.65625 -18.0625 C 25.820312 -16.914062 23.363281 -17.171875 22.28125 -18.828125 C 21.195312 -20.484375 21.019531 -22.785156 21.75 -25.734375 C 22.78125 -29.929688 23.378906 -33.003906 23.546875 -34.953125 C 23.710938 -36.898438 23.066406 -37.570312 21.609375 -36.96875 C 20.160156 -36.363281 17.519531 -34.347656 13.6875 -30.921875 C 8.351562 -26.316406 3.789062 -21.050781 0 -15.125 C -0.476562 -14.3125 -1.066406 -13.648438 -1.765625 -13.140625 C -2.460938 -12.628906 -3.328125 -12.375 -4.359375 -12.375 C -5.359375 -12.375 -6.078125 -12.628906 -6.515625 -13.140625 C -6.953125 -13.648438 -6.972656 -14.347656 -6.578125 -15.234375 C -4.398438 -20.023438 -2.171875 -24.773438 0.109375 -29.484375 C 4.015625 -37.648438 7.863281 -45.785156 11.65625 -53.890625 C 14.488281 -59.960938 17.285156 -66.035156 20.046875 -72.109375 C 21.734375 -75.679688 23.390625 -79.253906 25.015625 -82.828125 C 25.160156 -83.117188 25.328125 -83.429688 25.515625 -83.765625 C 25.660156 -84.160156 25.832031 -84.5625 26.03125 -84.96875 C 26.238281 -85.375 26.46875 -85.816406 26.71875 -86.296875 C 26.945312 -86.703125 27.363281 -87.035156 27.96875 -87.296875 C 28.570312 -87.554688 29.175781 -87.722656 29.78125 -87.796875 C 30.394531 -87.867188 30.867188 -87.832031 31.203125 -87.6875 C 31.671875 -87.351562 31.929688 -87 31.984375 -86.625 C 32.046875 -86.257812 31.984375 -85.875 31.796875 -85.46875 C 31.722656 -85.394531 31.6875 -85.265625 31.6875 -85.078125 C 30.957031 -82.910156 30.1875 -80.816406 29.375 -78.796875 C 24.695312 -67.523438 19.597656 -56.425781 14.078125 -45.5 C 13.671875 -44.757812 13.191406 -43.875 12.640625 -42.84375 C 11.828125 -41.375 11.070312 -39.929688 10.375 -38.515625 C 9.675781 -37.097656 9.445312 -36.148438 9.6875 -35.671875 C 9.925781 -35.191406 11.019531 -35.554688 12.96875 -36.765625 C 13.5625 -37.171875 14.097656 -37.578125 14.578125 -37.984375 C 16.117188 -39.015625 17.644531 -39.988281 19.15625 -40.90625 C 20.476562 -41.789062 21.953125 -42.269531 23.578125 -42.34375 C 27.441406 -42.601562 29.613281 -40.859375 30.09375 -37.109375 C 30.28125 -35.597656 30.222656 -34.101562 29.921875 -32.625 C 29.628906 -31.15625 29.28125 -29.703125 28.875 -28.265625 C 28.800781 -27.859375 28.726562 -27.457031 28.65625 -27.0625 C 27.988281 -24.550781 28.160156 -23.113281 29.171875 -22.75 C 30.191406 -22.382812 31.613281 -22.585938 33.4375 -23.359375 C 35.257812 -24.128906 37.109375 -25.066406 38.984375 -26.171875 C 40.265625 -26.835938 41.394531 -27.40625 42.375 -27.875 C 43.351562 -28.351562 44.082031 -28.554688 44.5625 -28.484375 C 45.4375 -28.335938 45.835938 -27.976562 45.765625 -27.40625 C 45.691406 -26.84375 45.378906 -26.285156 44.828125 -25.734375 Z M 44.828125 -25.734375 "/></g></g></g><g fill="#ff3131" fill-opacity="1"><g transform="translate(366.272173, 351.53901)"><g><path d="M 21.953125 -23.265625 C 19.984375 -20.929688 17.65625 -18.785156 14.96875 -16.828125 C 12.28125 -14.878906 9.238281 -13.566406 5.84375 -12.890625 C 2.457031 -12.210938 -0.171875 -12.460938 -2.046875 -13.640625 C -3.921875 -14.816406 -4.285156 -17.429688 -3.140625 -21.484375 C -1.671875 -25.671875 0.347656 -29.660156 2.921875 -33.453125 C 3.515625 -34.265625 4.363281 -34.835938 5.46875 -35.171875 C 6.28125 -35.359375 6.988281 -35.21875 7.59375 -34.75 C 8.195312 -34.289062 8.425781 -33.710938 8.28125 -33.015625 C 7.726562 -31.691406 7.117188 -30.367188 6.453125 -29.046875 C 5.796875 -27.722656 5.359375 -26.859375 5.140625 -26.453125 C 3.847656 -24.085938 2.941406 -21.617188 2.421875 -19.046875 C 2.421875 -17.578125 4.390625 -17.484375 8.328125 -18.765625 C 12.273438 -20.054688 16.101562 -22.421875 19.8125 -25.859375 C 23.53125 -29.304688 25.304688 -30.320312 25.140625 -28.90625 C 24.984375 -27.488281 23.921875 -25.609375 21.953125 -23.265625 Z M 12.3125 -41.734375 C 12.125 -41.585938 11.742188 -41.410156 11.171875 -41.203125 C 10.609375 -41.003906 10.003906 -40.859375 9.359375 -40.765625 C 8.710938 -40.679688 8.203125 -40.785156 7.828125 -41.078125 C 7.460938 -41.367188 7.445312 -41.957031 7.78125 -42.84375 C 8.375 -44.394531 8.988281 -45.75 9.625 -46.90625 C 10.269531 -48.0625 11.109375 -49.335938 12.140625 -50.734375 C 12.804688 -51.367188 13.523438 -51.710938 14.296875 -51.765625 C 15.066406 -51.816406 15.707031 -51.613281 16.21875 -51.15625 C 16.738281 -50.695312 16.890625 -50.0625 16.671875 -49.25 C 15.859375 -46.34375 14.40625 -43.835938 12.3125 -41.734375 Z M 12.3125 -41.734375 "/></g></g></g><g fill="#ff3131" fill-opacity="1"><g transform="translate(385.544642, 351.53901)"><g><path d="M 26.71875 -26.34375 C 27.9375 -27.550781 28.945312 -28.226562 29.75 -28.375 C 30.5625 -28.519531 31.085938 -28.390625 31.328125 -27.984375 C 31.566406 -27.585938 31.410156 -27.039062 30.859375 -26.34375 C 27.617188 -22.4375 23.992188 -19.066406 19.984375 -16.234375 C 15.972656 -13.398438 11.84375 -11.757812 7.59375 -11.3125 C 3.34375 -10.875 0.773438 -13.195312 -0.109375 -18.28125 C -0.773438 -23.320312 2.273438 -33.585938 9.046875 -49.078125 C 15.828125 -64.578125 21.1875 -77.28125 25.125 -87.1875 C 25.457031 -88.070312 25.953125 -88.84375 26.609375 -89.5 C 27.492188 -90.382812 28.546875 -90.585938 29.765625 -90.109375 C 30.171875 -89.921875 30.570312 -89.625 30.96875 -89.21875 C 31.375 -88.820312 31.503906 -88.109375 31.359375 -87.078125 C 13.953125 -45.773438 5.523438 -23.316406 6.078125 -19.703125 C 6.628906 -16.097656 8.957031 -15.207031 13.0625 -17.03125 C 17.164062 -18.851562 20.328125 -20.710938 22.546875 -22.609375 C 24.773438 -24.503906 26.164062 -25.75 26.71875 -26.34375 Z M 26.71875 -26.34375 "/></g></g></g><g fill="#ff3131" fill-opacity="1"><g transform="translate(410.835708, 351.53901)"><g/></g></g><g fill="#ff3131" fill-opacity="1"><g transform="translate(450.317375, 351.53901)"><g><path d="M 153.65625 13.640625 C 154.320312 14.222656 154.617188 14.851562 154.546875 15.53125 C 154.472656 16.21875 154.269531 16.835938 153.9375 17.390625 C 153.9375 17.503906 153.9375 17.5625 153.9375 17.5625 C 151.582031 23.113281 148.039062 27.304688 143.3125 30.140625 C 138.582031 32.972656 132.882812 34.15625 126.21875 33.6875 C 119.8125 33.050781 114.785156 30.8125 111.140625 26.96875 C 107.492188 23.125 105.394531 17.960938 104.84375 11.484375 C 104.59375 8.316406 104.710938 5.164062 105.203125 2.03125 C 105.703125 -1.09375 106.320312 -4.21875 107.0625 -7.34375 C 107.539062 -9.289062 108.019531 -11.242188 108.5 -13.203125 C 109.382812 -16.441406 110.15625 -19.71875 110.8125 -23.03125 C 111.769531 -28.21875 111.21875 -31.820312 109.15625 -33.84375 C 107.09375 -35.875 104.175781 -36.953125 100.40625 -37.078125 C 96.632812 -37.203125 92.816406 -37.007812 88.953125 -36.5 C 86.742188 -36.28125 84.71875 -36.132812 82.875 -36.0625 C 82.132812 -36.0625 81.5625 -35.859375 81.15625 -35.453125 C 80.757812 -35.046875 80.394531 -34.582031 80.0625 -34.0625 C 78.113281 -30.601562 76.21875 -27.085938 74.375 -23.515625 C 57.1875 8.867188 38.5625 40.410156 18.5 71.109375 C 15.40625 75.785156 12.203125 80.40625 8.890625 84.96875 C 8.148438 86.070312 7.320312 87.054688 6.40625 87.921875 C 5.488281 88.785156 4.363281 89.421875 3.03125 89.828125 C 0.601562 90.523438 -1.316406 90.367188 -2.734375 89.359375 C -4.148438 88.347656 -4.800781 86.554688 -4.6875 83.984375 C -4.539062 81.003906 -4.101562 78.003906 -3.375 74.984375 C 1.007812 56.691406 6.660156 41.03125 13.578125 28 C 20.503906 14.96875 28.863281 3.1875 38.65625 -7.34375 C 48.445312 -17.875 59.742188 -28.492188 72.546875 -39.203125 C 74.578125 -40.816406 76.195312 -42.804688 77.40625 -45.171875 C 79.101562 -48.410156 80.796875 -51.644531 82.484375 -54.875 C 88.742188 -66.914062 94.910156 -78.988281 100.984375 -91.09375 C 107.054688 -103.207031 112.800781 -115.46875 118.21875 -127.875 C 123.550781 -140.238281 126.300781 -149.484375 126.46875 -155.609375 C 126.632812 -161.742188 123.800781 -164.984375 117.96875 -165.328125 C 112.132812 -165.679688 102.941406 -163.359375 90.390625 -158.359375 C 78.085938 -153.421875 66.046875 -147.914062 54.265625 -141.84375 C 42.492188 -135.769531 30.882812 -129.289062 19.4375 -122.40625 C 15.164062 -119.90625 9.890625 -116.582031 3.609375 -112.4375 C -2.660156 -108.300781 -8.847656 -103.847656 -14.953125 -99.078125 C -21.066406 -94.316406 -26.113281 -89.648438 -30.09375 -85.078125 C -33 -81.617188 -33.722656 -79.265625 -32.265625 -78.015625 C -30.816406 -76.765625 -27.898438 -76.046875 -23.515625 -75.859375 C -21.421875 -75.785156 -17.84375 -75.765625 -12.78125 -75.796875 C -7.71875 -75.835938 -2.078125 -76.097656 4.140625 -76.578125 C 7.640625 -76.835938 11.046875 -77.097656 14.359375 -77.359375 C 19.359375 -77.835938 23.644531 -78.15625 27.21875 -78.3125 C 30.789062 -78.476562 32.90625 -78.269531 33.5625 -77.6875 C 33.789062 -77.0625 31.316406 -76.359375 26.140625 -75.578125 C 20.972656 -74.804688 14.597656 -74.097656 7.015625 -73.453125 C -0.566406 -72.816406 -7.921875 -72.429688 -15.046875 -72.296875 C -22.171875 -72.171875 -27.554688 -72.441406 -31.203125 -73.109375 C -37.597656 -74.460938 -40.507812 -76.941406 -39.9375 -80.546875 C -39.375 -84.160156 -36.296875 -88.515625 -30.703125 -93.609375 C -25.109375 -98.710938 -17.984375 -104.132812 -9.328125 -109.875 C -0.679688 -115.613281 8.597656 -121.34375 18.515625 -127.0625 C 28.441406 -132.789062 38.039062 -138.101562 47.3125 -143 C 56.59375 -147.894531 64.59375 -151.960938 71.3125 -155.203125 C 78.03125 -158.441406 82.566406 -160.539062 84.921875 -161.5 C 94.566406 -165.40625 103.050781 -168.046875 110.375 -169.421875 C 117.695312 -170.804688 123.425781 -170.4375 127.5625 -168.3125 C 131.707031 -166.195312 133.796875 -161.898438 133.828125 -155.421875 C 133.867188 -148.941406 131.425781 -139.796875 126.5 -127.984375 C 122.519531 -118.597656 118.285156 -109.300781 113.796875 -100.09375 C 109.304688 -90.894531 104.742188 -81.734375 100.109375 -72.609375 C 98.335938 -69.109375 96.515625 -65.5 94.640625 -61.78125 C 93.609375 -59.757812 92.484375 -57.609375 91.265625 -55.328125 C 92.628906 -55.660156 93.734375 -56.09375 94.578125 -56.625 C 95.421875 -57.15625 96.175781 -57.695312 96.84375 -58.25 C 97.175781 -58.507812 97.546875 -58.75 97.953125 -58.96875 C 114.148438 -70.820312 131.835938 -82.753906 151.015625 -94.765625 C 170.191406 -106.785156 190.351562 -117.992188 211.5 -128.390625 C 232.644531 -138.796875 254.269531 -147.4375 276.375 -154.3125 C 298.476562 -161.195312 320.546875 -165.445312 342.578125 -167.0625 C 364.609375 -168.6875 386.113281 -166.757812 407.09375 -161.28125 C 407.3125 -161.207031 407.539062 -161.003906 407.78125 -160.671875 C 408.019531 -160.335938 408.140625 -160.003906 408.140625 -159.671875 C 408.140625 -159.191406 407.960938 -158.8125 407.609375 -158.53125 C 407.265625 -158.257812 406.796875 -158.125 406.203125 -158.125 C 405.796875 -158.019531 405.359375 -158.0625 404.890625 -158.25 C 387.398438 -162.769531 369.273438 -164.503906 350.515625 -163.453125 C 331.765625 -162.410156 312.753906 -159.253906 293.484375 -153.984375 C 274.210938 -148.722656 255.125 -141.960938 236.21875 -133.703125 C 217.320312 -125.441406 199.019531 -116.332031 181.3125 -106.375 C 163.613281 -96.414062 146.96875 -86.207031 131.375 -75.75 C 115.789062 -65.300781 101.6875 -55.253906 89.0625 -45.609375 C 88.988281 -45.535156 88.953125 -45.5 88.953125 -45.5 C 87.953125 -44.875 87.007812 -44.15625 86.125 -43.34375 C 85.25 -42.53125 84.847656 -41.835938 84.921875 -41.265625 C 84.992188 -40.703125 86.003906 -40.457031 87.953125 -40.53125 C 88.546875 -40.53125 89.117188 -40.53125 89.671875 -40.53125 C 93.234375 -40.863281 96.972656 -40.960938 100.890625 -40.828125 C 104.816406 -40.703125 108.398438 -40.03125 111.640625 -38.8125 C 116.347656 -36.863281 118.703125 -33.382812 118.703125 -28.375 C 118.628906 -26.019531 118.335938 -23.722656 117.828125 -21.484375 C 117.015625 -17.722656 116.164062 -13.984375 115.28125 -10.265625 C 114.40625 -6.222656 113.523438 -2.140625 112.640625 1.984375 C 111.566406 6.847656 111.734375 11.707031 113.140625 16.5625 C 114.492188 20.757812 116.625 24.015625 119.53125 26.328125 C 122.445312 28.648438 125.769531 29.863281 129.5 29.96875 C 133.238281 30.082031 136.96875 28.925781 140.6875 26.5 C 143.445312 24.65625 145.671875 22.28125 147.359375 19.375 C 147.691406 18.71875 148.023438 18.054688 148.359375 17.390625 C 148.578125 16.765625 148.851562 16.160156 149.1875 15.578125 C 149.851562 14.546875 150.609375 13.84375 151.453125 13.46875 C 152.296875 13.101562 153.03125 13.160156 153.65625 13.640625 Z M 64.15625 -20.375 C 64.226562 -20.519531 64.359375 -20.722656 64.546875 -20.984375 C 64.835938 -21.535156 65.210938 -22.210938 65.671875 -23.015625 C 66.128906 -23.828125 66.476562 -24.601562 66.71875 -25.34375 C 66.957031 -26.082031 66.976562 -26.53125 66.78125 -26.6875 C 66.582031 -26.851562 65.984375 -26.535156 64.984375 -25.734375 C 48.492188 -12.773438 35.523438 1.78125 26.078125 17.9375 C 16.640625 34.101562 9.566406 52.640625 4.859375 73.546875 C 4.453125 75.390625 4.414062 76.410156 4.75 76.609375 C 5.082031 76.804688 5.613281 76.53125 6.34375 75.78125 C 7.082031 75.03125 7.789062 74.144531 8.46875 73.125 C 9.15625 72.113281 9.664062 71.40625 10 71 C 19.632812 56.09375 28.976562 41.046875 38.03125 25.859375 C 47.09375 10.679688 55.800781 -4.726562 64.15625 -20.375 Z M 64.15625 -20.375 "/></g></g></g><g fill="#ff3131" fill-opacity="1"><g transform="translate(583.99817, 351.53901)"><g><path d="M 40.0625 -28.125 C 40.925781 -27.632812 40.988281 -26.429688 40.25 -24.515625 C 39.1875 -23.117188 38.046875 -21.8125 36.828125 -20.59375 C 35.609375 -19.375 34.285156 -18.289062 32.859375 -17.34375 C 32.742188 -17.34375 32.6875 -17.304688 32.6875 -17.234375 C 31.726562 -16.566406 30.71875 -15.992188 29.65625 -15.515625 C 20.851562 -12.347656 16.359375 -14.207031 16.171875 -21.09375 C 12.609375 -18 10.21875 -16.101562 9 -15.40625 C 6.09375 -13.675781 2.945312 -12.898438 -0.4375 -13.078125 C -2.945312 -13.234375 -4.648438 -14 -5.546875 -15.375 C -6.453125 -16.757812 -6.367188 -18.628906 -5.296875 -20.984375 C -3.679688 -24.703125 -1.382812 -28.015625 1.59375 -30.921875 C 5.09375 -34.160156 8.976562 -36.753906 13.25 -38.703125 C 15.53125 -39.847656 17.921875 -40.289062 20.421875 -40.03125 C 22.929688 -39.882812 24.441406 -38.46875 24.953125 -35.78125 C 25.171875 -34.96875 24.96875 -34.25 24.34375 -33.625 C 23.539062 -32.882812 22.601562 -32.71875 21.53125 -33.125 C 21.457031 -33.125 21.351562 -33.140625 21.21875 -33.171875 C 21.09375 -33.210938 20.992188 -33.269531 20.921875 -33.34375 C 19.859375 -34.820312 18.78125 -35.441406 17.6875 -35.203125 C 16.601562 -34.960938 15.457031 -34.472656 14.25 -33.734375 C 8.582031 -30.421875 4.363281 -25.800781 1.59375 -19.875 C 1.445312 -19.613281 1.351562 -19.328125 1.3125 -19.015625 C 1.28125 -18.703125 1.375 -18.457031 1.59375 -18.28125 C 2.257812 -18.050781 3 -18.09375 3.8125 -18.40625 C 4.625 -18.726562 5.429688 -19.191406 6.234375 -19.796875 C 7.046875 -20.398438 7.726562 -20.90625 8.28125 -21.3125 C 8.351562 -21.425781 8.390625 -21.484375 8.390625 -21.484375 C 11.078125 -23.722656 13.707031 -26.019531 16.28125 -28.375 C 17.425781 -29.59375 18.847656 -30.273438 20.546875 -30.421875 C 22.972656 -30.421875 23.984375 -29.335938 23.578125 -27.171875 C 23.359375 -26.359375 23.117188 -25.546875 22.859375 -24.734375 C 21.898438 -21.234375 21.863281 -19.179688 22.75 -18.578125 C 23.632812 -17.972656 24.988281 -17.972656 26.8125 -18.578125 C 28.632812 -19.179688 30.453125 -20.335938 32.265625 -22.046875 C 34.085938 -23.765625 35.625 -25.332031 36.875 -26.75 C 38.132812 -28.164062 39.195312 -28.625 40.0625 -28.125 Z M 40.0625 -28.125 "/></g></g></g><g fill="#ff3131" fill-opacity="1"><g transform="translate(618.344702, 351.53901)"><g><path d="M 49.03125 -29.0625 C 49.800781 -28.863281 50.203125 -28.578125 50.234375 -28.203125 C 50.273438 -27.835938 50.296875 -27.65625 50.296875 -27.65625 C 49.410156 -26.113281 48.398438 -24.695312 47.265625 -23.40625 C 44.648438 -20.5 41.613281 -18.179688 38.15625 -16.453125 C 36.457031 -15.492188 34.539062 -14.976562 32.40625 -14.90625 C 27.476562 -14.832031 25.21875 -17.222656 25.625 -22.078125 C 25.800781 -23.109375 26.039062 -24.125 26.34375 -25.125 C 26.519531 -25.601562 26.644531 -26.082031 26.71875 -26.5625 C 27.195312 -28.320312 27.332031 -29.300781 27.125 -29.5 C 26.925781 -29.707031 26.347656 -29.207031 25.390625 -28 C 25.140625 -27.769531 24.90625 -27.53125 24.6875 -27.28125 C 23.207031 -25.507812 21.695312 -23.773438 20.15625 -22.078125 C 17.320312 -18.847656 14.082031 -16.125 10.4375 -13.90625 C 8.257812 -12.625 5.957031 -11.945312 3.53125 -11.875 C -0.4375 -11.6875 -2.660156 -13.507812 -3.140625 -17.34375 C -3.328125 -18.882812 -3.253906 -20.410156 -2.921875 -21.921875 C -1.304688 -28.179688 1.925781 -32.945312 6.78125 -36.21875 C 11.644531 -39.5 17.207031 -40.660156 23.46875 -39.703125 C 25.226562 -39.179688 26.515625 -39.660156 27.328125 -41.140625 C 27.660156 -41.691406 27.992188 -42.257812 28.328125 -42.84375 C 30.015625 -45.75 31.671875 -48.65625 33.296875 -51.5625 C 36.347656 -57.164062 39.421875 -62.800781 42.515625 -68.46875 C 45.015625 -72.914062 47.519531 -77.40625 50.03125 -81.9375 C 50.757812 -83.332031 51.566406 -84.675781 52.453125 -85.96875 C 52.859375 -86.59375 53.363281 -86.96875 53.96875 -87.09375 C 54.570312 -87.226562 55.207031 -87.296875 55.875 -87.296875 C 56.019531 -87.296875 56.1875 -87.296875 56.375 -87.296875 C 57.113281 -87.296875 57.703125 -87.109375 58.140625 -86.734375 C 58.578125 -86.367188 58.671875 -85.875 58.421875 -85.25 C 57.941406 -83.707031 57.367188 -82.234375 56.703125 -80.828125 C 53.316406 -74.054688 50.125 -67.203125 47.125 -60.265625 C 44.125 -53.328125 41.171875 -46.34375 38.265625 -39.3125 C 37.304688 -36.882812 36.332031 -34.457031 35.34375 -32.03125 C 34.125 -29.1875 33.109375 -26.273438 32.296875 -23.296875 C 32.078125 -22.640625 31.96875 -21.988281 31.96875 -21.34375 C 31.96875 -20.695312 32.28125 -20.132812 32.90625 -19.65625 C 33.3125 -19.394531 33.734375 -19.347656 34.171875 -19.515625 C 34.617188 -19.679688 35.097656 -19.875 35.609375 -20.09375 C 35.679688 -20.207031 35.789062 -20.300781 35.9375 -20.375 C 39.4375 -22.394531 42.640625 -24.820312 45.546875 -27.65625 C 46.023438 -28.132812 46.53125 -28.539062 47.0625 -28.875 C 47.601562 -29.207031 48.257812 -29.269531 49.03125 -29.0625 Z M 21.75 -32.625 C 22.15625 -33.289062 22.273438 -33.925781 22.109375 -34.53125 C 21.941406 -35.144531 21.53125 -35.597656 20.875 -35.890625 C 19.507812 -36.628906 18.054688 -36.722656 16.515625 -36.171875 C 12.722656 -35.023438 9.546875 -32.847656 6.984375 -29.640625 C 4.421875 -26.441406 3.03125 -22.910156 2.8125 -19.046875 C 2.882812 -18.859375 2.921875 -18.726562 2.921875 -18.65625 C 2.921875 -18.332031 2.921875 -18.003906 2.921875 -17.671875 C 3.253906 -15.898438 4.347656 -15.554688 6.203125 -16.640625 C 8.066406 -17.734375 10.148438 -19.492188 12.453125 -21.921875 C 14.753906 -24.347656 16.816406 -26.65625 18.640625 -28.84375 C 20.460938 -31.039062 21.5 -32.300781 21.75 -32.625 Z M 21.75 -32.625 "/></g></g></g><g fill="#ff3131" fill-opacity="1"><g transform="translate(662.243679, 351.53901)"><g><path d="M 40.0625 -28.125 C 40.925781 -27.632812 40.988281 -26.429688 40.25 -24.515625 C 39.1875 -23.117188 38.046875 -21.8125 36.828125 -20.59375 C 35.609375 -19.375 34.285156 -18.289062 32.859375 -17.34375 C 32.742188 -17.34375 32.6875 -17.304688 32.6875 -17.234375 C 31.726562 -16.566406 30.71875 -15.992188 29.65625 -15.515625 C 20.851562 -12.347656 16.359375 -14.207031 16.171875 -21.09375 C 12.609375 -18 10.21875 -16.101562 9 -15.40625 C 6.09375 -13.675781 2.945312 -12.898438 -0.4375 -13.078125 C -2.945312 -13.234375 -4.648438 -14 -5.546875 -15.375 C -6.453125 -16.757812 -6.367188 -18.628906 -5.296875 -20.984375 C -3.679688 -24.703125 -1.382812 -28.015625 1.59375 -30.921875 C 5.09375 -34.160156 8.976562 -36.753906 13.25 -38.703125 C 15.53125 -39.847656 17.921875 -40.289062 20.421875 -40.03125 C 22.929688 -39.882812 24.441406 -38.46875 24.953125 -35.78125 C 25.171875 -34.96875 24.96875 -34.25 24.34375 -33.625 C 23.539062 -32.882812 22.601562 -32.71875 21.53125 -33.125 C 21.457031 -33.125 21.351562 -33.140625 21.21875 -33.171875 C 21.09375 -33.210938 20.992188 -33.269531 20.921875 -33.34375 C 19.859375 -34.820312 18.78125 -35.441406 17.6875 -35.203125 C 16.601562 -34.960938 15.457031 -34.472656 14.25 -33.734375 C 8.582031 -30.421875 4.363281 -25.800781 1.59375 -19.875 C 1.445312 -19.613281 1.351562 -19.328125 1.3125 -19.015625 C 1.28125 -18.703125 1.375 -18.457031 1.59375 -18.28125 C 2.257812 -18.050781 3 -18.09375 3.8125 -18.40625 C 4.625 -18.726562 5.429688 -19.191406 6.234375 -19.796875 C 7.046875 -20.398438 7.726562 -20.90625 8.28125 -21.3125 C 8.351562 -21.425781 8.390625 -21.484375 8.390625 -21.484375 C 11.078125 -23.722656 13.707031 -26.019531 16.28125 -28.375 C 17.425781 -29.59375 18.847656 -30.273438 20.546875 -30.421875 C 22.972656 -30.421875 23.984375 -29.335938 23.578125 -27.171875 C 23.359375 -26.359375 23.117188 -25.546875 22.859375 -24.734375 C 21.898438 -21.234375 21.863281 -19.179688 22.75 -18.578125 C 23.632812 -17.972656 24.988281 -17.972656 26.8125 -18.578125 C 28.632812 -19.179688 30.453125 -20.335938 32.265625 -22.046875 C 34.085938 -23.765625 35.625 -25.332031 36.875 -26.75 C 38.132812 -28.164062 39.195312 -28.625 40.0625 -28.125 Z M 40.0625 -28.125 "/></g></g></g><g fill="#ff3131" fill-opacity="1"><g transform="translate(696.59021, 351.53901)"><g><path d="M 43.953125 -28.984375 C 43.140625 -28.648438 42.289062 -28.375 41.40625 -28.15625 C 41.1875 -28.050781 40.984375 -27.960938 40.796875 -27.890625 C 39.921875 -27.554688 39.039062 -27.238281 38.15625 -26.9375 C 35.644531 -26.132812 33.085938 -25.269531 30.484375 -24.34375 C 28.523438 -23.789062 26.992188 -22.578125 25.890625 -20.703125 C 24.085938 -17.796875 21.832031 -15.53125 19.125 -13.90625 C 16.425781 -12.289062 13.675781 -11.140625 10.875 -10.453125 C 8.082031 -9.773438 5.609375 -9.351562 3.453125 -9.1875 C 1.296875 -9.019531 -0.09375 -8.976562 -0.71875 -9.0625 C -0.789062 -9.0625 -0.882812 -9.0625 -1 -9.0625 C -1.875 -8.507812 -2.753906 -7.421875 -3.640625 -5.796875 C -4.523438 -4.179688 -5.300781 -2.726562 -5.96875 -1.4375 C -6.113281 -1.101562 -6.222656 -0.804688 -6.296875 -0.546875 C -9.941406 6.734375 -13.546875 14.019531 -17.109375 21.3125 C -19.140625 25.363281 -21.164062 29.410156 -23.1875 33.453125 C -23.851562 34.890625 -24.628906 36.269531 -25.515625 37.59375 C -26.316406 38.625 -27.328125 38.828125 -28.546875 38.203125 C -29.359375 37.617188 -29.5625 36.8125 -29.15625 35.78125 C -28.75 34.707031 -28.304688 33.640625 -27.828125 32.578125 C -21.492188 17.597656 -14.773438 2.78125 -7.671875 -11.875 C -5.460938 -16.394531 -3.382812 -21.015625 -1.4375 -25.734375 C -0.550781 -27.898438 0.367188 -30.125 1.328125 -32.40625 C 1.398438 -32.625 1.53125 -32.863281 1.71875 -33.125 C 2.1875 -34.34375 2.753906 -35.519531 3.421875 -36.65625 C 3.710938 -37.0625 4.265625 -37.316406 5.078125 -37.421875 C 5.890625 -37.535156 6.585938 -37.429688 7.171875 -37.109375 C 7.910156 -36.628906 8.28125 -35.910156 8.28125 -34.953125 C 8.28125 -34.472656 8.1875 -33.972656 8 -33.453125 C 7.851562 -33.054688 7.757812 -32.65625 7.71875 -32.25 C 7.6875 -31.84375 7.816406 -31.4375 8.109375 -31.03125 C 8.703125 -30.957031 9.21875 -31.039062 9.65625 -31.28125 C 10.101562 -31.519531 10.53125 -31.804688 10.9375 -32.140625 C 11.34375 -32.460938 11.820312 -32.703125 12.375 -32.859375 C 12.695312 -33.035156 13.023438 -33.195312 13.359375 -33.34375 C 15.128906 -34.15625 16.878906 -34.859375 18.609375 -35.453125 C 20.847656 -36.148438 23.070312 -35.984375 25.28125 -34.953125 C 26.238281 -34.359375 26.957031 -33.640625 27.4375 -32.796875 C 27.914062 -31.953125 28.285156 -31.050781 28.546875 -30.09375 C 28.804688 -29.351562 29.476562 -28.960938 30.5625 -28.921875 C 31.644531 -28.890625 32.859375 -29.03125 34.203125 -29.34375 C 35.546875 -29.65625 36.769531 -29.976562 37.875 -30.3125 C 38.789062 -30.570312 39.453125 -30.738281 39.859375 -30.8125 C 40.960938 -31.070312 42.085938 -31.144531 43.234375 -31.03125 C 43.566406 -31.03125 43.867188 -30.972656 44.140625 -30.859375 C 44.421875 -30.753906 44.5625 -30.460938 44.5625 -29.984375 C 44.5625 -29.796875 44.503906 -29.597656 44.390625 -29.390625 C 44.273438 -29.191406 44.128906 -29.054688 43.953125 -28.984375 Z M 20.765625 -25.34375 C 21.492188 -25.820312 21.941406 -26.613281 22.109375 -27.71875 C 22.273438 -28.820312 22.15625 -29.890625 21.75 -30.921875 C 21.570312 -31.253906 21.328125 -31.484375 21.015625 -31.609375 C 20.703125 -31.734375 20.378906 -31.796875 20.046875 -31.796875 C 19.378906 -31.691406 18.734375 -31.492188 18.109375 -31.203125 C 11.296875 -27.773438 5.789062 -22.914062 1.59375 -16.625 C 0.789062 -15.144531 0.894531 -14.488281 1.90625 -14.65625 C 2.914062 -14.820312 4.429688 -15.445312 6.453125 -16.53125 C 8.484375 -17.625 10.582031 -18.878906 12.75 -20.296875 C 14.925781 -21.710938 16.785156 -22.914062 18.328125 -23.90625 C 19.722656 -24.789062 20.535156 -25.269531 20.765625 -25.34375 Z M 20.765625 -25.34375 "/></g></g></g><g fill="#ff3131" fill-opacity="1"><g transform="translate(735.022777, 351.53901)"><g><path d="M 40.0625 -28.125 C 40.925781 -27.632812 40.988281 -26.429688 40.25 -24.515625 C 39.1875 -23.117188 38.046875 -21.8125 36.828125 -20.59375 C 35.609375 -19.375 34.285156 -18.289062 32.859375 -17.34375 C 32.742188 -17.34375 32.6875 -17.304688 32.6875 -17.234375 C 31.726562 -16.566406 30.71875 -15.992188 29.65625 -15.515625 C 20.851562 -12.347656 16.359375 -14.207031 16.171875 -21.09375 C 12.609375 -18 10.21875 -16.101562 9 -15.40625 C 6.09375 -13.675781 2.945312 -12.898438 -0.4375 -13.078125 C -2.945312 -13.234375 -4.648438 -14 -5.546875 -15.375 C -6.453125 -16.757812 -6.367188 -18.628906 -5.296875 -20.984375 C -3.679688 -24.703125 -1.382812 -28.015625 1.59375 -30.921875 C 5.09375 -34.160156 8.976562 -36.753906 13.25 -38.703125 C 15.53125 -39.847656 17.921875 -40.289062 20.421875 -40.03125 C 22.929688 -39.882812 24.441406 -38.46875 24.953125 -35.78125 C 25.171875 -34.96875 24.96875 -34.25 24.34375 -33.625 C 23.539062 -32.882812 22.601562 -32.71875 21.53125 -33.125 C 21.457031 -33.125 21.351562 -33.140625 21.21875 -33.171875 C 21.09375 -33.210938 20.992188 -33.269531 20.921875 -33.34375 C 19.859375 -34.820312 18.78125 -35.441406 17.6875 -35.203125 C 16.601562 -34.960938 15.457031 -34.472656 14.25 -33.734375 C 8.582031 -30.421875 4.363281 -25.800781 1.59375 -19.875 C 1.445312 -19.613281 1.351562 -19.328125 1.3125 -19.015625 C 1.28125 -18.703125 1.375 -18.457031 1.59375 -18.28125 C 2.257812 -18.050781 3 -18.09375 3.8125 -18.40625 C 4.625 -18.726562 5.429688 -19.191406 6.234375 -19.796875 C 7.046875 -20.398438 7.726562 -20.90625 8.28125 -21.3125 C 8.351562 -21.425781 8.390625 -21.484375 8.390625 -21.484375 C 11.078125 -23.722656 13.707031 -26.019531 16.28125 -28.375 C 17.425781 -29.59375 18.847656 -30.273438 20.546875 -30.421875 C 22.972656 -30.421875 23.984375 -29.335938 23.578125 -27.171875 C 23.359375 -26.359375 23.117188 -25.546875 22.859375 -24.734375 C 21.898438 -21.234375 21.863281 -19.179688 22.75 -18.578125 C 23.632812 -17.972656 24.988281 -17.972656 26.8125 -18.578125 C 28.632812 -19.179688 30.453125 -20.335938 32.265625 -22.046875 C 34.085938 -23.765625 35.625 -25.332031 36.875 -26.75 C 38.132812 -28.164062 39.195312 -28.625 40.0625 -28.125 Z M 40.0625 -28.125 "/></g></g></g><g fill="#ff3131" fill-opacity="1"><g transform="translate(769.369308, 351.53901)"><g><path d="M 26.71875 -26.34375 C 27.9375 -27.550781 28.945312 -28.226562 29.75 -28.375 C 30.5625 -28.519531 31.085938 -28.390625 31.328125 -27.984375 C 31.566406 -27.585938 31.410156 -27.039062 30.859375 -26.34375 C 27.617188 -22.4375 23.992188 -19.066406 19.984375 -16.234375 C 15.972656 -13.398438 11.84375 -11.757812 7.59375 -11.3125 C 3.34375 -10.875 0.773438 -13.195312 -0.109375 -18.28125 C -0.773438 -23.320312 2.273438 -33.585938 9.046875 -49.078125 C 15.828125 -64.578125 21.1875 -77.28125 25.125 -87.1875 C 25.457031 -88.070312 25.953125 -88.84375 26.609375 -89.5 C 27.492188 -90.382812 28.546875 -90.585938 29.765625 -90.109375 C 30.171875 -89.921875 30.570312 -89.625 30.96875 -89.21875 C 31.375 -88.820312 31.503906 -88.109375 31.359375 -87.078125 C 13.953125 -45.773438 5.523438 -23.316406 6.078125 -19.703125 C 6.628906 -16.097656 8.957031 -15.207031 13.0625 -17.03125 C 17.164062 -18.851562 20.328125 -20.710938 22.546875 -22.609375 C 24.773438 -24.503906 26.164062 -25.75 26.71875 -26.34375 Z M 26.71875 -26.34375 "/></g></g></g><g fill="#ff3131" fill-opacity="1"><g transform="translate(794.660352, 351.53901)"><g><path d="M 40.0625 -28.125 C 40.925781 -27.632812 40.988281 -26.429688 40.25 -24.515625 C 39.1875 -23.117188 38.046875 -21.8125 36.828125 -20.59375 C 35.609375 -19.375 34.285156 -18.289062 32.859375 -17.34375 C 32.742188 -17.34375 32.6875 -17.304688 32.6875 -17.234375 C 31.726562 -16.566406 30.71875 -15.992188 29.65625 -15.515625 C 20.851562 -12.347656 16.359375 -14.207031 16.171875 -21.09375 C 12.609375 -18 10.21875 -16.101562 9 -15.40625 C 6.09375 -13.675781 2.945312 -12.898438 -0.4375 -13.078125 C -2.945312 -13.234375 -4.648438 -14 -5.546875 -15.375 C -6.453125 -16.757812 -6.367188 -18.628906 -5.296875 -20.984375 C -3.679688 -24.703125 -1.382812 -28.015625 1.59375 -30.921875 C 5.09375 -34.160156 8.976562 -36.753906 13.25 -38.703125 C 15.53125 -39.847656 17.921875 -40.289062 20.421875 -40.03125 C 22.929688 -39.882812 24.441406 -38.46875 24.953125 -35.78125 C 25.171875 -34.96875 24.96875 -34.25 24.34375 -33.625 C 23.539062 -32.882812 22.601562 -32.71875 21.53125 -33.125 C 21.457031 -33.125 21.351562 -33.140625 21.21875 -33.171875 C 21.09375 -33.210938 20.992188 -33.269531 20.921875 -33.34375 C 19.859375 -34.820312 18.78125 -35.441406 17.6875 -35.203125 C 16.601562 -34.960938 15.457031 -34.472656 14.25 -33.734375 C 8.582031 -30.421875 4.363281 -25.800781 1.59375 -19.875 C 1.445312 -19.613281 1.351562 -19.328125 1.3125 -19.015625 C 1.28125 -18.703125 1.375 -18.457031 1.59375 -18.28125 C 2.257812 -18.050781 3 -18.09375 3.8125 -18.40625 C 4.625 -18.726562 5.429688 -19.191406 6.234375 -19.796875 C 7.046875 -20.398438 7.726562 -20.90625 8.28125 -21.3125 C 8.351562 -21.425781 8.390625 -21.484375 8.390625 -21.484375 C 11.078125 -23.722656 13.707031 -26.019531 16.28125 -28.375 C 17.425781 -29.59375 18.847656 -30.273438 20.546875 -30.421875 C 22.972656 -30.421875 23.984375 -29.335938 23.578125 -27.171875 C 23.359375 -26.359375 23.117188 -25.546875 22.859375 -24.734375 C 21.898438 -21.234375 21.863281 -19.179688 22.75 -18.578125 C 23.632812 -17.972656 24.988281 -17.972656 26.8125 -18.578125 C 28.632812 -19.179688 30.453125 -20.335938 32.265625 -22.046875 C 34.085938 -23.765625 35.625 -25.332031 36.875 -26.75 C 38.132812 -28.164062 39.195312 -28.625 40.0625 -28.125 Z M 40.0625 -28.125 "/></g></g></g></svg>