<svg xmlns="http://www.w3.org/2000/svg" xmlns:xlink="http://www.w3.org/1999/xlink" width="603" zoomAndPan="magnify" viewBox="0 0 452.25 290.999983" height="388" preserveAspectRatio="xMidYMid meet" version="1.0"><defs><g/></defs><g fill="#000000" fill-opacity="1"><g transform="translate(107.012086, 187.781794)"><g><path d="M 87.828125 1.21875 L 16.375 -91.765625 L 16.375 -25.328125 C 16.375 -19.566406 16.78125 -15.117188 17.59375 -11.984375 C 18.40625 -8.847656 19.59375 -6.546875 21.15625 -5.078125 C 22.726562 -3.609375 24.625 -2.570312 26.84375 -1.96875 L 26.84375 0 L 7.890625 0 L 7.890625 -1.96875 C 10.210938 -2.675781 11.800781 -4.191406 12.65625 -6.515625 C 13.519531 -8.847656 13.953125 -13.097656 13.953125 -19.265625 L 13.953125 -86.921875 C 13.953125 -93.191406 13.394531 -97.460938 12.28125 -99.734375 C 11.175781 -102.003906 9.101562 -103.492188 6.0625 -104.203125 L 6.0625 -106.1875 L 20.9375 -106.1875 L 87.21875 -20.328125 L 87.21875 -80.84375 C 87.21875 -86.613281 86.8125 -91.085938 86 -94.265625 C 85.195312 -97.453125 84.035156 -99.753906 82.515625 -101.171875 C 81.003906 -102.585938 79.082031 -103.597656 76.75 -104.203125 L 76.75 -106.1875 L 95.859375 -106.1875 L 95.859375 -104.203125 C 93.535156 -103.492188 91.941406 -102.003906 91.078125 -99.734375 C 90.222656 -97.460938 89.796875 -93.191406 89.796875 -86.921875 L 89.796875 1.21875 Z M 87.828125 1.21875 "/></g></g></g><g fill="#000000" fill-opacity="1"><g transform="translate(208.942389, 187.781794)"><g/></g></g><g fill="#000000" fill-opacity="1"><g transform="translate(240.795611, 187.781794)"><g><path d="M 7.734375 0 L 7.734375 -1.96875 C 10.054688 -2.675781 11.644531 -4.191406 12.5 -6.515625 C 13.363281 -8.847656 13.796875 -13.097656 13.796875 -19.265625 L 13.796875 -86.921875 C 13.796875 -93.191406 13.363281 -97.460938 12.5 -99.734375 C 11.644531 -102.003906 10.054688 -103.492188 7.734375 -104.203125 L 7.734375 -106.1875 L 32.3125 -106.1875 L 32.3125 -104.203125 C 29.988281 -103.492188 28.394531 -102.003906 27.53125 -99.734375 C 26.664062 -97.460938 26.234375 -93.191406 26.234375 -86.921875 L 26.234375 -48.390625 L 65.984375 -89.046875 C 70.734375 -93.992188 73.488281 -97.753906 74.25 -100.328125 C 75.007812 -102.910156 73.921875 -104.40625 70.984375 -104.8125 L 70.984375 -106.1875 L 92.078125 -106.1875 L 92.078125 -104.203125 C 89.648438 -103.492188 86.816406 -102.457031 83.578125 -101.09375 C 80.335938 -99.726562 76.546875 -96.820312 72.203125 -92.375 L 39.890625 -59.3125 L 43.375 -59.46875 C 49.039062 -59.863281 53.664062 -59.582031 57.25 -58.625 C 60.84375 -57.664062 63.828125 -55.921875 66.203125 -53.390625 C 68.585938 -50.867188 70.816406 -47.429688 72.890625 -43.078125 C 74.960938 -38.734375 77.257812 -33.320312 79.78125 -26.84375 C 82.414062 -20.375 84.59375 -15.34375 86.3125 -11.75 C 88.03125 -8.164062 89.617188 -5.664062 91.078125 -4.25 C 92.546875 -2.832031 94.09375 -2.125 95.71875 -2.125 C 96.21875 -2.125 96.671875 -2.125 97.078125 -2.125 C 97.484375 -2.125 97.890625 -2.175781 98.296875 -2.28125 L 98.296875 -0.296875 C 96.984375 0.0976562 95.539062 0.375 93.96875 0.53125 C 92.40625 0.6875 90.8125 0.765625 89.1875 0.765625 C 85.550781 0.765625 82.617188 -0.015625 80.390625 -1.578125 C 78.171875 -3.148438 76.175781 -5.734375 74.40625 -9.328125 C 72.632812 -12.921875 70.535156 -17.648438 68.109375 -23.515625 C 65.578125 -29.679688 63.425781 -34.910156 61.65625 -39.203125 C 59.882812 -43.503906 58.085938 -46.96875 56.265625 -49.59375 C 54.453125 -52.226562 52.332031 -54.125 49.90625 -55.28125 C 47.476562 -56.445312 44.34375 -56.976562 40.5 -56.875 L 37.46875 -56.875 L 26.234375 -45.359375 L 26.234375 -19.265625 C 26.234375 -13.097656 26.664062 -8.847656 27.53125 -6.515625 C 28.394531 -4.191406 29.988281 -2.675781 32.3125 -1.96875 L 32.3125 0 Z M 7.734375 0 "/></g></g></g><g fill="#ff3131" fill-opacity="1"><g transform="translate(69.505521, 158.894865)"><g><path d="M 150.71875 -70.65625 C 150.25 -70.550781 149.820312 -70.566406 149.4375 -70.703125 C 149.0625 -70.835938 148.710938 -71.003906 148.390625 -71.203125 C 148.234375 -71.273438 148.097656 -71.351562 147.984375 -71.4375 C 143.398438 -73.925781 138.53125 -75.789062 133.375 -77.03125 C 119.988281 -80.238281 106.347656 -78.90625 92.453125 -73.03125 C 87.367188 -70.894531 82.5 -68.320312 77.84375 -65.3125 C 73.195312 -62.3125 68.660156 -59.023438 64.234375 -55.453125 C 57.109375 -49.679688 50.539062 -43.351562 44.53125 -36.46875 C 38.53125 -29.59375 33.003906 -22.257812 27.953125 -14.46875 C 26.109375 -11.695312 24.34375 -8.890625 22.65625 -6.046875 C 22.613281 -5.953125 22.566406 -5.875 22.515625 -5.8125 C 21.222656 -3.789062 20.160156 -1.644531 19.328125 0.625 C 18.929688 1.6875 18.4375 2.691406 17.84375 3.640625 C 17.125 4.898438 16.132812 5.378906 14.875 5.078125 C 14.15625 4.910156 13.859375 4.453125 13.984375 3.703125 C 14.054688 3.140625 14.226562 2.609375 14.5 2.109375 C 15.851562 -0.554688 17.046875 -3.253906 18.078125 -5.984375 C 19.109375 -8.710938 20.078125 -11.460938 20.984375 -14.234375 C 21.210938 -14.953125 21.453125 -15.644531 21.703125 -16.3125 C 27.117188 -32.1875 32.144531 -48.171875 36.78125 -64.265625 C 36.863281 -64.609375 36.925781 -64.957031 36.96875 -65.3125 C 36.96875 -65.476562 36.984375 -65.660156 37.015625 -65.859375 C 36.585938 -65.816406 36.253906 -65.675781 36.015625 -65.4375 C 35.785156 -65.195312 35.585938 -64.921875 35.421875 -64.609375 C 35.390625 -64.484375 35.328125 -64.367188 35.234375 -64.265625 C 34.960938 -63.867188 34.710938 -63.441406 34.484375 -62.984375 C 31.847656 -58.878906 29.226562 -54.75 26.625 -50.59375 C 22.550781 -43.9375 18.472656 -37.28125 14.390625 -30.625 C 8.484375 -21.007812 2.546875 -11.367188 -3.421875 -1.703125 C -4.742188 0.441406 -6.132812 2.519531 -7.59375 4.53125 C -7.945312 5.050781 -8.28125 5.546875 -8.59375 6.015625 C -9.144531 6.929688 -9.914062 7.488281 -10.90625 7.6875 C -11.195312 7.726562 -11.457031 7.71875 -11.6875 7.65625 C -11.925781 7.59375 -12.082031 7.441406 -12.15625 7.203125 C -12.238281 7.046875 -12.238281 6.859375 -12.15625 6.640625 C -12.082031 6.421875 -11.984375 6.234375 -11.859375 6.078125 C 2.398438 -17.253906 16.695312 -40.554688 31.03125 -63.828125 C 32.34375 -65.898438 33.726562 -67.925781 35.1875 -69.90625 C 35.507812 -70.332031 35.804688 -70.765625 36.078125 -71.203125 C 36.898438 -72.421875 37.988281 -73.210938 39.34375 -73.578125 C 40.164062 -73.734375 40.816406 -73.613281 41.296875 -73.21875 C 41.773438 -72.820312 41.992188 -72.1875 41.953125 -71.3125 C 41.722656 -68.738281 41.210938 -66.191406 40.421875 -63.671875 C 36.492188 -50.109375 32.289062 -36.644531 27.8125 -23.28125 C 27.769531 -23.113281 27.71875 -22.96875 27.65625 -22.84375 C 27.488281 -22.445312 27.375 -22.050781 27.3125 -21.65625 C 27.25 -21.257812 27.332031 -20.828125 27.5625 -20.359375 C 27.882812 -20.785156 28.210938 -21.195312 28.546875 -21.59375 C 29.203125 -22.425781 29.828125 -23.253906 30.421875 -24.078125 C 37.484375 -34.066406 45.523438 -43.125 54.546875 -51.25 C 59.722656 -55.90625 65.097656 -60.203125 70.671875 -64.140625 C 76.242188 -68.085938 82.097656 -71.46875 88.234375 -74.28125 C 100.910156 -79.945312 113.640625 -82.050781 126.421875 -80.59375 C 134.503906 -79.601562 142.023438 -77.265625 148.984375 -73.578125 C 149.148438 -73.503906 149.332031 -73.421875 149.53125 -73.328125 C 149.882812 -73.171875 150.21875 -72.992188 150.53125 -72.796875 C 150.851562 -72.597656 151.113281 -72.300781 151.3125 -71.90625 C 151.34375 -71.832031 151.359375 -71.726562 151.359375 -71.59375 C 151.359375 -71.457031 151.34375 -71.328125 151.3125 -71.203125 C 151.238281 -71.078125 151.148438 -70.960938 151.046875 -70.859375 C 150.953125 -70.765625 150.84375 -70.695312 150.71875 -70.65625 Z M 150.71875 -70.65625 "/></g></g></g><g fill="#ff3131" fill-opacity="1"><g transform="translate(107.554162, 158.894865)"><g><path d="M 10.71875 -11.375 C 9.757812 -10.238281 8.625 -9.191406 7.3125 -8.234375 C 6 -7.273438 4.515625 -6.628906 2.859375 -6.296875 C 1.203125 -5.972656 -0.0820312 -6.097656 -1 -6.671875 C -1.914062 -7.242188 -2.09375 -8.519531 -1.53125 -10.5 C -0.8125 -12.550781 0.175781 -14.503906 1.4375 -16.359375 C 1.71875 -16.753906 2.128906 -17.035156 2.671875 -17.203125 C 3.066406 -17.285156 3.410156 -17.210938 3.703125 -16.984375 C 4.003906 -16.765625 4.117188 -16.484375 4.046875 -16.140625 C 3.773438 -15.492188 3.476562 -14.847656 3.15625 -14.203125 C 2.832031 -13.554688 2.617188 -13.132812 2.515625 -12.9375 C 1.878906 -11.78125 1.4375 -10.570312 1.1875 -9.3125 C 1.1875 -8.59375 2.148438 -8.546875 4.078125 -9.171875 C 6.003906 -9.804688 7.875 -10.960938 9.6875 -12.640625 C 11.507812 -14.328125 12.378906 -14.820312 12.296875 -14.125 C 12.210938 -13.4375 11.6875 -12.519531 10.71875 -11.375 Z M 6.015625 -20.40625 C 5.929688 -20.332031 5.75 -20.242188 5.46875 -20.140625 C 5.1875 -20.046875 4.890625 -19.976562 4.578125 -19.9375 C 4.265625 -19.894531 4.015625 -19.941406 3.828125 -20.078125 C 3.648438 -20.222656 3.644531 -20.515625 3.8125 -20.953125 C 4.09375 -21.710938 4.390625 -22.375 4.703125 -22.9375 C 5.023438 -23.5 5.4375 -24.125 5.9375 -24.8125 C 6.257812 -25.113281 6.609375 -25.28125 6.984375 -25.3125 C 7.367188 -25.34375 7.6875 -25.242188 7.9375 -25.015625 C 8.1875 -24.785156 8.257812 -24.472656 8.15625 -24.078125 C 7.757812 -22.660156 7.046875 -21.4375 6.015625 -20.40625 Z M 6.015625 -20.40625 "/></g></g></g><g fill="#ff3131" fill-opacity="1"><g transform="translate(116.979275, 158.894865)"><g><path d="M 20.921875 -13.765625 C 21.066406 -13.566406 21.101562 -13.367188 21.03125 -13.171875 C 20.957031 -12.972656 20.820312 -12.796875 20.625 -12.640625 C 19.382812 -11.523438 18 -10.632812 16.46875 -9.96875 C 13.84375 -8.738281 11.085938 -7.976562 8.203125 -7.6875 C 5.941406 -7.457031 3.785156 -7.800781 1.734375 -8.71875 C 0.972656 -9.0625 0.410156 -8.882812 0.046875 -8.1875 C -0.453125 -7.195312 -0.976562 -6.207031 -1.53125 -5.21875 C -1.800781 -4.65625 -2.101562 -4.078125 -2.4375 -3.484375 C -2.46875 -3.410156 -2.5 -3.328125 -2.53125 -3.234375 C -2.664062 -3.035156 -2.789062 -2.847656 -2.90625 -2.671875 C -3.019531 -2.492188 -3.222656 -2.367188 -3.515625 -2.296875 C -3.648438 -2.253906 -3.800781 -2.234375 -3.96875 -2.234375 C -4.132812 -2.234375 -4.28125 -2.269531 -4.40625 -2.34375 C -4.507812 -2.4375 -4.601562 -2.554688 -4.6875 -2.703125 C -4.769531 -2.859375 -4.8125 -3.019531 -4.8125 -3.1875 C -4.675781 -3.707031 -4.492188 -4.21875 -4.265625 -4.71875 C -3.765625 -5.875 -3.269531 -7.007812 -2.78125 -8.125 C -1.550781 -10.96875 -0.265625 -13.773438 1.078125 -16.546875 C 4.804688 -24.203125 8.351562 -31.925781 11.71875 -39.71875 C 11.988281 -40.476562 12.359375 -41.15625 12.828125 -41.75 C 13.179688 -42.175781 13.675781 -42.289062 14.3125 -42.09375 C 14.957031 -41.820312 15.15625 -41.363281 14.90625 -40.71875 C 14.46875 -39.382812 14 -38.039062 13.5 -36.6875 C 11 -30.519531 8.265625 -24.460938 5.296875 -18.515625 C 4.660156 -17.242188 4.429688 -16.441406 4.609375 -16.109375 C 4.796875 -15.773438 5.222656 -15.742188 5.890625 -16.015625 C 6.554688 -16.296875 7.328125 -16.671875 8.203125 -17.140625 C 8.835938 -17.503906 9.46875 -17.820312 10.09375 -18.09375 C 10.21875 -18.175781 10.335938 -18.238281 10.453125 -18.28125 C 11.203125 -18.707031 12.019531 -18.941406 12.90625 -18.984375 C 13.25 -18.984375 13.5 -18.828125 13.65625 -18.515625 C 13.75 -18.316406 13.753906 -18.144531 13.671875 -18 C 13.585938 -17.863281 13.484375 -17.757812 13.359375 -17.6875 C 12.015625 -16.894531 10.648438 -16.140625 9.265625 -15.421875 C 8.597656 -15.109375 7.90625 -14.773438 7.1875 -14.421875 C 6.476562 -14.097656 5.785156 -13.753906 5.109375 -13.390625 C 4.640625 -13.117188 4.207031 -12.804688 3.8125 -12.453125 C 2.894531 -11.492188 2.992188 -10.703125 4.109375 -10.078125 C 5.023438 -9.679688 5.945312 -9.472656 6.875 -9.453125 C 7.800781 -9.429688 8.722656 -9.539062 9.640625 -9.78125 C 12.484375 -10.40625 15.15625 -11.4375 17.65625 -12.875 C 17.851562 -12.988281 18.050781 -13.085938 18.25 -13.171875 C 18.71875 -13.484375 19.210938 -13.753906 19.734375 -13.984375 C 19.929688 -14.078125 20.144531 -14.113281 20.375 -14.09375 C 20.613281 -14.070312 20.796875 -13.960938 20.921875 -13.765625 Z M 20.921875 -13.765625 "/></g></g></g><g fill="#ff3131" fill-opacity="1"><g transform="translate(134.88343, 158.894865)"><g><path d="M 21.921875 -12.578125 C 21.597656 -12.296875 21.253906 -12.035156 20.890625 -11.796875 C 19.742188 -11.078125 18.707031 -10.507812 17.78125 -10.09375 C 16.851562 -9.6875 15.757812 -9.265625 14.5 -8.828125 C 12.625 -8.265625 11.421875 -8.390625 10.890625 -9.203125 C 10.359375 -10.015625 10.273438 -11.140625 10.640625 -12.578125 C 11.140625 -14.628906 11.429688 -16.128906 11.515625 -17.078125 C 11.597656 -18.035156 11.28125 -18.363281 10.5625 -18.0625 C 9.851562 -17.769531 8.566406 -16.789062 6.703125 -15.125 C 4.085938 -12.875 1.851562 -10.296875 0 -7.390625 C -0.226562 -6.992188 -0.515625 -6.671875 -0.859375 -6.421875 C -1.203125 -6.171875 -1.628906 -6.046875 -2.140625 -6.046875 C -2.617188 -6.046875 -2.96875 -6.171875 -3.1875 -6.421875 C -3.40625 -6.671875 -3.414062 -7.015625 -3.21875 -7.453125 C -2.15625 -9.796875 -1.066406 -12.117188 0.046875 -14.421875 C 1.960938 -18.410156 3.847656 -22.390625 5.703125 -26.359375 C 7.085938 -29.328125 8.453125 -32.296875 9.796875 -35.265625 C 10.628906 -37.003906 11.441406 -38.75 12.234375 -40.5 C 12.304688 -40.644531 12.382812 -40.796875 12.46875 -40.953125 C 12.539062 -41.148438 12.625 -41.347656 12.71875 -41.546875 C 12.820312 -41.742188 12.9375 -41.960938 13.0625 -42.203125 C 13.175781 -42.398438 13.378906 -42.5625 13.671875 -42.6875 C 13.972656 -42.8125 14.269531 -42.890625 14.5625 -42.921875 C 14.863281 -42.960938 15.09375 -42.945312 15.25 -42.875 C 15.488281 -42.71875 15.617188 -42.546875 15.640625 -42.359375 C 15.671875 -42.179688 15.640625 -41.992188 15.546875 -41.796875 C 15.515625 -41.765625 15.5 -41.703125 15.5 -41.609375 C 15.132812 -40.546875 14.753906 -39.519531 14.359375 -38.53125 C 12.078125 -33.019531 9.585938 -27.59375 6.890625 -22.25 C 6.691406 -21.882812 6.457031 -21.453125 6.1875 -20.953125 C 5.789062 -20.234375 5.421875 -19.523438 5.078125 -18.828125 C 4.734375 -18.140625 4.617188 -17.675781 4.734375 -17.4375 C 4.859375 -17.207031 5.394531 -17.390625 6.34375 -17.984375 C 6.632812 -18.179688 6.894531 -18.378906 7.125 -18.578125 C 7.882812 -19.078125 8.632812 -19.550781 9.375 -20 C 10.019531 -20.4375 10.738281 -20.671875 11.53125 -20.703125 C 13.414062 -20.828125 14.476562 -19.972656 14.71875 -18.140625 C 14.800781 -17.398438 14.769531 -16.671875 14.625 -15.953125 C 14.488281 -15.234375 14.320312 -14.523438 14.125 -13.828125 C 14.082031 -13.628906 14.046875 -13.429688 14.015625 -13.234375 C 13.691406 -12.003906 13.773438 -11.300781 14.265625 -11.125 C 14.765625 -10.945312 15.457031 -11.046875 16.34375 -11.421875 C 17.238281 -11.796875 18.144531 -12.253906 19.0625 -12.796875 C 19.6875 -13.117188 20.238281 -13.394531 20.71875 -13.625 C 21.195312 -13.863281 21.554688 -13.96875 21.796875 -13.9375 C 22.222656 -13.863281 22.414062 -13.6875 22.375 -13.40625 C 22.34375 -13.125 22.191406 -12.847656 21.921875 -12.578125 Z M 21.921875 -12.578125 "/></g></g></g><g fill="#ff3131" fill-opacity="1"><g transform="translate(154.380793, 158.894865)"><g><path d="M 10.71875 -11.375 C 9.757812 -10.238281 8.625 -9.191406 7.3125 -8.234375 C 6 -7.273438 4.515625 -6.628906 2.859375 -6.296875 C 1.203125 -5.972656 -0.0820312 -6.097656 -1 -6.671875 C -1.914062 -7.242188 -2.09375 -8.519531 -1.53125 -10.5 C -0.8125 -12.550781 0.175781 -14.503906 1.4375 -16.359375 C 1.71875 -16.753906 2.128906 -17.035156 2.671875 -17.203125 C 3.066406 -17.285156 3.410156 -17.210938 3.703125 -16.984375 C 4.003906 -16.765625 4.117188 -16.484375 4.046875 -16.140625 C 3.773438 -15.492188 3.476562 -14.847656 3.15625 -14.203125 C 2.832031 -13.554688 2.617188 -13.132812 2.515625 -12.9375 C 1.878906 -11.78125 1.4375 -10.570312 1.1875 -9.3125 C 1.1875 -8.59375 2.148438 -8.546875 4.078125 -9.171875 C 6.003906 -9.804688 7.875 -10.960938 9.6875 -12.640625 C 11.507812 -14.328125 12.378906 -14.820312 12.296875 -14.125 C 12.210938 -13.4375 11.6875 -12.519531 10.71875 -11.375 Z M 6.015625 -20.40625 C 5.929688 -20.332031 5.75 -20.242188 5.46875 -20.140625 C 5.1875 -20.046875 4.890625 -19.976562 4.578125 -19.9375 C 4.265625 -19.894531 4.015625 -19.941406 3.828125 -20.078125 C 3.648438 -20.222656 3.644531 -20.515625 3.8125 -20.953125 C 4.09375 -21.710938 4.390625 -22.375 4.703125 -22.9375 C 5.023438 -23.5 5.4375 -24.125 5.9375 -24.8125 C 6.257812 -25.113281 6.609375 -25.28125 6.984375 -25.3125 C 7.367188 -25.34375 7.6875 -25.242188 7.9375 -25.015625 C 8.1875 -24.785156 8.257812 -24.472656 8.15625 -24.078125 C 7.757812 -22.660156 7.046875 -21.4375 6.015625 -20.40625 Z M 6.015625 -20.40625 "/></g></g></g><g fill="#ff3131" fill-opacity="1"><g transform="translate(163.805908, 158.894865)"><g><path d="M 13.0625 -12.875 C 13.65625 -13.46875 14.148438 -13.800781 14.546875 -13.875 C 14.941406 -13.945312 15.195312 -13.882812 15.3125 -13.6875 C 15.4375 -13.488281 15.363281 -13.21875 15.09375 -12.875 C 13.507812 -10.96875 11.734375 -9.320312 9.765625 -7.9375 C 7.804688 -6.550781 5.785156 -5.75 3.703125 -5.53125 C 1.628906 -5.320312 0.378906 -6.457031 -0.046875 -8.9375 C -0.378906 -11.40625 1.109375 -16.425781 4.421875 -24 C 7.734375 -31.582031 10.351562 -37.796875 12.28125 -42.640625 C 12.445312 -43.066406 12.691406 -43.441406 13.015625 -43.765625 C 13.441406 -44.203125 13.953125 -44.300781 14.546875 -44.0625 C 14.742188 -43.976562 14.941406 -43.832031 15.140625 -43.625 C 15.335938 -43.425781 15.40625 -43.078125 15.34375 -42.578125 C 6.820312 -22.378906 2.695312 -11.398438 2.96875 -9.640625 C 3.238281 -7.878906 4.375 -7.441406 6.375 -8.328125 C 8.382812 -9.222656 9.929688 -10.132812 11.015625 -11.0625 C 12.109375 -11.988281 12.789062 -12.59375 13.0625 -12.875 Z M 13.0625 -12.875 "/></g></g></g><g fill="#ff3131" fill-opacity="1"><g transform="translate(176.174393, 158.894865)"><g/></g></g><g fill="#ff3131" fill-opacity="1"><g transform="translate(195.482726, 158.894865)"><g><path d="M 75.140625 6.671875 C 75.460938 6.953125 75.601562 7.257812 75.5625 7.59375 C 75.53125 7.925781 75.4375 8.226562 75.28125 8.5 C 75.28125 8.5625 75.28125 8.59375 75.28125 8.59375 C 74.125 11.300781 72.390625 13.347656 70.078125 14.734375 C 67.765625 16.128906 64.976562 16.707031 61.71875 16.46875 C 58.59375 16.164062 56.132812 15.070312 54.34375 13.1875 C 52.5625 11.3125 51.539062 8.785156 51.28125 5.609375 C 51.144531 4.066406 51.195312 2.53125 51.4375 1 C 51.6875 -0.53125 51.992188 -2.0625 52.359375 -3.59375 C 52.585938 -4.539062 52.820312 -5.492188 53.0625 -6.453125 C 53.488281 -8.035156 53.863281 -9.640625 54.1875 -11.265625 C 54.65625 -13.796875 54.382812 -15.554688 53.375 -16.546875 C 52.375 -17.535156 50.945312 -18.0625 49.09375 -18.125 C 47.25 -18.1875 45.382812 -18.09375 43.5 -17.84375 C 42.414062 -17.738281 41.425781 -17.664062 40.53125 -17.625 C 40.164062 -17.625 39.882812 -17.523438 39.6875 -17.328125 C 39.488281 -17.128906 39.3125 -16.90625 39.15625 -16.65625 C 38.195312 -14.96875 37.269531 -13.25 36.375 -11.5 C 27.96875 4.34375 18.859375 19.769531 9.046875 34.78125 C 7.535156 37.0625 5.96875 39.316406 4.34375 41.546875 C 3.988281 42.085938 3.582031 42.566406 3.125 42.984375 C 2.675781 43.410156 2.128906 43.726562 1.484375 43.9375 C 0.296875 44.269531 -0.640625 44.1875 -1.328125 43.6875 C -2.023438 43.195312 -2.347656 42.320312 -2.296875 41.0625 C -2.222656 39.601562 -2.003906 38.140625 -1.640625 36.671875 C 0.492188 27.722656 3.253906 20.0625 6.640625 13.6875 C 10.023438 7.3125 14.109375 1.550781 18.890625 -3.59375 C 23.679688 -8.738281 29.210938 -13.929688 35.484375 -19.171875 C 36.472656 -19.960938 37.265625 -20.9375 37.859375 -22.09375 C 38.679688 -23.675781 39.507812 -25.257812 40.34375 -26.84375 C 43.394531 -32.726562 46.40625 -38.628906 49.375 -44.546875 C 52.351562 -50.472656 55.164062 -56.46875 57.8125 -62.53125 C 60.414062 -68.582031 61.757812 -73.101562 61.84375 -76.09375 C 61.925781 -79.09375 60.539062 -80.675781 57.6875 -80.84375 C 54.832031 -81.019531 50.335938 -79.882812 44.203125 -77.4375 C 38.191406 -75.019531 32.304688 -72.328125 26.546875 -69.359375 C 20.785156 -66.390625 15.101562 -63.222656 9.5 -59.859375 C 7.414062 -58.640625 4.835938 -57.015625 1.765625 -54.984375 C -1.296875 -52.960938 -4.320312 -50.785156 -7.3125 -48.453125 C -10.300781 -46.117188 -12.769531 -43.835938 -14.71875 -41.609375 C -16.132812 -39.910156 -16.488281 -38.753906 -15.78125 -38.140625 C -15.070312 -37.535156 -13.644531 -37.1875 -11.5 -37.09375 C -10.476562 -37.0625 -8.726562 -37.050781 -6.25 -37.0625 C -3.769531 -37.082031 -1.007812 -37.210938 2.03125 -37.453125 C 3.738281 -37.578125 5.398438 -37.703125 7.015625 -37.828125 C 9.460938 -38.054688 11.5625 -38.210938 13.3125 -38.296875 C 15.0625 -38.378906 16.097656 -38.273438 16.421875 -37.984375 C 16.523438 -37.679688 15.3125 -37.335938 12.78125 -36.953125 C 10.25 -36.578125 7.128906 -36.234375 3.421875 -35.921875 C -0.285156 -35.609375 -3.878906 -35.421875 -7.359375 -35.359375 C -10.835938 -35.296875 -13.46875 -35.425781 -15.25 -35.75 C -18.382812 -36.414062 -19.8125 -37.628906 -19.53125 -39.390625 C -19.25 -41.160156 -17.738281 -43.289062 -15 -45.78125 C -12.269531 -48.269531 -8.789062 -50.914062 -4.5625 -53.71875 C -0.332031 -56.53125 4.203125 -59.335938 9.046875 -62.140625 C 13.898438 -64.941406 18.59375 -67.535156 23.125 -69.921875 C 27.664062 -72.316406 31.578125 -74.304688 34.859375 -75.890625 C 38.148438 -77.484375 40.375 -78.507812 41.53125 -78.96875 C 46.238281 -80.882812 50.382812 -82.175781 53.96875 -82.84375 C 57.550781 -83.519531 60.351562 -83.34375 62.375 -82.3125 C 64.40625 -81.28125 65.425781 -79.175781 65.4375 -76 C 65.457031 -72.832031 64.265625 -68.363281 61.859375 -62.59375 C 59.910156 -58 57.835938 -53.453125 55.640625 -48.953125 C 53.453125 -44.453125 51.222656 -39.96875 48.953125 -35.5 C 48.085938 -33.789062 47.195312 -32.03125 46.28125 -30.21875 C 45.769531 -29.226562 45.21875 -28.171875 44.625 -27.046875 C 45.289062 -27.210938 45.832031 -27.425781 46.25 -27.6875 C 46.664062 -27.945312 47.035156 -28.210938 47.359375 -28.484375 C 47.523438 -28.609375 47.707031 -28.726562 47.90625 -28.84375 C 55.820312 -34.632812 64.46875 -40.46875 73.84375 -46.34375 C 83.21875 -52.21875 93.078125 -57.695312 103.421875 -62.78125 C 113.765625 -67.875 124.335938 -72.101562 135.140625 -75.46875 C 145.953125 -78.832031 156.742188 -80.910156 167.515625 -81.703125 C 178.296875 -82.492188 188.816406 -81.550781 199.078125 -78.875 C 199.179688 -78.832031 199.289062 -78.726562 199.40625 -78.5625 C 199.53125 -78.40625 199.59375 -78.242188 199.59375 -78.078125 C 199.59375 -77.847656 199.503906 -77.664062 199.328125 -77.53125 C 199.160156 -77.394531 198.929688 -77.328125 198.640625 -77.328125 C 198.441406 -77.273438 198.226562 -77.296875 198 -77.390625 C 189.445312 -79.597656 180.582031 -80.445312 171.40625 -79.9375 C 162.238281 -79.425781 152.941406 -77.878906 143.515625 -75.296875 C 134.097656 -72.722656 124.765625 -69.414062 115.515625 -65.375 C 106.273438 -61.332031 97.328125 -56.878906 88.671875 -52.015625 C 80.015625 -47.148438 71.875 -42.160156 64.25 -37.046875 C 56.625 -31.929688 49.722656 -27.015625 43.546875 -22.296875 C 43.515625 -22.265625 43.5 -22.25 43.5 -22.25 C 43.007812 -21.945312 42.546875 -21.59375 42.109375 -21.1875 C 41.679688 -20.789062 41.484375 -20.453125 41.515625 -20.171875 C 41.554688 -19.898438 42.054688 -19.78125 43.015625 -19.8125 C 43.296875 -19.8125 43.570312 -19.8125 43.84375 -19.8125 C 45.59375 -19.976562 47.425781 -20.03125 49.34375 -19.96875 C 51.257812 -19.90625 53.007812 -19.578125 54.59375 -18.984375 C 56.894531 -18.023438 58.046875 -16.320312 58.046875 -13.875 C 58.015625 -12.726562 57.875 -11.601562 57.625 -10.5 C 57.226562 -8.664062 56.8125 -6.835938 56.375 -5.015625 C 55.945312 -3.035156 55.515625 -1.039062 55.078125 0.96875 C 54.554688 3.34375 54.640625 5.71875 55.328125 8.09375 C 55.992188 10.144531 57.035156 11.738281 58.453125 12.875 C 59.878906 14.007812 61.503906 14.601562 63.328125 14.65625 C 65.148438 14.71875 66.972656 14.148438 68.796875 12.953125 C 70.148438 12.054688 71.238281 10.898438 72.0625 9.484375 C 72.226562 9.148438 72.390625 8.820312 72.546875 8.5 C 72.660156 8.195312 72.796875 7.898438 72.953125 7.609375 C 73.273438 7.109375 73.644531 6.765625 74.0625 6.578125 C 74.476562 6.398438 74.835938 6.429688 75.140625 6.671875 Z M 31.375 -9.96875 C 31.40625 -10.039062 31.46875 -10.140625 31.5625 -10.265625 C 31.707031 -10.535156 31.890625 -10.867188 32.109375 -11.265625 C 32.335938 -11.660156 32.507812 -12.035156 32.625 -12.390625 C 32.75 -12.753906 32.757812 -12.972656 32.65625 -13.046875 C 32.5625 -13.128906 32.269531 -12.972656 31.78125 -12.578125 C 23.71875 -6.242188 17.375 0.867188 12.75 8.765625 C 8.132812 16.671875 4.675781 25.738281 2.375 35.96875 C 2.175781 36.863281 2.15625 37.359375 2.3125 37.453125 C 2.476562 37.554688 2.738281 37.421875 3.09375 37.046875 C 3.457031 36.679688 3.804688 36.25 4.140625 35.75 C 4.472656 35.257812 4.722656 34.914062 4.890625 34.71875 C 9.609375 27.425781 14.179688 20.066406 18.609375 12.640625 C 23.035156 5.222656 27.289062 -2.3125 31.375 -9.96875 Z M 31.375 -9.96875 "/></g></g></g><g fill="#ff3131" fill-opacity="1"><g transform="translate(260.858726, 158.894865)"><g><path d="M 19.578125 -13.75 C 20.003906 -13.507812 20.039062 -12.921875 19.6875 -11.984375 C 19.164062 -11.304688 18.609375 -10.671875 18.015625 -10.078125 C 17.421875 -9.484375 16.769531 -8.953125 16.0625 -8.484375 C 16.007812 -8.484375 15.984375 -8.460938 15.984375 -8.421875 C 15.515625 -8.097656 15.019531 -7.820312 14.5 -7.59375 C 10.195312 -6.039062 8 -6.945312 7.90625 -10.3125 C 6.164062 -8.800781 5 -7.875 4.40625 -7.53125 C 2.976562 -6.6875 1.4375 -6.3125 -0.21875 -6.40625 C -1.4375 -6.46875 -2.265625 -6.835938 -2.703125 -7.515625 C -3.148438 -8.191406 -3.113281 -9.109375 -2.59375 -10.265625 C -1.800781 -12.078125 -0.675781 -13.695312 0.78125 -15.125 C 2.488281 -16.707031 4.390625 -17.972656 6.484375 -18.921875 C 7.597656 -19.484375 8.765625 -19.703125 9.984375 -19.578125 C 11.210938 -19.503906 11.953125 -18.8125 12.203125 -17.5 C 12.304688 -17.101562 12.207031 -16.75 11.90625 -16.4375 C 11.507812 -16.082031 11.050781 -16.003906 10.53125 -16.203125 C 10.488281 -16.203125 10.4375 -16.207031 10.375 -16.21875 C 10.3125 -16.238281 10.265625 -16.269531 10.234375 -16.3125 C 9.710938 -17.03125 9.1875 -17.328125 8.65625 -17.203125 C 8.125 -17.085938 7.5625 -16.851562 6.96875 -16.5 C 4.195312 -14.875 2.132812 -12.613281 0.78125 -9.71875 C 0.707031 -9.59375 0.660156 -9.453125 0.640625 -9.296875 C 0.628906 -9.148438 0.675781 -9.03125 0.78125 -8.9375 C 1.101562 -8.832031 1.460938 -8.851562 1.859375 -9 C 2.253906 -9.15625 2.648438 -9.378906 3.046875 -9.671875 C 3.441406 -9.972656 3.773438 -10.222656 4.046875 -10.421875 C 4.085938 -10.472656 4.109375 -10.5 4.109375 -10.5 C 5.421875 -11.601562 6.707031 -12.726562 7.96875 -13.875 C 8.519531 -14.46875 9.210938 -14.800781 10.046875 -14.875 C 11.234375 -14.875 11.726562 -14.34375 11.53125 -13.28125 C 11.414062 -12.882812 11.296875 -12.488281 11.171875 -12.09375 C 10.703125 -10.382812 10.679688 -9.378906 11.109375 -9.078125 C 11.546875 -8.785156 12.207031 -8.785156 13.09375 -9.078125 C 13.988281 -9.378906 14.882812 -9.945312 15.78125 -10.78125 C 16.675781 -11.625 17.425781 -12.390625 18.03125 -13.078125 C 18.644531 -13.773438 19.160156 -14 19.578125 -13.75 Z M 19.578125 -13.75 "/></g></g></g><g fill="#ff3131" fill-opacity="1"><g transform="translate(277.655745, 158.894865)"><g><path d="M 23.96875 -14.203125 C 24.351562 -14.109375 24.550781 -13.972656 24.5625 -13.796875 C 24.582031 -13.617188 24.59375 -13.53125 24.59375 -13.53125 C 24.164062 -12.769531 23.671875 -12.078125 23.109375 -11.453125 C 21.835938 -10.023438 20.351562 -8.890625 18.65625 -8.046875 C 17.832031 -7.578125 16.894531 -7.328125 15.84375 -7.296875 C 13.4375 -7.253906 12.332031 -8.421875 12.53125 -10.796875 C 12.613281 -11.304688 12.726562 -11.800781 12.875 -12.28125 C 12.96875 -12.519531 13.03125 -12.753906 13.0625 -12.984375 C 13.300781 -13.847656 13.367188 -14.328125 13.265625 -14.421875 C 13.171875 -14.523438 12.890625 -14.28125 12.421875 -13.6875 C 12.296875 -13.582031 12.175781 -13.46875 12.0625 -13.34375 C 11.34375 -12.476562 10.609375 -11.628906 9.859375 -10.796875 C 8.472656 -9.210938 6.890625 -7.878906 5.109375 -6.796875 C 4.046875 -6.171875 2.921875 -5.84375 1.734375 -5.8125 C -0.210938 -5.71875 -1.300781 -6.609375 -1.53125 -8.484375 C -1.625 -9.234375 -1.59375 -9.976562 -1.4375 -10.71875 C -0.644531 -13.78125 0.9375 -16.109375 3.3125 -17.703125 C 5.695312 -19.304688 8.414062 -19.875 11.46875 -19.40625 C 12.332031 -19.15625 12.960938 -19.390625 13.359375 -20.109375 C 13.523438 -20.378906 13.6875 -20.660156 13.84375 -20.953125 C 14.675781 -22.367188 15.488281 -23.789062 16.28125 -25.21875 C 17.769531 -27.957031 19.273438 -30.710938 20.796875 -33.484375 C 22.015625 -35.660156 23.238281 -37.851562 24.46875 -40.0625 C 24.820312 -40.75 25.21875 -41.410156 25.65625 -42.046875 C 25.851562 -42.347656 26.097656 -42.53125 26.390625 -42.59375 C 26.691406 -42.65625 27.003906 -42.6875 27.328125 -42.6875 C 27.398438 -42.6875 27.476562 -42.6875 27.5625 -42.6875 C 27.925781 -42.6875 28.210938 -42.59375 28.421875 -42.40625 C 28.640625 -42.226562 28.6875 -41.988281 28.5625 -41.6875 C 28.332031 -40.925781 28.054688 -40.207031 27.734375 -39.53125 C 26.078125 -36.21875 24.515625 -32.863281 23.046875 -29.46875 C 21.578125 -26.070312 20.132812 -22.65625 18.71875 -19.21875 C 18.25 -18.03125 17.769531 -16.84375 17.28125 -15.65625 C 16.6875 -14.269531 16.191406 -12.847656 15.796875 -11.390625 C 15.691406 -11.066406 15.640625 -10.75 15.640625 -10.4375 C 15.640625 -10.125 15.789062 -9.847656 16.09375 -9.609375 C 16.289062 -9.484375 16.492188 -9.460938 16.703125 -9.546875 C 16.921875 -9.628906 17.160156 -9.722656 17.421875 -9.828125 C 17.453125 -9.878906 17.503906 -9.925781 17.578125 -9.96875 C 19.285156 -10.957031 20.851562 -12.144531 22.28125 -13.53125 C 22.507812 -13.757812 22.753906 -13.953125 23.015625 -14.109375 C 23.273438 -14.273438 23.59375 -14.304688 23.96875 -14.203125 Z M 10.640625 -15.953125 C 10.835938 -16.273438 10.894531 -16.582031 10.8125 -16.875 C 10.726562 -17.175781 10.523438 -17.398438 10.203125 -17.546875 C 9.535156 -17.910156 8.828125 -17.957031 8.078125 -17.6875 C 6.222656 -17.125 4.664062 -16.0625 3.40625 -14.5 C 2.15625 -12.9375 1.476562 -11.207031 1.375 -9.3125 C 1.414062 -9.226562 1.4375 -9.164062 1.4375 -9.125 C 1.4375 -8.96875 1.4375 -8.804688 1.4375 -8.640625 C 1.59375 -7.773438 2.125 -7.609375 3.03125 -8.140625 C 3.945312 -8.671875 4.96875 -9.53125 6.09375 -10.71875 C 7.21875 -11.90625 8.222656 -13.035156 9.109375 -14.109375 C 10.003906 -15.179688 10.515625 -15.796875 10.640625 -15.953125 Z M 10.640625 -15.953125 "/></g></g></g><g fill="#ff3131" fill-opacity="1"><g transform="translate(299.124345, 158.894865)"><g><path d="M 19.578125 -13.75 C 20.003906 -13.507812 20.039062 -12.921875 19.6875 -11.984375 C 19.164062 -11.304688 18.609375 -10.671875 18.015625 -10.078125 C 17.421875 -9.484375 16.769531 -8.953125 16.0625 -8.484375 C 16.007812 -8.484375 15.984375 -8.460938 15.984375 -8.421875 C 15.515625 -8.097656 15.019531 -7.820312 14.5 -7.59375 C 10.195312 -6.039062 8 -6.945312 7.90625 -10.3125 C 6.164062 -8.800781 5 -7.875 4.40625 -7.53125 C 2.976562 -6.6875 1.4375 -6.3125 -0.21875 -6.40625 C -1.4375 -6.46875 -2.265625 -6.835938 -2.703125 -7.515625 C -3.148438 -8.191406 -3.113281 -9.109375 -2.59375 -10.265625 C -1.800781 -12.078125 -0.675781 -13.695312 0.78125 -15.125 C 2.488281 -16.707031 4.390625 -17.972656 6.484375 -18.921875 C 7.597656 -19.484375 8.765625 -19.703125 9.984375 -19.578125 C 11.210938 -19.503906 11.953125 -18.8125 12.203125 -17.5 C 12.304688 -17.101562 12.207031 -16.75 11.90625 -16.4375 C 11.507812 -16.082031 11.050781 -16.003906 10.53125 -16.203125 C 10.488281 -16.203125 10.4375 -16.207031 10.375 -16.21875 C 10.3125 -16.238281 10.265625 -16.269531 10.234375 -16.3125 C 9.710938 -17.03125 9.1875 -17.328125 8.65625 -17.203125 C 8.125 -17.085938 7.5625 -16.851562 6.96875 -16.5 C 4.195312 -14.875 2.132812 -12.613281 0.78125 -9.71875 C 0.707031 -9.59375 0.660156 -9.453125 0.640625 -9.296875 C 0.628906 -9.148438 0.675781 -9.03125 0.78125 -8.9375 C 1.101562 -8.832031 1.460938 -8.851562 1.859375 -9 C 2.253906 -9.15625 2.648438 -9.378906 3.046875 -9.671875 C 3.441406 -9.972656 3.773438 -10.222656 4.046875 -10.421875 C 4.085938 -10.472656 4.109375 -10.5 4.109375 -10.5 C 5.421875 -11.601562 6.707031 -12.726562 7.96875 -13.875 C 8.519531 -14.46875 9.210938 -14.800781 10.046875 -14.875 C 11.234375 -14.875 11.726562 -14.34375 11.53125 -13.28125 C 11.414062 -12.882812 11.296875 -12.488281 11.171875 -12.09375 C 10.703125 -10.382812 10.679688 -9.378906 11.109375 -9.078125 C 11.546875 -8.785156 12.207031 -8.785156 13.09375 -9.078125 C 13.988281 -9.378906 14.882812 -9.945312 15.78125 -10.78125 C 16.675781 -11.625 17.425781 -12.390625 18.03125 -13.078125 C 18.644531 -13.773438 19.160156 -14 19.578125 -13.75 Z M 19.578125 -13.75 "/></g></g></g><g fill="#ff3131" fill-opacity="1"><g transform="translate(315.921364, 158.894865)"><g><path d="M 21.5 -14.171875 C 21.09375 -14.015625 20.675781 -13.878906 20.25 -13.765625 C 20.144531 -13.710938 20.046875 -13.671875 19.953125 -13.640625 C 19.523438 -13.472656 19.09375 -13.316406 18.65625 -13.171875 C 17.4375 -12.773438 16.1875 -12.351562 14.90625 -11.90625 C 13.945312 -11.632812 13.195312 -11.039062 12.65625 -10.125 C 11.78125 -8.695312 10.679688 -7.585938 9.359375 -6.796875 C 8.035156 -6.003906 6.6875 -5.441406 5.3125 -5.109375 C 3.945312 -4.773438 2.738281 -4.566406 1.6875 -4.484375 C 0.632812 -4.410156 -0.0390625 -4.390625 -0.34375 -4.421875 C -0.382812 -4.421875 -0.429688 -4.421875 -0.484375 -4.421875 C -0.921875 -4.148438 -1.351562 -3.617188 -1.78125 -2.828125 C -2.21875 -2.035156 -2.597656 -1.328125 -2.921875 -0.703125 C -2.992188 -0.535156 -3.046875 -0.390625 -3.078125 -0.265625 C -4.859375 3.296875 -6.625 6.859375 -8.375 10.421875 C -9.363281 12.398438 -10.351562 14.378906 -11.34375 16.359375 C -11.664062 17.066406 -12.039062 17.742188 -12.46875 18.390625 C -12.863281 18.890625 -13.359375 18.988281 -13.953125 18.6875 C -14.347656 18.394531 -14.445312 18 -14.25 17.5 C -14.050781 16.976562 -13.835938 16.457031 -13.609375 15.9375 C -10.515625 8.601562 -7.226562 1.351562 -3.75 -5.8125 C -2.675781 -8.019531 -1.660156 -10.273438 -0.703125 -12.578125 C -0.265625 -13.640625 0.179688 -14.726562 0.640625 -15.84375 C 0.679688 -15.957031 0.75 -16.078125 0.84375 -16.203125 C 1.070312 -16.796875 1.347656 -17.367188 1.671875 -17.921875 C 1.816406 -18.117188 2.085938 -18.242188 2.484375 -18.296875 C 2.878906 -18.359375 3.222656 -18.304688 3.515625 -18.140625 C 3.867188 -17.910156 4.046875 -17.5625 4.046875 -17.09375 C 4.046875 -16.851562 4.003906 -16.609375 3.921875 -16.359375 C 3.847656 -16.160156 3.800781 -15.960938 3.78125 -15.765625 C 3.757812 -15.566406 3.820312 -15.367188 3.96875 -15.171875 C 4.257812 -15.140625 4.507812 -15.179688 4.71875 -15.296875 C 4.9375 -15.410156 5.144531 -15.550781 5.34375 -15.71875 C 5.539062 -15.875 5.773438 -15.988281 6.046875 -16.0625 C 6.210938 -16.15625 6.375 -16.238281 6.53125 -16.3125 C 7.394531 -16.707031 8.25 -17.046875 9.09375 -17.328125 C 10.195312 -17.671875 11.285156 -17.59375 12.359375 -17.09375 C 12.828125 -16.800781 13.175781 -16.445312 13.40625 -16.03125 C 13.644531 -15.625 13.828125 -15.1875 13.953125 -14.71875 C 14.078125 -14.351562 14.40625 -14.160156 14.9375 -14.140625 C 15.46875 -14.128906 16.0625 -14.195312 16.71875 -14.34375 C 17.382812 -14.5 17.984375 -14.660156 18.515625 -14.828125 C 18.972656 -14.953125 19.300781 -15.03125 19.5 -15.0625 C 20.03125 -15.1875 20.578125 -15.222656 21.140625 -15.171875 C 21.304688 -15.171875 21.457031 -15.144531 21.59375 -15.09375 C 21.726562 -15.039062 21.796875 -14.894531 21.796875 -14.65625 C 21.796875 -14.570312 21.765625 -14.476562 21.703125 -14.375 C 21.648438 -14.28125 21.582031 -14.210938 21.5 -14.171875 Z M 10.15625 -12.390625 C 10.507812 -12.628906 10.726562 -13.015625 10.8125 -13.546875 C 10.894531 -14.085938 10.835938 -14.613281 10.640625 -15.125 C 10.546875 -15.28125 10.421875 -15.390625 10.265625 -15.453125 C 10.117188 -15.515625 9.960938 -15.546875 9.796875 -15.546875 C 9.472656 -15.492188 9.160156 -15.394531 8.859375 -15.25 C 5.523438 -13.582031 2.832031 -11.207031 0.78125 -8.125 C 0.382812 -7.40625 0.429688 -7.085938 0.921875 -7.171875 C 1.421875 -7.253906 2.164062 -7.5625 3.15625 -8.09375 C 4.144531 -8.625 5.171875 -9.234375 6.234375 -9.921875 C 7.296875 -10.617188 8.207031 -11.207031 8.96875 -11.6875 C 9.644531 -12.125 10.039062 -12.359375 10.15625 -12.390625 Z M 10.15625 -12.390625 "/></g></g></g><g fill="#ff3131" fill-opacity="1"><g transform="translate(334.71664, 158.894865)"><g><path d="M 19.578125 -13.75 C 20.003906 -13.507812 20.039062 -12.921875 19.6875 -11.984375 C 19.164062 -11.304688 18.609375 -10.671875 18.015625 -10.078125 C 17.421875 -9.484375 16.769531 -8.953125 16.0625 -8.484375 C 16.007812 -8.484375 15.984375 -8.460938 15.984375 -8.421875 C 15.515625 -8.097656 15.019531 -7.820312 14.5 -7.59375 C 10.195312 -6.039062 8 -6.945312 7.90625 -10.3125 C 6.164062 -8.800781 5 -7.875 4.40625 -7.53125 C 2.976562 -6.6875 1.4375 -6.3125 -0.21875 -6.40625 C -1.4375 -6.46875 -2.265625 -6.835938 -2.703125 -7.515625 C -3.148438 -8.191406 -3.113281 -9.109375 -2.59375 -10.265625 C -1.800781 -12.078125 -0.675781 -13.695312 0.78125 -15.125 C 2.488281 -16.707031 4.390625 -17.972656 6.484375 -18.921875 C 7.597656 -19.484375 8.765625 -19.703125 9.984375 -19.578125 C 11.210938 -19.503906 11.953125 -18.8125 12.203125 -17.5 C 12.304688 -17.101562 12.207031 -16.75 11.90625 -16.4375 C 11.507812 -16.082031 11.050781 -16.003906 10.53125 -16.203125 C 10.488281 -16.203125 10.4375 -16.207031 10.375 -16.21875 C 10.3125 -16.238281 10.265625 -16.269531 10.234375 -16.3125 C 9.710938 -17.03125 9.1875 -17.328125 8.65625 -17.203125 C 8.125 -17.085938 7.5625 -16.851562 6.96875 -16.5 C 4.195312 -14.875 2.132812 -12.613281 0.78125 -9.71875 C 0.707031 -9.59375 0.660156 -9.453125 0.640625 -9.296875 C 0.628906 -9.148438 0.675781 -9.03125 0.78125 -8.9375 C 1.101562 -8.832031 1.460938 -8.851562 1.859375 -9 C 2.253906 -9.15625 2.648438 -9.378906 3.046875 -9.671875 C 3.441406 -9.972656 3.773438 -10.222656 4.046875 -10.421875 C 4.085938 -10.472656 4.109375 -10.5 4.109375 -10.5 C 5.421875 -11.601562 6.707031 -12.726562 7.96875 -13.875 C 8.519531 -14.46875 9.210938 -14.800781 10.046875 -14.875 C 11.234375 -14.875 11.726562 -14.34375 11.53125 -13.28125 C 11.414062 -12.882812 11.296875 -12.488281 11.171875 -12.09375 C 10.703125 -10.382812 10.679688 -9.378906 11.109375 -9.078125 C 11.546875 -8.785156 12.207031 -8.785156 13.09375 -9.078125 C 13.988281 -9.378906 14.882812 -9.945312 15.78125 -10.78125 C 16.675781 -11.625 17.425781 -12.390625 18.03125 -13.078125 C 18.644531 -13.773438 19.160156 -14 19.578125 -13.75 Z M 19.578125 -13.75 "/></g></g></g><g fill="#ff3131" fill-opacity="1"><g transform="translate(351.513659, 158.894865)"><g><path d="M 13.0625 -12.875 C 13.65625 -13.46875 14.148438 -13.800781 14.546875 -13.875 C 14.941406 -13.945312 15.195312 -13.882812 15.3125 -13.6875 C 15.4375 -13.488281 15.363281 -13.21875 15.09375 -12.875 C 13.507812 -10.96875 11.734375 -9.320312 9.765625 -7.9375 C 7.804688 -6.550781 5.785156 -5.75 3.703125 -5.53125 C 1.628906 -5.320312 0.378906 -6.457031 -0.046875 -8.9375 C -0.378906 -11.40625 1.109375 -16.425781 4.421875 -24 C 7.734375 -31.582031 10.351562 -37.796875 12.28125 -42.640625 C 12.445312 -43.066406 12.691406 -43.441406 13.015625 -43.765625 C 13.441406 -44.203125 13.953125 -44.300781 14.546875 -44.0625 C 14.742188 -43.976562 14.941406 -43.832031 15.140625 -43.625 C 15.335938 -43.425781 15.40625 -43.078125 15.34375 -42.578125 C 6.820312 -22.378906 2.695312 -11.398438 2.96875 -9.640625 C 3.238281 -7.878906 4.375 -7.441406 6.375 -8.328125 C 8.382812 -9.222656 9.929688 -10.132812 11.015625 -11.0625 C 12.109375 -11.988281 12.789062 -12.59375 13.0625 -12.875 Z M 13.0625 -12.875 "/></g></g></g><g fill="#ff3131" fill-opacity="1"><g transform="translate(363.882132, 158.894865)"><g><path d="M 19.578125 -13.75 C 20.003906 -13.507812 20.039062 -12.921875 19.6875 -11.984375 C 19.164062 -11.304688 18.609375 -10.671875 18.015625 -10.078125 C 17.421875 -9.484375 16.769531 -8.953125 16.0625 -8.484375 C 16.007812 -8.484375 15.984375 -8.460938 15.984375 -8.421875 C 15.515625 -8.097656 15.019531 -7.820312 14.5 -7.59375 C 10.195312 -6.039062 8 -6.945312 7.90625 -10.3125 C 6.164062 -8.800781 5 -7.875 4.40625 -7.53125 C 2.976562 -6.6875 1.4375 -6.3125 -0.21875 -6.40625 C -1.4375 -6.46875 -2.265625 -6.835938 -2.703125 -7.515625 C -3.148438 -8.191406 -3.113281 -9.109375 -2.59375 -10.265625 C -1.800781 -12.078125 -0.675781 -13.695312 0.78125 -15.125 C 2.488281 -16.707031 4.390625 -17.972656 6.484375 -18.921875 C 7.597656 -19.484375 8.765625 -19.703125 9.984375 -19.578125 C 11.210938 -19.503906 11.953125 -18.8125 12.203125 -17.5 C 12.304688 -17.101562 12.207031 -16.75 11.90625 -16.4375 C 11.507812 -16.082031 11.050781 -16.003906 10.53125 -16.203125 C 10.488281 -16.203125 10.4375 -16.207031 10.375 -16.21875 C 10.3125 -16.238281 10.265625 -16.269531 10.234375 -16.3125 C 9.710938 -17.03125 9.1875 -17.328125 8.65625 -17.203125 C 8.125 -17.085938 7.5625 -16.851562 6.96875 -16.5 C 4.195312 -14.875 2.132812 -12.613281 0.78125 -9.71875 C 0.707031 -9.59375 0.660156 -9.453125 0.640625 -9.296875 C 0.628906 -9.148438 0.675781 -9.03125 0.78125 -8.9375 C 1.101562 -8.832031 1.460938 -8.851562 1.859375 -9 C 2.253906 -9.15625 2.648438 -9.378906 3.046875 -9.671875 C 3.441406 -9.972656 3.773438 -10.222656 4.046875 -10.421875 C 4.085938 -10.472656 4.109375 -10.5 4.109375 -10.5 C 5.421875 -11.601562 6.707031 -12.726562 7.96875 -13.875 C 8.519531 -14.46875 9.210938 -14.800781 10.046875 -14.875 C 11.234375 -14.875 11.726562 -14.34375 11.53125 -13.28125 C 11.414062 -12.882812 11.296875 -12.488281 11.171875 -12.09375 C 10.703125 -10.382812 10.679688 -9.378906 11.109375 -9.078125 C 11.546875 -8.785156 12.207031 -8.785156 13.09375 -9.078125 C 13.988281 -9.378906 14.882812 -9.945312 15.78125 -10.78125 C 16.675781 -11.625 17.425781 -12.390625 18.03125 -13.078125 C 18.644531 -13.773438 19.160156 -14 19.578125 -13.75 Z M 19.578125 -13.75 "/></g></g></g></svg>