<svg xmlns="http://www.w3.org/2000/svg" xmlns:xlink="http://www.w3.org/1999/xlink" width="500" zoomAndPan="magnify" viewBox="0 0 375 374.999991" height="500" preserveAspectRatio="xMidYMid meet" version="1.0"><defs><g/></defs><rect x="-37.5" width="450" fill="#ffffff" y="-37.499999" height="449.999989" fill-opacity="1"/><rect x="-37.5" width="450" fill="#ffffff" y="-37.499999" height="449.999989" fill-opacity="1"/><path stroke-linecap="butt" transform="matrix(1.220487, 0, 0, 1.220487, 43.306938, 48.97473)" fill="none" stroke-linejoin="miter" d="M 20.510591 36.644795 L 51.706519 36.644795 L 114.527252 124.321132 L 114.370424 47.50752 C 114.370424 43.199556 113.419856 40.661507 111.515518 39.896571 C 109.639986 39.131636 106.801083 38.747567 102.995608 38.747567 L 102.995608 36.644795 L 128.00484 36.644795 L 128.00484 38.747567 C 124.330589 38.747567 121.542895 39.10283 119.641758 39.816557 C 117.740621 40.530283 116.681234 42.828291 116.469996 46.713779 L 116.630024 154.998569 L 114.527252 154.998569 L 39.377934 50.122383 L 39.377934 144.139044 C 39.377934 148.447008 40.344506 150.985057 42.271247 151.749993 C 44.226794 152.514929 47.094502 152.898997 50.874372 152.898997 L 50.874372 154.998569 L 25.705111 154.998569 L 25.705111 152.898997 C 29.616204 152.898997 32.509517 152.514929 34.38505 151.749993 C 36.286186 150.985057 37.236755 148.447008 37.236755 144.139044 L 37.236755 47.190664 C 35.310013 43.938887 32.957597 41.720894 30.182705 40.530283 C 27.433418 39.342873 24.210446 38.747567 20.510591 38.747567 Z M 20.510591 36.644795 " stroke="#ffffff" stroke-width="16.641142" stroke-opacity="1" stroke-miterlimit="4"/><g fill="#000000" fill-opacity="1"><g transform="translate(63.40683, 238.150184)"><g><path d="M 4.953125 -144.4375 L 43 -144.4375 L 119.671875 -37.453125 L 119.484375 -131.171875 C 119.484375 -136.453125 118.328125 -139.554688 116.015625 -140.484375 C 113.703125 -141.410156 110.234375 -141.875 105.609375 -141.875 L 105.609375 -144.4375 L 136.125 -144.4375 L 136.125 -141.875 C 131.632812 -141.875 128.234375 -141.441406 125.921875 -140.578125 C 123.609375 -139.722656 122.316406 -136.914062 122.046875 -132.15625 L 122.25 0 L 119.671875 0 L 27.9375 -128 L 27.9375 -13.28125 C 27.9375 -7.988281 29.125 -4.878906 31.5 -3.953125 C 33.882812 -3.035156 37.382812 -2.578125 42 -2.578125 L 42 0 L 11.296875 0 L 11.296875 -2.578125 C 16.046875 -2.578125 19.578125 -3.035156 21.890625 -3.953125 C 24.203125 -4.878906 25.359375 -7.988281 25.359375 -13.28125 L 25.359375 -131.5625 C 22.984375 -135.53125 20.109375 -138.238281 16.734375 -139.6875 C 13.367188 -141.144531 9.441406 -141.875 4.953125 -141.875 Z M 4.953125 -144.4375 "/></g></g></g><g fill="#000000" fill-opacity="1"><g transform="translate(87.429776, 268.396887)"><g><path d="M 2.546875 -8.828125 L 2.546875 0 L 1.328125 0 L 1.328125 -12.734375 L 8.046875 -3.171875 L 8.046875 -11.96875 L 9.28125 -11.96875 L 9.28125 0.734375 Z M 2.546875 -8.828125 "/></g></g></g><g fill="#000000" fill-opacity="1"><g transform="translate(103.117178, 268.396887)"><g><path d="M 2.546875 0 L 1.328125 0 L 1.328125 -11.96875 L 2.546875 -11.96875 Z M 2.546875 0 "/></g></g></g><g fill="#000000" fill-opacity="1"><g transform="translate(112.080992, 268.396887)"><g><path d="M 2.546875 0 L 1.328125 0 L 1.328125 -11.96875 L 2.546875 -11.96875 L 2.546875 -6.359375 L 6.578125 -11.96875 L 8.171875 -11.96875 L 3.765625 -5.984375 L 8.171875 0 L 6.578125 0 L 2.546875 -5.625 Z M 2.546875 0 "/></g></g></g><g fill="#000000" fill-opacity="1"><g transform="translate(125.515468, 268.396887)"><g><path d="M 2.546875 0 L 1.328125 0 L 1.328125 -11.96875 L 2.546875 -11.96875 L 2.546875 -6.578125 L 8 -6.578125 L 8 -11.96875 L 9.234375 -11.96875 L 9.234375 0 L 8 0 L 8 -5.359375 L 2.546875 -5.359375 Z M 2.546875 0 "/></g></g></g><g fill="#000000" fill-opacity="1"><g transform="translate(141.150063, 268.396887)"><g><path d="M 2.546875 0 L 1.328125 0 L 1.328125 -11.96875 L 2.546875 -11.96875 Z M 2.546875 0 "/></g></g></g><g fill="#000000" fill-opacity="1"><g transform="translate(150.113873, 268.396887)"><g><path d="M 2.546875 -1.234375 L 6.828125 -1.234375 L 6.828125 0 L 1.328125 0 L 1.328125 -11.96875 L 2.546875 -11.96875 Z M 2.546875 -1.234375 "/></g></g></g><g fill="#000000" fill-opacity="1"><g transform="translate(162.386678, 268.396887)"><g/></g></g><g fill="#000000" fill-opacity="1"><g transform="translate(172.230547, 268.396887)"><g><path d="M 2.546875 0 L 1.328125 0 L 1.328125 -11.96875 L 2.546875 -11.96875 L 2.546875 -6.359375 L 6.578125 -11.96875 L 8.171875 -11.96875 L 3.765625 -5.984375 L 8.171875 0 L 6.578125 0 L 2.546875 -5.625 Z M 2.546875 0 "/></g></g></g><g fill="#000000" fill-opacity="1"><g transform="translate(185.66502, 268.396887)"><g><path d="M 3.25 -4.40625 L 7.609375 -4.40625 L 5.4375 -9.921875 Z M 10.6875 0 L 9.34375 0 L 8.0625 -3.25 L 2.796875 -3.25 L 1.515625 0 L 0.171875 0 L 5.4375 -12.796875 Z M 10.6875 0 "/></g></g></g><g fill="#000000" fill-opacity="1"><g transform="translate(201.616425, 268.396887)"><g><path d="M 10.625 -5.984375 C 10.625 -5.117188 10.460938 -4.320312 10.140625 -3.59375 C 9.816406 -2.851562 9.378906 -2.21875 8.828125 -1.6875 C 8.273438 -1.15625 7.625 -0.742188 6.875 -0.453125 C 6.113281 -0.148438 5.304688 0 4.453125 0 L 1.328125 0 L 1.328125 -11.96875 L 4.453125 -11.96875 C 5.304688 -11.96875 6.113281 -11.820312 6.875 -11.53125 C 7.625 -11.226562 8.273438 -10.8125 8.828125 -10.28125 C 9.378906 -9.75 9.816406 -9.125 10.140625 -8.40625 C 10.460938 -7.664062 10.625 -6.859375 10.625 -5.984375 Z M 9.421875 -5.984375 C 9.421875 -7.347656 8.941406 -8.488281 7.984375 -9.40625 C 7.035156 -10.289062 5.867188 -10.734375 4.484375 -10.734375 L 2.546875 -10.734375 L 2.546875 -1.234375 L 4.484375 -1.234375 C 5.867188 -1.234375 7.035156 -1.679688 7.984375 -2.578125 C 8.941406 -3.484375 9.421875 -4.617188 9.421875 -5.984375 Z M 9.421875 -5.984375 "/></g></g></g><g fill="#000000" fill-opacity="1"><g transform="translate(218.113461, 268.396887)"><g><path d="M 3.25 -4.40625 L 7.609375 -4.40625 L 5.4375 -9.921875 Z M 10.6875 0 L 9.34375 0 L 8.0625 -3.25 L 2.796875 -3.25 L 1.515625 0 L 0.171875 0 L 5.4375 -12.796875 Z M 10.6875 0 "/></g></g></g><g fill="#000000" fill-opacity="1"><g transform="translate(234.064866, 268.396887)"><g><path d="M 2.546875 -5.9375 L 5.328125 -5.9375 C 6.023438 -5.9375 6.597656 -6.171875 7.046875 -6.640625 C 7.503906 -7.109375 7.734375 -7.695312 7.734375 -8.40625 C 7.734375 -9.101562 7.515625 -9.675781 7.078125 -10.125 C 6.640625 -10.570312 6.054688 -10.796875 5.328125 -10.796875 L 2.546875 -10.796875 Z M 8.96875 -8.359375 C 8.96875 -7.316406 8.597656 -6.453125 7.859375 -5.765625 C 7.128906 -5.078125 6.226562 -4.734375 5.15625 -4.734375 L 2.546875 -4.734375 L 2.546875 0 L 1.328125 0 L 1.328125 -11.96875 L 5.15625 -11.96875 C 6.21875 -11.96875 7.117188 -11.632812 7.859375 -10.96875 C 8.597656 -10.289062 8.96875 -9.421875 8.96875 -8.359375 Z M 8.96875 -8.359375 "/></g></g></g><g fill="#000000" fill-opacity="1"><g transform="translate(248.467381, 268.396887)"><g><path d="M 3.25 -4.40625 L 7.609375 -4.40625 L 5.4375 -9.921875 Z M 10.6875 0 L 9.34375 0 L 8.0625 -3.25 L 2.796875 -3.25 L 1.515625 0 L 0.171875 0 L 5.4375 -12.796875 Z M 10.6875 0 "/></g></g></g><g fill="#000000" fill-opacity="1"><g transform="translate(264.418787, 268.396887)"><g><path d="M 2.546875 -1.234375 L 6.828125 -1.234375 L 6.828125 0 L 1.328125 0 L 1.328125 -11.96875 L 2.546875 -11.96875 Z M 2.546875 -1.234375 "/></g></g></g><g fill="#000000" fill-opacity="1"><g transform="translate(276.691592, 268.396887)"><g><path d="M 3.25 -4.40625 L 7.609375 -4.40625 L 5.4375 -9.921875 Z M 10.6875 0 L 9.34375 0 L 8.0625 -3.25 L 2.796875 -3.25 L 1.515625 0 L 0.171875 0 L 5.4375 -12.796875 Z M 10.6875 0 "/></g></g></g><g fill="#000000" fill-opacity="1"><g transform="translate(165.027736, 238.150184)"><g><path d="M 19.609375 -13.28125 L 19.609375 -131.171875 C 19.609375 -135.796875 18.519531 -138.734375 16.34375 -139.984375 C 14.164062 -141.242188 10.695312 -141.875 5.9375 -141.875 L 5.9375 -144.4375 L 55.28125 -144.4375 L 55.28125 -141.875 C 50.519531 -141.875 47.015625 -141.242188 44.765625 -139.984375 C 42.523438 -138.734375 41.40625 -135.796875 41.40625 -131.171875 L 41.40625 -67.375 L 99.0625 -131.5625 C 102.238281 -134.738281 103.5625 -137.050781 103.03125 -138.5 C 102.5 -139.957031 100.847656 -140.882812 98.078125 -141.28125 C 95.304688 -141.675781 92.132812 -141.875 88.5625 -141.875 L 88.5625 -144.4375 L 126.609375 -144.4375 L 126.609375 -141.875 C 122.773438 -141.875 119.535156 -141.640625 116.890625 -141.171875 C 114.253906 -140.710938 111.8125 -139.789062 109.5625 -138.40625 C 107.320312 -137.019531 104.878906 -134.804688 102.234375 -131.765625 L 51.71875 -75.09375 C 54.351562 -70.601562 57.488281 -67.234375 61.125 -64.984375 C 64.757812 -62.742188 68.296875 -61.625 71.734375 -61.625 C 75.554688 -61.625 78.859375 -62.8125 81.640625 -65.1875 L 117.296875 -13.28125 C 120.335938 -9.050781 123.472656 -6.207031 126.703125 -4.75 C 129.941406 -3.300781 133.410156 -2.578125 137.109375 -2.578125 L 137.109375 0 L 115.71875 0 C 110.164062 0 105.539062 -1.15625 101.84375 -3.46875 C 98.144531 -5.78125 94.972656 -8.6875 92.328125 -12.1875 C 89.691406 -15.6875 87.050781 -19.21875 84.40625 -22.78125 L 49.734375 -73.109375 L 41.40625 -63.796875 L 41.40625 -13.28125 C 41.40625 -8.78125 42.523438 -5.867188 44.765625 -4.546875 C 47.015625 -3.234375 50.519531 -2.578125 55.28125 -2.578125 L 55.28125 0 L 5.9375 0 L 5.9375 -2.578125 C 10.695312 -2.578125 14.164062 -3.234375 16.34375 -4.546875 C 18.519531 -5.867188 19.609375 -8.78125 19.609375 -13.28125 Z M 19.609375 -13.28125 "/></g></g></g></svg>