<svg xmlns="http://www.w3.org/2000/svg" xmlns:xlink="http://www.w3.org/1999/xlink" width="420" zoomAndPan="magnify" viewBox="0 0 315 92.249997" height="123" preserveAspectRatio="xMidYMid meet" version="1.0"><defs><g/><clipPath id="c79d71e399"><path d="M 1.269531 0 L 313.730469 0 L 313.730469 91.507812 L 1.269531 91.507812 Z M 1.269531 0 " clip-rule="nonzero"/></clipPath><clipPath id="f28958a9bc"><path d="M 1.269531 83 L 68 83 L 68 91.507812 L 1.269531 91.507812 Z M 1.269531 83 " clip-rule="nonzero"/></clipPath><clipPath id="57bd817d79"><path d="M 1.269531 23 L 9 23 L 9 91.507812 L 1.269531 91.507812 Z M 1.269531 23 " clip-rule="nonzero"/></clipPath><clipPath id="5009c400d6"><path d="M 243 0 L 313.730469 0 L 313.730469 8 L 243 8 Z M 243 0 " clip-rule="nonzero"/></clipPath></defs><g clip-path="url(#c79d71e399)"><path fill="#ffffff" d="M 1.269531 0 L 313.730469 0 L 313.730469 91.507812 L 1.269531 91.507812 Z M 1.269531 0 " fill-opacity="1" fill-rule="nonzero"/></g><g fill="#000000" fill-opacity="1"><g transform="translate(20.660678, 60.391416)"><g><path d="M 9.34375 -19.296875 L 9.34375 0 L 2.265625 0 L 2.265625 -31.09375 L 9.34375 -31.09375 L 21.703125 -11.796875 L 21.78125 -11.796875 L 21.78125 -31.09375 L 28.875 -31.09375 L 28.875 0 L 21.78125 0 L 9.421875 -19.296875 Z M 9.34375 -19.296875 "/></g></g></g><g fill="#000000" fill-opacity="1"><g transform="translate(48.585231, 60.391416)"><g><path d="M 2.890625 -30.109375 C 3.671875 -30.890625 4.601562 -31.28125 5.6875 -31.28125 C 6.769531 -31.28125 7.695312 -30.890625 8.46875 -30.109375 C 9.25 -29.328125 9.640625 -28.394531 9.640625 -27.3125 C 9.640625 -26.238281 9.25 -25.3125 8.46875 -24.53125 C 7.695312 -23.75 6.769531 -23.359375 5.6875 -23.359375 C 4.601562 -23.359375 3.671875 -23.75 2.890625 -24.53125 C 2.117188 -25.3125 1.734375 -26.238281 1.734375 -27.3125 C 1.734375 -28.394531 2.117188 -29.328125 2.890625 -30.109375 Z M 2.265625 -19.328125 L 2.265625 0 L 8.9375 0 L 8.9375 -19.328125 Z M 2.265625 -19.328125 "/></g></g></g><g fill="#000000" fill-opacity="1"><g transform="translate(56.762398, 60.391416)"><g><path d="M 24.34375 -19.328125 L 15.15625 -10.09375 L 25.25 0 L 16.65625 0 L 8.9375 -7.71875 L 8.9375 0 L 2.265625 0 L 2.265625 -32.40625 L 8.9375 -32.40625 L 8.9375 -12.59375 L 15.671875 -19.328125 Z M 24.34375 -19.328125 "/></g></g></g><g fill="#000000" fill-opacity="1"><g transform="translate(77.903503, 60.391416)"><g><path d="M 2.265625 0 L 2.265625 -32.40625 L 8.9375 -32.40625 L 8.9375 -17.296875 L 9 -17.296875 C 10.738281 -19.035156 12.585938 -19.90625 14.546875 -19.90625 C 15.503906 -19.90625 16.453125 -19.773438 17.390625 -19.515625 C 18.335938 -19.265625 19.242188 -18.875 20.109375 -18.34375 C 20.972656 -17.820312 21.675781 -17.078125 22.21875 -16.109375 C 22.757812 -15.140625 23.03125 -14.015625 23.03125 -12.734375 L 23.03125 0 L 16.359375 0 L 16.359375 -10.921875 C 16.359375 -11.929688 16.035156 -12.8125 15.390625 -13.5625 C 14.753906 -14.320312 13.921875 -14.703125 12.890625 -14.703125 C 11.878906 -14.703125 10.96875 -14.3125 10.15625 -13.53125 C 9.34375 -12.75 8.9375 -11.878906 8.9375 -10.921875 L 8.9375 0 Z M 2.265625 0 "/></g></g></g><g fill="#000000" fill-opacity="1"><g transform="translate(99.609893, 60.391416)"><g><path d="M 2.890625 -30.109375 C 3.671875 -30.890625 4.601562 -31.28125 5.6875 -31.28125 C 6.769531 -31.28125 7.695312 -30.890625 8.46875 -30.109375 C 9.25 -29.328125 9.640625 -28.394531 9.640625 -27.3125 C 9.640625 -26.238281 9.25 -25.3125 8.46875 -24.53125 C 7.695312 -23.75 6.769531 -23.359375 5.6875 -23.359375 C 4.601562 -23.359375 3.671875 -23.75 2.890625 -24.53125 C 2.117188 -25.3125 1.734375 -26.238281 1.734375 -27.3125 C 1.734375 -28.394531 2.117188 -29.328125 2.890625 -30.109375 Z M 2.265625 -19.328125 L 2.265625 0 L 8.9375 0 L 8.9375 -19.328125 Z M 2.265625 -19.328125 "/></g></g></g><g fill="#000000" fill-opacity="1"><g transform="translate(107.787059, 60.391416)"><g><path d="M 2.265625 0 L 2.265625 -32.40625 L 8.9375 -32.40625 L 8.9375 0 Z M 2.265625 0 "/></g></g></g><g fill="#000000" fill-opacity="1"><g transform="translate(115.775798, 60.391416)"><g/></g></g><g fill="#000000" fill-opacity="1"><g transform="translate(122.860082, 60.391416)"><g><path d="M 30.5625 0 L 20.796875 0 L 9.34375 -13.1875 L 9.34375 0 L 2.265625 0 L 2.265625 -31.09375 L 9.34375 -31.09375 L 9.34375 -18.390625 L 20.015625 -31.09375 L 28.609375 -31.09375 L 16.09375 -16.359375 Z M 30.5625 0 "/></g></g></g><g fill="#000000" fill-opacity="1"><g transform="translate(149.314884, 60.391416)"><g><path d="M 3.578125 -2.390625 C 1.765625 -4.367188 0.859375 -6.785156 0.859375 -9.640625 C 0.859375 -12.503906 1.765625 -14.929688 3.578125 -16.921875 C 5.390625 -18.910156 7.691406 -19.90625 10.484375 -19.90625 C 13.046875 -19.90625 15.15625 -19.097656 16.8125 -17.484375 L 16.8125 -19.328125 L 23.484375 -19.328125 L 23.484375 0 L 16.890625 0 L 16.890625 -2.1875 L 16.8125 -2.1875 C 15.15625 -0.351562 13.046875 0.5625 10.484375 0.5625 C 7.691406 0.5625 5.390625 -0.421875 3.578125 -2.390625 Z M 9.25 -12.921875 C 8.382812 -12.066406 7.953125 -10.972656 7.953125 -9.640625 C 7.953125 -8.316406 8.363281 -7.234375 9.1875 -6.390625 C 10.019531 -5.546875 11.113281 -5.125 12.46875 -5.125 C 13.78125 -5.125 14.851562 -5.550781 15.6875 -6.40625 C 16.53125 -7.257812 16.953125 -8.335938 16.953125 -9.640625 C 16.953125 -10.972656 16.519531 -12.066406 15.65625 -12.921875 C 14.789062 -13.773438 13.726562 -14.203125 12.46875 -14.203125 C 11.1875 -14.203125 10.113281 -13.773438 9.25 -12.921875 Z M 9.25 -12.921875 "/></g></g></g><g fill="#000000" fill-opacity="1"><g transform="translate(171.850363, 60.391416)"><g><path d="M 3.578125 -2.390625 C 1.765625 -4.367188 0.859375 -6.785156 0.859375 -9.640625 C 0.859375 -12.503906 1.765625 -14.929688 3.578125 -16.921875 C 5.390625 -18.910156 7.691406 -19.90625 10.484375 -19.90625 C 13.046875 -19.90625 15.15625 -19.097656 16.8125 -17.484375 L 16.8125 -32.40625 L 23.484375 -32.40625 L 23.484375 0 L 16.890625 0 L 16.890625 -2.1875 L 16.8125 -2.1875 C 15.15625 -0.351562 13.046875 0.5625 10.484375 0.5625 C 7.691406 0.5625 5.390625 -0.421875 3.578125 -2.390625 Z M 9.25 -12.921875 C 8.382812 -12.066406 7.953125 -10.972656 7.953125 -9.640625 C 7.953125 -8.316406 8.363281 -7.234375 9.1875 -6.390625 C 10.019531 -5.546875 11.113281 -5.125 12.46875 -5.125 C 13.78125 -5.125 14.851562 -5.550781 15.6875 -6.40625 C 16.53125 -7.257812 16.953125 -8.335938 16.953125 -9.640625 C 16.953125 -10.972656 16.519531 -12.066406 15.65625 -12.921875 C 14.789062 -13.773438 13.726562 -14.203125 12.46875 -14.203125 C 11.1875 -14.203125 10.113281 -13.773438 9.25 -12.921875 Z M 9.25 -12.921875 "/></g></g></g><g fill="#000000" fill-opacity="1"><g transform="translate(194.385842, 60.391416)"><g><path d="M 3.578125 -2.390625 C 1.765625 -4.367188 0.859375 -6.785156 0.859375 -9.640625 C 0.859375 -12.503906 1.765625 -14.929688 3.578125 -16.921875 C 5.390625 -18.910156 7.691406 -19.90625 10.484375 -19.90625 C 13.046875 -19.90625 15.15625 -19.097656 16.8125 -17.484375 L 16.8125 -19.328125 L 23.484375 -19.328125 L 23.484375 0 L 16.890625 0 L 16.890625 -2.1875 L 16.8125 -2.1875 C 15.15625 -0.351562 13.046875 0.5625 10.484375 0.5625 C 7.691406 0.5625 5.390625 -0.421875 3.578125 -2.390625 Z M 9.25 -12.921875 C 8.382812 -12.066406 7.953125 -10.972656 7.953125 -9.640625 C 7.953125 -8.316406 8.363281 -7.234375 9.1875 -6.390625 C 10.019531 -5.546875 11.113281 -5.125 12.46875 -5.125 C 13.78125 -5.125 14.851562 -5.550781 15.6875 -6.40625 C 16.53125 -7.257812 16.953125 -8.335938 16.953125 -9.640625 C 16.953125 -10.972656 16.519531 -12.066406 15.65625 -12.921875 C 14.789062 -13.773438 13.726562 -14.203125 12.46875 -14.203125 C 11.1875 -14.203125 10.113281 -13.773438 9.25 -12.921875 Z M 9.25 -12.921875 "/></g></g></g><g fill="#000000" fill-opacity="1"><g transform="translate(216.921333, 60.391416)"><g><path d="M 22.15625 -16.9375 C 23.96875 -14.96875 24.875 -12.550781 24.875 -9.6875 C 24.875 -6.820312 23.96875 -4.394531 22.15625 -2.40625 C 20.351562 -0.425781 18.054688 0.5625 15.265625 0.5625 C 12.703125 0.5625 10.59375 -0.238281 8.9375 -1.84375 L 8.9375 9.796875 L 2.265625 9.796875 L 2.265625 -19.328125 L 8.859375 -19.328125 L 8.859375 -17.140625 L 8.9375 -17.140625 C 10.59375 -18.984375 12.703125 -19.90625 15.265625 -19.90625 C 18.054688 -19.90625 20.351562 -18.914062 22.15625 -16.9375 Z M 16.484375 -6.40625 C 17.347656 -7.257812 17.78125 -8.351562 17.78125 -9.6875 C 17.78125 -11.019531 17.363281 -12.101562 16.53125 -12.9375 C 15.707031 -13.78125 14.617188 -14.203125 13.265625 -14.203125 C 11.960938 -14.203125 10.890625 -13.773438 10.046875 -12.921875 C 9.203125 -12.066406 8.78125 -10.988281 8.78125 -9.6875 C 8.78125 -8.351562 9.210938 -7.257812 10.078125 -6.40625 C 10.941406 -5.550781 12.003906 -5.125 13.265625 -5.125 C 14.546875 -5.125 15.617188 -5.550781 16.484375 -6.40625 Z M 16.484375 -6.40625 "/></g></g></g><g fill="#000000" fill-opacity="1"><g transform="translate(239.456813, 60.391416)"><g><path d="M 3.578125 -2.390625 C 1.765625 -4.367188 0.859375 -6.785156 0.859375 -9.640625 C 0.859375 -12.503906 1.765625 -14.929688 3.578125 -16.921875 C 5.390625 -18.910156 7.691406 -19.90625 10.484375 -19.90625 C 13.046875 -19.90625 15.15625 -19.097656 16.8125 -17.484375 L 16.8125 -19.328125 L 23.484375 -19.328125 L 23.484375 0 L 16.890625 0 L 16.890625 -2.1875 L 16.8125 -2.1875 C 15.15625 -0.351562 13.046875 0.5625 10.484375 0.5625 C 7.691406 0.5625 5.390625 -0.421875 3.578125 -2.390625 Z M 9.25 -12.921875 C 8.382812 -12.066406 7.953125 -10.972656 7.953125 -9.640625 C 7.953125 -8.316406 8.363281 -7.234375 9.1875 -6.390625 C 10.019531 -5.546875 11.113281 -5.125 12.46875 -5.125 C 13.78125 -5.125 14.851562 -5.550781 15.6875 -6.40625 C 16.53125 -7.257812 16.953125 -8.335938 16.953125 -9.640625 C 16.953125 -10.972656 16.519531 -12.066406 15.65625 -12.921875 C 14.789062 -13.773438 13.726562 -14.203125 12.46875 -14.203125 C 11.1875 -14.203125 10.113281 -13.773438 9.25 -12.921875 Z M 9.25 -12.921875 "/></g></g></g><g fill="#000000" fill-opacity="1"><g transform="translate(261.992292, 60.391416)"><g><path d="M 2.265625 0 L 2.265625 -32.40625 L 8.9375 -32.40625 L 8.9375 0 Z M 2.265625 0 "/></g></g></g><g fill="#000000" fill-opacity="1"><g transform="translate(269.98103, 60.391416)"><g><path d="M 3.578125 -2.390625 C 1.765625 -4.367188 0.859375 -6.785156 0.859375 -9.640625 C 0.859375 -12.503906 1.765625 -14.929688 3.578125 -16.921875 C 5.390625 -18.910156 7.691406 -19.90625 10.484375 -19.90625 C 13.046875 -19.90625 15.15625 -19.097656 16.8125 -17.484375 L 16.8125 -19.328125 L 23.484375 -19.328125 L 23.484375 0 L 16.890625 0 L 16.890625 -2.1875 L 16.8125 -2.1875 C 15.15625 -0.351562 13.046875 0.5625 10.484375 0.5625 C 7.691406 0.5625 5.390625 -0.421875 3.578125 -2.390625 Z M 9.25 -12.921875 C 8.382812 -12.066406 7.953125 -10.972656 7.953125 -9.640625 C 7.953125 -8.316406 8.363281 -7.234375 9.1875 -6.390625 C 10.019531 -5.546875 11.113281 -5.125 12.46875 -5.125 C 13.78125 -5.125 14.851562 -5.550781 15.6875 -6.40625 C 16.53125 -7.257812 16.953125 -8.335938 16.953125 -9.640625 C 16.953125 -10.972656 16.519531 -12.066406 15.65625 -12.921875 C 14.789062 -13.773438 13.726562 -14.203125 12.46875 -14.203125 C 11.1875 -14.203125 10.113281 -13.773438 9.25 -12.921875 Z M 9.25 -12.921875 "/></g></g></g><g clip-path="url(#f28958a9bc)"><path stroke-linecap="butt" transform="matrix(0.743952, 0, 0, 0.743952, 1.270166, 83.848245)" fill="none" stroke-linejoin="miter" d="M -0.000853713 4.997854 L 84.435298 4.997854 " stroke="#292929" stroke-width="10" stroke-opacity="1" stroke-miterlimit="4"/></g><g clip-path="url(#57bd817d79)"><path stroke-linecap="butt" transform="matrix(0, 0.743952, -0.743952, 0, 8.705868, 27.71096)" fill="none" stroke-linejoin="miter" d="M -0.0000308436 5.002332 L 82.461866 5.002332 " stroke="#292929" stroke-width="10" stroke-opacity="1" stroke-miterlimit="4"/></g><g clip-path="url(#5009c400d6)"><path stroke-linecap="butt" transform="matrix(-0.743952, 0, 0, -0.743952, 310.207616, 7.431887)" fill="none" stroke-linejoin="miter" d="M 0.00078585 5.001602 L 84.431686 5.001602 " stroke="#292929" stroke-width="10" stroke-opacity="1" stroke-miterlimit="4"/></g><path stroke-linecap="butt" transform="matrix(0, -0.743952, 0.743952, 0, 302.771909, 63.56917)" fill="none" stroke-linejoin="miter" d="M -0.00153528 5.000699 L 82.465612 5.000699 " stroke="#292929" stroke-width="10" stroke-opacity="1" stroke-miterlimit="4"/></svg>